<mxfile host="drawio-plugin" modified="2024-01-26T16:58:52.142Z" agent="5.0 (Windows NT 6.2; Win64; x64) AppleWebKit/537.36 (KHTML, like Gecko) Chrome/104.0.5112.102 Safari/537.36" version="20.5.3" etag="NIEcNrcKC_N79M_xG6gd" type="embed"><diagram id="BNNE8kqqZS9khiAb7vit" name="Page-1"><mxGraphModel dx="628" dy="563" grid="0" gridSize="10" guides="1" tooltips="1" connect="1" arrows="1" fold="1" page="0" pageScale="1" pageWidth="850" pageHeight="1100" math="0" shadow="0"><root><mxCell id="0"/><mxCell id="1" parent="0"/><mxCell id="2" value="" style="shape=image;verticalLabelPosition=bottom;labelBackgroundColor=default;verticalAlign=top;aspect=fixed;imageAspect=0;image=data:image/png,iVBORw0KGgoAAAANSUhEUgAAAqcAAAEECAYAAAAVhZ3ZAAAAAXNSR0IArs4c6QAAAARnQU1BAACxjwv8YQUAAAAJcEhZcwAAEnQAABJ0Ad5mH3gAAP+lSURBVHhe7J0HgF1F9f/P9t6zaZtsek8g9N6lY0PFLqCioqjY8afo3/ZTfzZABRQroALSi1IFgnRII733sn0321v+8znvnc3Ny3vbs7vZzHczee/dMvfeuWfO+c6ZMzNxex3Ew8PDw8PDw8PDYwggPvzp4eHh4eHh4eHhMejw5NTDw8PDw8PDw2PIwJNTDw8PDw8PDw+PIQNPTj08PDw8PDw8PIYMPDn18PDw8PDw8PAYMvDk1MPDw8PDw8PDY8jAk1MPDw8PDw8PD48hA09OPTw8PDw8PDw8hgw8OfXw8PDw8PDw8Bgy8OTUw8PDw8PDw8NjyMCTUw8PDw8PDw8PjyEDT049PDw8PDw8PDyGDDw59fDw8PDw8PDwGDKI2+sQ/u7h4eHRbex1fwcLce7Pw6MzHEz5A14GPfoLIUn1+rIn8OTUw8OjVzjYqiMuzpMDj9hQcnqwRNCJnienHv2Fg06zhqG8enLq4eHRY7S2t0p9S6O0tbU6LdL/SjE5IUnSklIlPs5HHnkciLb2Nmlw8tfi5PBgIDE+0clfin56ePQVdc310tzWEv7Vj3D0LT4+3slqmurM4QRPTnuIYHF5z47H4Yj2ve1SWlshi3csl9K6cmfAE/rJM6DNf2lvb5cJeePkmHHzlKB6eBiQMrRudWONk7+VsqN6p27vX8RJYWaBHDlmln4i20Fd722AR3dhsvLqlkWysWJLSH6RmX7Ql3hK2/a2SUZyuhxVNFeK84q0gkSTyf6U2YGS/yFFTrkVDFM0UAiWoqGzc2OhqzwjQf7B69BiIXX3fA+P/oTJYzQgk8hmLHR2bixYXUEhLtq+XG584Y9KUDNSMpSwHgCXf+ga4frhPjqrKy53p1v3Sktrs5w//Qz52llXy4iM/PBeD4+QnkeG1pVtkt+8+Bd5YeNrEo9MxZQrJ3/8C4u6HsV/UY43+eMa88fMls+dfLkcNW6uemkTwg0wUtDOWD3rTK49Dk8gS8iOkxD53lO/ksdWPq1yZ7J0AFS+wt/duSpTncgVct/Y3CijswvlS6d/Ss6fcYbKelAWTV5NdoPy2huZJS/Lz/IIpv6E95x2A1ZEsQq/q/0eHsMJrU7hLtq+TH614DZZVblexowcvR85VcUV75RwYoLEJyXod7a1t7RLW3MrB7ijXF2JqC78bGltk9KyMjln8sly3dmfk8KMgtBODw8HlS2nZyGnNI5e27lEsrKzJDk5qUMPG/gdnxgvCcmJEp8Qj92WvW3IYJu0OzmL1Nf8bm1tlT17amVm7mT5/ClXytHj5oUJRuzGHtex+/I2wMOwj5zGyfWP/1z+teZZyS/IlbSUVKcvg7Lqvju5UTl18qr6st2di5y2tHXIViQSEhJkd2mJ5CZkyZdOu0ounHVWOKvQsZDIzhwUsfKNBpPxzuoA6E/5HzLktK2tTSoqKmT58uWSmJi438NSyNnZ2TJu3DgZMWLEAYXK7y1btsjOnTulublZC7Czx7I8U1NTpaioSFNX4PjS0lJZunSp7NixQ7dx3vz58yUvL08FxcPjYMNkv7a2VrZv3y67d+/eT975Th0oLi5W+UTG7Rz7bGlpkZUrV0pNTc1++2LB8iwoKNB8M7MyZeG2t+TGF/8o6+u2yqTiCSFySh4uLwhpW2OL1O6olpptVdJa3ywJKYmSMTpbciePUCXc7kiCHh8ASrypqUm2btshZxSfECan3nPqsQ8mryFy+idZVLZMRhQWSFpaWogIuH3IVZwa+XhpKK2V6i0V0lBR57aLpOamSXZxvmSOyVEZ3Nvq5DBsSji3ublFysvKZXJ6sXz+1Ctk/tg5up0/6s1bb70lGzdu1PqXnJwsY8aMkalTp6ptAl0RAo/DB0Fy+p3HfyGPr31exo4fLZkZ6SFyirp0RDTONZxotFdvLHc6s0ramtokMT1JssblStbYXElIS3KNKSenTrbQr5q3Oz8pMUk2bd0qGW0pcu2pn1RyqvWDP3cc3xsaGuT1119XfkTDa/To0TJ37lyVV60r3YDVOc7ftm2b1oHKykrdlp+fL9OnT5fx48errQke31cMOjm1y1OIL774onz7299WcgpZpaIDjjniiCPkwx/+sJx1VugFmEGmEDj2tttuk4cffljKyso6CiZotNlGfiS+sx3F8v73v1/zjQY7d+3atfLvf/9bnnnmGX05GHUAYealnHfeeXLRRRfJhAkTvGLyOKiwOrFu3Tq566675F//+pfKnNUX6g5E8mMf+5i8733vUxkP1hdQVVUlX//617UhiMKhPljiGPskPz7JE8N8yimnyEddvkcceYS8uXWp/OblvzhyuiVETqlXCa6O4flctlN2vrZJKteVSlNVg3oA8Fwl56Sqwh1/6lQpnFckiWmuEdq+r36irJvcvW/dut2TU4+oMPmEnN7kyOnCsuUhcpqe6uoAut3pfUdMG8rrZOvz65ws7pDaXTXaQAKJqUmSPipLRsweI+PPmCYZIzMDMhhqhJWXVcjktHFyjSOnR42dK9U11fLA/Q/IggULZMOGDVJeXq6NKBwS2AAagccee6zWNwx1KK++G2ePQxvRyGmRI6cZkFMnc+jL1oYWKV2+U7b9d73UuEZUU3WD7G1z+to18GlI5U4plLEnTHTyOloSUp2+bHWyiqp09SA5MdmR0y2S3urI6WmOnM503Mj9cT140GOPPaZp06ZNUl1drTYiKytLOcvJJ58sF198sfIqq1OxAN9544035IEHHlAuhHMOvsZ56enpMnLkSDnyyCPlwgsvlNNPP10bbV3l2R0k/D+H8PdBBZUdr+TNN9+sHlBLu3bt0k9axkcddZTMmjVLj7cH55OCeOSRR+Tpp5/WwrNzoiX22X4UEfnxoiJBnqT//ve/8vvf/17uueceWbJkib4YlBMtBzyptEhWrVolJSUl6tWlZcI99fXFeHhEgzWukDsaTE899ZTKpMk3nlQ+582bp/UlJyenQ1HY5549e+TWW2+VRYsWqffV6oXlEZmQbT7xnB5z9NFSPGG87KzeLa9tWyyVLTWSm50TUrSNLbLp6dWy4d/LZffCbbJne7U0VtZL854maapp1O+1O2vUQ4DqTh+RKUnpyXxVoFTbHFmuqdkjE3PGyamTjpeM5LTQTg+PMJDhivoqHWSys75U0jPSXAMqyYlRqG7UbKuUFX9/Q7b+d51Uri+ThrI9zug3OjlsVONfX1Ire7ZWSo1LmaOzJcWRAM5z/9SAN9Q1SH5yrhwzdp7s2VUtN950o9x5553qgcLQUx/o5SPxnbq4evVqbTBipKlzofy8DTjcoTrX/T277mVZV7FJsnKyJCkpiYBRaaxwDagF62TNA4ulzBHUOteIQj5NX9LAqt1Z7fRolYajqBc1JdEZgZDCxOFQ5YhjcnuinDjhaJk2YpI2tJDD3/72t3L77berzKLjjbNAWrdu3aqcBbnNyMhQzz8Iyiv3ja3hmPvvv1/ze+6552TNmjVqK4L5kT/X5FgcGTNnzuzIqy91YMi4+WiF0j1ON/kxxxyjxpWXaB4hCosUC7afY3EvT5o0SVuz5IeRPu6447RLkutYnhyXmZkZzmEf7Dp03/zzn/+UBx98UAu/sbFRWx7c39HOSHMu2yDE9957r9x3332yfv16PZf8PTz6G1bZabHiqUe2kcdgt2JXdQXYcdQFSCddPdQX8iPRoqbLBuBdtfoS6rpx92BKh8u4hLeqZOl22fLsGqdod6nHlEPSC7Mkf8YoyR6Xpx6B1rpmqVxb4gjsCil9a7u0NDRr15aHR18QFxeSdwz7hn8tl20vbtCGUKuTr+SMFMmZWKAhJSnZqdqIqttdIzte3ijrHlnmyGvdfvUF7xOGv6G+QV54boH87c6/aS8DPQ7YKGzTiSeeqEYY415fX68G//HHH5e//vWvUlcXyq+rOuhxeAJ9Rzc+Xv2Nj6+QitW7pbm2UfVjVlGuFMwcpR59ZtFrdHq0bMVO2ez06u5FW/fp3SjANuBEwFH397//XVasWKGyiM5Gv8OF0PU4Amlk4dz405/+pESVcyM5C3p/8eLFmhe92hBRjpk9e7accMIJyoGoD/Sq4RR54YUX1IkHgSW/vsr/oHtOeQhLFCIEku5DjOMrr7yisT3AXNGxPKewegoSrxDH4rL+4Ac/qEqE/E499VQtQJQIHlOUz/HHHy/veMc7ZOLEiZpHME8A2bz77rv1RdIimDJlinbdXHbZZXLSSSfpi0YYUE64vnF1jx07Vu+R44Hl5eHRX0CmaLghfygKGl7IG7FAAFmmrrA9NzdXtwVlG3lFieBxhZxSNz7wgQ9oeAr1hXPnzJkjCxcu7OgOovvyElenzjzzTMly33fVlMirWxdJZXON5BfkSdOeRllz/2IpcwqXrqqkjGSnZEfLhDOnydjjJ0rOpAJt1deX1er9QV7jkxIle3yepBVkKMHlDrmW95x6dAZkeJ/ntMQ11NIkKTlZ4/LwQK26Z6F6SZ2gSebYXBl38mQZd8oU7cpPzU2X5hq8qE3qjaov2eOIa756UBOTE6Sttc3Vj0bJT8mRo0bPkb01rbKrdLfs3LFTbdKll14qb3/727UeQFJTUlLUewoJwEjjTbrgggu03mFj7H49Dk8orwh4TjOzMyU1PVVqNlfI5mdWK+FELxJuMmr+OJl47iwZfXSxZI7L1cFQzbVN0tbUKi2uUc9xBa6hn+waWBBZHG14TpPaE+Wk4qNlQk6RvPzyy/KHP/xBG1PsRw7hQe9973tVzxPmBUfC6w9fQV45Bj4DgnYCIgohJZQR+aa7nnzgQIRXQlAhpzTasBOQXggtPAkibPn0FkPGc4pxhVRC/EwB4Jnk5RqC3yPBiyAPPulep+De/e53y3ve8x5Np512mp5vrQO8QnicMMLRroHC+c9//iObN2/W33TXQ2S//OUva5wqxvxLX/qSGnTrxsFrihsdtzfo7H49PHoD5IyEQoF8ItuXXHKJyjKy311YfSFNmzZNzj//fK0vKB/knAaWDZgCHHOsu97YMWOVRJrhdQdofFTFmhIpX7VbWojti4+T7IkFMun8WTL1HfNk3GlTZNJ5s2TmZUdrzCkDAFC05St3SdUG1xoPD0rxtcWjN9gbtn8tjpDuenNL2BPqbEpakhLTqW+fJxPfNlMmnD1Dv48/fYrG74GmmgbZ9cYW7Ubd6+oVMkh2xASmZaTL284/V6677jr56Ec/Ktdee6187nOfkw996ENqoy6//HL5yEc+0mFDsC3ofhp9EFWv/z0iAVejUVSxrlR1JroP/ckgvZnvP1p1ZtGpU0Iy63RmTnGeelrRq1Xry9TLGp+4/1RUfOcPzvLa66+pkw4bgQODsTDwFOQUkor8IrvW0wapfOKJJ/bjLEYoOR8b84UvfEE++9nPysc//nH5n//5H60L2B04ENshvTgWORfHB73MoMNG9BJDhpwatKBdinQxdwU8rriZ8fzQooWgkgcJRUGLgpdGNzz54+am4K3r0mDXJb6U7npaDABj/c53vlNfqt0fHld70Rh7WiScQ9A84DgPj4MFk8Pu1BcjtQClY12TNOKQYzxAlg8t4YceekhjqvFkomRQQDNmzNDpoRThvPhkEFTFql3S7Aw9LfrElEQN4B915DhJynT50spPTpRRR42TscdPUC8BDKC+bI96EIizYmS1h0dvgFzvdXJbX1qrDR7kmN+ZY3Kk6ORJkj0+V+WNlDEmW4pOmiyZY/fFYpev3KnxfZAGE2tXu5zcx0lObo6ccvIp8rOf/UxJKQ4UGnSci0EeNWqUJn4DvZfwdw+PSKDn8NxXb6qQupI9ui05K0VGH1fs9ON4SXBEFTlMynDbjh6vIVHoS2SK3oCKtaXS2tyqhBUZJTFTCvs3btokSxYvUc6CHOLA+MxnPqP63RwX8KRzzjlHuRKAG0EmGe+DriefoCwTPkYcNaT2m9/8puaF/cBOsJ+eYuQfryrgXLb3B4YkOe3uw9lxGE+6Ur7zne/IL37xC23hUvjsJ/GyGLVmMRMoFdzOGFsQvKa9GLygtCr4zYvFczp58mT9bcfzSTAxrnIUFnkTKIwbHPS15eDh0R2Y7HYFqw/ETV9zzTXy05/+VH7+85+rx5TGHPKKDBP6QtySyTrhA5BTYlzDGaET3T/36f61NbRIzfYqaQvPyUeMH8SA7qf2JpY3dce26wlSMGtMKKjffcdrgIJurHTKFGUbqnoeHj0C3abIV6Nr5DCoROFkianL0kZkoohD8hfenpydpjGo+tPJK+c1ODlsb24LybYi9Ml+jD+xpabzDYSHoetxSLAPO1FYWKj1BGPd3XrpcXgA2aHXqLGqXhoqarXbHjAoNG/aSJUX60VCbyZnpXboUeS2talFB0dBUuMT3EFh+SJfUllpmezYsVO/w0cgjoy9MR7CdvQ7ZNIaWfwmdBIZNnIahOWNbENU7bclxuWQ8JhyHWwLPCmyrvQGQ449WYXuScXmWKbzgOHjDSUOD4+ovmxX+HTNM6iJmAh+88LwGPGC7HxgBQ6C0yVAZum655MXEExMo8DLZh/Ae2oeJ/Lt6wvy8OgMyJjJb3eBUqJhRgOOekB9QH6RVWKRmDKH1rTl/ba3vU2Px7saBFeFGLQ6o07sHpPsA8hnilOsoRZ/uH5xsCOgmUU5kpC0b0UdYqqaa5v1t68rHr2CkytEp6W+RWPzbIAdo/DpAtVfoU1OzhwZSEvSGFMDcttQUe8aV0yrhh0I73CwOmAwOcWOMJCEqdzokcMWUIcIj4Gg8tuO9/BQOLnCG0+8c0tNKOYZWcVbml6QodPtIachGWtX0pqany6JaSGvJHJKQ76tHs+pO9blh6xCHOPjExxBrJM9tSFvLN5NyCmzHCGL5GmcBQIJbyFsEp5Cgu8g0ya3Bs4zGUbu2c9xXNOcfq+99ppyK+wDnlV65ADH9QVDjpz2FhScFTSFYoYO7yddlOY1paAhsBhbXiCwwgecRyLeDpc3wJhzbPA4Ay8kuI9zCB3gPjw8hiqsrkTWF6YFYb5gU0DINgaXxp8dsx+c2O9tbZMWRzDpSrVtShCoEoFT+JmYnOi+8C0EFK55Czw8eg0nZ+2OXOK9N12MsQ993V9ukU2VQ0Mbq/G0hr2rnQsi9YX8abwxxSAjmdlGXWGOU+YPxugbIfDw2A9O9hjgpCvlAUTEyQlT8QWBqmWbrrKHLmWbk0/O3evkLYj4uJCswT0giQZ4SzQ5ZDu8hU90Oroeosn3zmSWfWYXkPm//OUvcscdd2hPG9sYCMV4HGaxsDrRFwwbckrBURgkXogxfAJ9mTyWgqfA8IASc0FBck7ky7BtKBheHiAfUjTjTNcOI9Rsn734vr4YD4+DCasrQTnFa/rmm2/q6lFsR67pzqdHgtZ2LMS5Y5PSXQPN1TmFqwpaGyKqCz9b6coK1COmoFKPQcSxHh49AWocOSKZLu7oyo+AGvlwl6rCiR/eK12jPwbIExuAXXn11Vflhz/8oS6CgVFH3zMN2w033KAhMBzj4REVTo7oWUpIDutdE9Eosoqc6ipmYXlWL6s7j9AA90u3AVab4hgcCSnh2E/ANktBoNchsvAhAN/B689n5LFBIP8cw5gEJnm68cYbdXwN+eHsu+qqq3QkP8f0Rx0YlrXIXgjGlrm3mHfLCp1ppRjcRAwRoCANfLffKBnrxqc1QlwGL9NIqhFWrkGCpALiMghENqMfzN/DY6jB6gVyiteU+eyYXgS5p6HFbBTEW6uyQZQD4qxnuv/opk/JS5e4xNBOYqnoXsU7wFx94SNVATMBenurKcw4XaaPUdUc46uKR6+ALDnhIYxEV9EJyzSxeQzG09josAiyq7WpVerLQwNdQbzT1cT3xTHYzx0QlEPOJj8SdYSQFwZHMacpvXJ0mzITzPe+9z2dMSNoQzw89gNi6HQg+o6uesgmcsWAUmaLaIcsOvlUiXX7mJKPxSOYl1dPT4hTOdXln1ku2uWHpHEeYQDJrpGU6uQRwFXoLbZQRpNhEvGhjI2hYYWOh6tYKArHRkLvMZwHIYvIOotSEG8NMWVw+ac+9Sn1msKrOK4/6sCwJKeAAsJrykSzdLNTWNZFyYi1WIVn2xnoxNyOgFYG85ky3yngxbONY1kVgXgNmzsVUhucEN3DY6gDOSa+etmyZdqYo+4AYlGZz7FjxRtVhWG4r/ziWJRt1rg8R1LpsnekwBHTup3VocB9Z/C12x7PgNtXtb60o0sLBcwk/amO2LY7EhHK0cOjZ1Bj6CxZSk6aZIwKx5I6UWJwFGvqh8JNnGEOe6da6pukehOrlLnDnFwnZaVI+uhs9WiZ7HfA/WQTx0FM8Y4+++yz6pBg0BNzAjO4kDg7jDy2gXRAPh6HPZAh4kzRd6nEmGpjKBQrzVLPJjHoS/bRwCeWn7h8QOOLeXuTs5kBxcm0CqbuUsA9bIVK+AncBAIJD0EmrYcXYmrTncFZcKgxVWCwF83A8STywHnBAFoWJrLzIaZMMcX0gzjluEZ/yf+wI6fG8IkZZXoElmjkBbCNEfp0v1CIsaAeIge6MiGxdNlwLsvTMR8YSoljeJG8ZALiEQBeCJ5WRmoyWg30xwvy8BgIIMPM0csnoEV99tlnqyzTqFMcwB2dfLt/8a4lnz99pE68T91gVR7mPCVBCJIz8ErF67KlO17ZqPsBZCJ7XK5T1mkh4uC5qUdv4PQsISVprqGT5+QQmaThw8hm5j1tLK9zhj1ZjXtTdYPsXrRNly91Vlx1dN7UQtdIytDu0v1UNvk4mWxra1UnBzPBQEzp1mSGFjxFzHt9xhlnqMfI7II25DjRwyMCdNOzZj7Tm6H3AKtD7Xpzq857Gp+cIMmZTl+67UyLxrbW+mb1miZlJkvelBGSyJLPHY15J2tO7pC3CY6vMOcunAUeBD/529/+pt5OgE6nV4xpNeFFHIO8MjAckon8Gv8JAscboV6/+c1v5B//+IcuZkTDjPBI5kBlthebTjNWHr3BkCenva3kMHu6KHkxFBovxrymfAed5c0AkNNPP73DC4rRZmDVn//8Z3nmmWd0gv4//vGP8uijjyphRclBTOnaYZQc6K+X5OHRXfS0vnA8ssuKIigtWr5soxWO0iHWtKs86ZZi5RJVnGlJSjSrNpTKpqdXyebn1sjuJdtk+8sbZc39S9RDYKP682eM1CUl6aZSgqFbPTx6BiOUKTmpuroOjR6MNp6nrS+sk41PrZKdr22SnW9slk3PrJYtz65V7z5gPskxx02QlOy0sKnfH3W1deqU+NWvfiVPP/20Oj0AHirGLQBGK2MTnn/+ebULrNRGT4SHxwFwsopXNH/ayND0Ua4RxSAnepRYYW/HSxukdMl22eL05sanVkql06N4UmlY5RTnS/7M0SGvaQDESvM3ZuwYOT482BudTpc+y6rDWWhcPfXUU0pWGYNDrCh6Hf1O7xgEld+WOJ9ECABE9tZbb9VzbVQ/3lZmRaJ3mbBJGm2WXnrpJSXBnN8XDPrypbFAoTAaDPZPYUESWWKLeFHAtkhQGGznpbD0KXERdO1DTiGMrJRAdz3k1F5CJNhGPpxDdyYj0ejOJz6DGA5aEEwhAvFFabEP9zbHslIPK+wYoY2Wv4dHf8EUCIQSg4jysZ4DuhuDvQTRGkpWX2gJM9Ua04LQSkbxUNforuR7ZF3hvF17SuSVLQulsqVGcjKzdC6+NqdEa7aG5uFrrW/RSdFrNpdL5dpS9VbtXrxN5+pDkTIH5eQLZsvIeUUhcurAdnog/PKlHp0BWdy3fGmpZGSkS5LqdEdQnRzW794jtdur1Ig3VTZI7Y5qXYmMtcxLnAzWbK3UY5krcsyxxTL5wjna1RoXFy9t7W26pn5+co4cN+5Iqdu1R67/7vXywoIXVM8biDXFg8oAQmwBDTsShhlnBUudYvitjnkcntD37/5s+dKsnCztiSLWnth8ZJFJ+Rmghzd/z/ZqXdBk5xtbpHJNiXbpM8iPZZ4nnDNTJ+rfa1P2OY7C8qXJ7Yly4oSjZfaY6dp7C3ciRIsGEnHRkEd4C5yIRhTfCXXE24+NYIJ9m8M6aCe4d6bhZAn3v/71rx1cjO3m4MOpgfwj95bgRxBkGnCgt/I/pF17FELwsyvYcRBSWrN0xVMwFDijjmH6NiqtOwUGEYZs4r62guZl0YLmJRPTYcT33HPP1SW9uIaHx2AA+e9uXQEcCxnEwKK4GPRHvWC9ZGKIaBV3WVfY5faT1+hjinUN85wJBap8CeSv2lCuXavlTuFCTJnCh7lOJ75thq4lncwKUj24Zw+P6AjJKCRz6iVzpfCIIl1Hn3CSutI9SkxLl26X2l3V6q3CU8pa+ywTmTHSegfC9sYlJaqu0bd54yZ5/rnntdEXBJ4nvKQMjKJR+OSTT2rCYUF4DATBwyMa6FliDtORRxbpkrrE66MX25rbVE9CTFmqFP2ZlJYs2U6fFjm9yup6yK5KaBSVjB6lZ5ger4svvlh5CV38eDsZS4C8QlRpZDEACgcES5EytSbnGjE1fUyd4Fzm8bVBslYPIL30FCD/JvuW2G6hBH3BkPWcwux5cAoDryQBuwSd4/kEnRlM2DzuZZg+BpaX9OlPf1rjKiCTXRlc9tnLouuGVgUtBTxUAG8SU01hxCGjGHLy5yVbfF5n+Xt49CeQS1Y0Y8ld5BKPDbNSHHXUUTEJJvLNNjylKK033nhDZZzFK1jalF4GGxAY7dyg5zQvN1dJLoo0Z1KBTsDP6FF0HFNF0SWFMmZSdLqzJl8wR70AaQWhGTMMeBi859SjKyCPQc9pekaaJCUn6ZQ67EsflR1eAco11lpD098w2ImQEzyrWUW5MsY1pGa+7ygpmDOmQ775RP7q6xukIDlHjhk7T1oqG2XBf19QGxRM9Eig/0n2nbpD/WNxC+K1Oc7y9Tg8oXrW/QU9pylOVjUWPytFPaI0ophBAk9/YkpSSF9mJEt6YaYUzB4tk86dJRPOnC5pTn8SQmXylBC/v+d02ohJSl5HFo7U8TVwHRuojaffOAscillYrrzySl2S3UhppJzyG3IKn6KXADnHJkST/2Ci5xhyHAwV6A3iXOGFaPIQgRlNyCkeSlZcYhvLK+LJ7KrLnGNZTosC5VwKnpeC57RbnqAA7F4AedHqwMtE9z4gKB5CCoHl5YPgOR4eBxvIG+QUj/7ChQt1G3WHwHgmQ6YhBSJl0uSUcJUVK1Z0hKfQuKKOHX/88arcgvLsTL1+trkG46Lty+SGF26T9XVbZVLxhNDUJhybEK+poaxWKteVaJcqU6LQdc+IaNbcZ0lJSIMOggoAJU5IztZtO+SM4hPkurM/J4UZ+eG9Hh775HZd2Sa56YU/ycKy5TKiMF/S0tOUWLKPYxIdGWXwCV2jeO+bakIxoHhMaUAxgA+vantTG4Kn4FyMeVlphUzNKJbPnXy5jI0fIc8ueE5l0+pBLLAf+WWVHAgqdidYfzwOL6AvCRNBdr7z+C/k8bXPydjxYyQzI10bUgAyyWCnhrI6KX1rh+pNVipLSE3WRlT+1EJJzc9wutLpS2JNw7KEXCUlJsmmrVslozVFrj3tk3LhrLNC8haWVeyCcRZmG0K/szIUxBUuhXxaXpEyattKSko0RICR+gyCYntXgAvhSORaoLfyP+TI6VCEubKthREJ9vMCevsSPDwOBXRJToE7BJUSn5SgBIHRp9oV5XYTV9Xa2KwB/ihQ/gXBNk9OPTqDGc3OyGnHce4TLxReU1uBh3lP8VK1NbaqPAd1Nt8hp+WOnE525PTzp14hRxfNC+/18OgZukNOVV+6P1aCSkhzsur0JoJLw51u/ramlrC+dAjIKvIdjZySH3LMfngJDoZoYD8pFqcZChjSMacwf9g+ie9GErsChY6isvP4zrbeghfIC7c8g8kTU4+hAOQQWbfUk7pi5wbrS6/hqgFkFM8owfyNFfXqDWC+yRYmRQ93s4a0rYfHwUFIxuI0bq+xqkEayp0cusT3NiY1191dCyF1o7ml+QC9H5ms3vG9r/bG4zBCWA4hoAyMaiivU32J3mxx+nNva7gB1Q1ZDYJz4C3Iosmlyanp9+4QU+NSQfnuKnFcf8j/kCansH7i4Eh87y7LtxcTPK87iqgzBPMMpv7I28Ojr0AOkXVL/O4OkF0S5wTrS58RVrrB5P4LJQ+PgUKH/Jn49UwGOT6a3o9MVu/47m2CR48Rls3I1JdGPOebXQjKaU/kM5hHMJ/OEsd1N//OMKTJKQ8YTD1BX86Nhcg8+ytfD4/+QG/lMnheb86PCbLR5P6z7x4eA40OGQzLYQ8QrW50J3l49Bgqp6SwnPaDGEWTTVJPEO38rlJ/YEiTUw8PDw8PDw8Pj8MLnpx6eHh4eHh4eHgMGXhy6uHh4eHh4eHhMWTgyamHh4eHx5DBoTDS3Y/G9zhUcKjK6mFDTnlBkakniHZ+rOThcaggmvxa6jOCWfDdVw2PGIiUu8jfvYbJXWTqBSLvKfK3h0evEU02+yBWkbIZ+buvCObXX3lG4rAhp8xXx3xdlnpSoBwbeX6sdDBflodHfyIo13ya7PLdfvcaeqr7z7LQAZyB3x4eYUTKXDCZTu0tXC77Rj5bCm3tFuxIu5/gPdr2PtcVDw9FpAy53z0RKz18n5ySdHNYNiNlty8gryDvsWv1Jw4Lcmovw15MMHUX0c6NlfprKgUPj4MF5DQIljytrKzUZXqDiibyuC7B4U7+WZWH1O4UF5NLtza2SmJasm5jf4+UrsewRVC+kDvkr6KiQmpra3Uyb2DH9EgW3aEso5uUnqyLQrTUNWmCnCa6bfFuX3dlMHh97rG+vr6jrhh57tU9enggp04fxqckqH5sa26V5upGXUM/ISW8uhl0oodyhRwim8hoaWmp6ndktz/kMyjrwdTfGNbLl1qhsWrBvffeK//+9791eTpw0UUXaSosLNRjmGg2ErxctrNO/8MPP6xr1EYjnraNtWrPOeccefvb3y45OTmaryeqHkMNKCnkuqqqSuvE888/L1u2bFGjy9r6I0aMkKOOOkouvvhimT59uk6srAiLcmdr67NsKStDlSzdLrve3CJ7tldJe1OrbmdN/THHTpAxx02QpIxkCa14uk/9xLk/v3zp4QPTzzt27JC77rpLFi5cqIYUfc1E3tnZ2TJz5ky55JJL5JRTTtFzWPYx3unUmMuX8udUeVxiglRvrpDtL66XirUlavCRteSsVMmdNEKKTp4sBTNGSasjAyqCTrbR1ZHLlx41dq7eI/f12GOPyYsvvijbtm1TY8895ufnyxFHHKF15ZhjjtF79PAATrpjL1/a7oQOmXMNJ/Tl7kVbZeerm6S+tE7aWyCmiZI5NkdGH1ssI+eNleTsVF3+2fgEMmnLl6a3psiXTv2kXDT7bGloaJBVq1bJo48+KkuWLJHy8nKtT+np6TJmzBg5/fTTlaNMnDhR8+kpzHbceOONyofq6up0Lf0LL7xQLr30Uv3eX7xn2JJTeyxe1quvviqf+MQn9EVRuCeccIJ86UtfkrPPPltSUlK0IKMVJi13XgRK6YYbbpDXXnstvCc6MjIy5KMf/ah89atflVGjRnW8SA+PoQJTHCiun//852ps8VShwJBX9kFGUTKjR4+Wz3/+8/Lud79b8vLy9HyUaVRyyrmJ8VK+cpdsfHyFlCxxBrzGtdadQnUXxfKrtwpSOmL2GJn2ziMkb9pIR1r3ebA8OT18gBzW1NSo0+C2226TzZs3q6GzpQ+RQ3RnamqqjBs3To3f17/+dSWskMJY5DTeMVO89ev/vVy2PLtGanfW6BKmrKmPoMW5PDH8GSOzZPwZU2XKRXMlMT1JZZBrdpDT9PGOnF4p03ImyqP/elRuvflW2bBhg94zdcXukXuhrhQXF8s73vEO+cY3viHJycm6z+PwRixymuHIKfLT3tYuFWtKZP1jy6X0re26XCnLmIaFUeJdAyslK0VGzh8nE8+bJSPmjBFBjp1ocb6S0y1bJL0tVb502idlSnyRNvLuu+8+2blzpzagrPcBecTxkJWVJccee6xcfvnl2ugzx0NX8qr363Q86cEHH5Tvfve72khj+3nnnSfXXHONEl/qbH/JfsL/cwh/H3bgxaxdu1a+//3va6scwzd27Fi5+uqrlZii6CjIWIVpxhrPKd4lFKi9ILajDPnOC+I7ivToo4+Wk046SYkq6K8X5eHRFyCjJLDVtbZRLk899ZTs2rVL6wne0kmTJmmdoEuVhlxZWZnKPsR0/Pjx2jMAULq79pTIK1sWSmVzjeRm56jBr1xfKqvvXSQ7X9+sa+m3NeGVCina9mZXVxxRpXu/vrRWGsprJWNUlqSNyOqoIyhx6lFNzR6ZmDNOTp10vGQkp+k+j+EBk0NkDJ2KHK5cuVK7H9kOEUUOkTU8+TScSJs2bdJjjj/+eNWzFfVV8uoWJ2v1pZKekaaGmvMx+BufWCHrHn5LqrdUSktdc9jgh0QRGUQum/Y0yJ5tVc6YxknOpAJJSAoZaeSvvr5BRqTmy+y8qfLaUy/JD370A1m+bLn2NGBDzABTbyAA3Cf1BftA/ZkxY4YSAa/7PZBJ9Nqz616WdRWbJCsnS1KSnay6fTTk1zy4VHa/sVmaqhukzenIvU5+CUfZ62SWLn7kt65kjzTvaVJ9mTk6u0OeE+ITpNLJZHpCmuTuSZXnHnhG7rjzDtm4caM29KwHgnug0UWi3tFTwf6ioiKZMGFC6B47kVX2k5B36ur3vvc9/UTuZ8+eLR/72MfkrLPO0kYa6C+5H5bklIIEGGFa5Q888IAqEVzbn/70p9X9DEmlEGMVZPCF4WVasGCB7N69W5UPL+IDH/iAktDTTjtNWwynnnqqfp588skyefJk9ciC/npRHh59hSmYf/zjH/K3v/1NySeGHnm+8sor5X3ve5/KM14gSCsGF2KA3KOEIA4YXbpWjZxWOHKal5ejCnP9o8tkxysbpKmyAaYpWUW5UnTSZBl7wkQlAK1O0dKFBUGAvCZnpGjXVUp2KjfHKZ6cDnOYocOz89e//lUbSPxGX+KhRw75RI/SZY7sIYMYUzw1551/nuQX5EtVY40jp4tllyOneE2TMPjte6V6Y4Usv/PVUDhJS7t66kcdOU678QvnjNFu/YaKejX8rQ3O8O/eI/lTR0pqfrrEJ8a7+uFkE3KakitHjJwl5Zt2ywsvvqDd+nSL4sGlCx/nxty5c7U+cI8QAe4RAn3uueeqh6oz++JxeEB5RJCcZjtympaiDfStz6+VrQvWKQGNS4hTfTnhnBky+phiyRyTHY6TbtbGFOSUXquCGSMlPtkRTifrEM/qmhpJlkSZnDxOqjeVyeKlS1TH00C67LLL1KuJTp8yZYo2rpBPuBAkldDDE088UWUYdCarOOEgtT/72c/k6aef1jwKCgrk4x//uLzzne/UnmLQn/I+7MipKT8M77/+9S/5/e9/r8qNbSiVq666SskjL7Yr5cE+ziO2AnKKgsLDhBGntTB//nyNM8JbSozekUceqa1+vKb96d728OgLrE6A6upq+fWvf60eUVrSkE66eGiwzZkzR5UYrWlk94UXXtBzkHs8p8Sf5ubkanzprj2lIXLaVCMjRhZI5foyWfvwUu1GpQs1a1yuTHzbDJly4VwpnDtG8qeNlJS8dKlaVyptja3qSYUgZLvjssaFQwZc8uR0eMPkEMcBDSS8jQCZ+/KXvywXXHCByhk6Ojc3VxtJy5Yt02MI0Tr9jNNl0sRJsqelTl7bskh2NZSo0wFy2lLfLNteWC9bnNHnOnSLjj1uokx5+zzXSJokBTNHaWMIY1+zxdkEZ+AZrJfq5DJ3yghJdqQBctroyGleUracMOEomTZ2shSNL1LPLPf2/ve/X4kpXaPoe5wVxGtzn1wTow0hwFhjY4C3A4cvkIkgOc3MzlRyWrJkeyjsxDWiIKbpI7NkxnvnO505U0bMHO305Sglow1lddrdT7zp3ta9kjuxQLLH56uXFfmqcuQ0qT1RTp9yvJww81htuOF4Q59DTiGf8BPiouFBNrYAOaVH7Pzzz9f6A6LJKfdPwlFhITiEtnBtrvHhD39YbQbnWuovDKuASCtICp/4UOIvUH4UJIH1n/zkJ/XT4ky7AsfQjWOtDUArgxY0AoBbHG+SfbIdZWVKycNjqMDknRazdeVTVyCd1AkaXYB4ObZhgAHn4RVavHixbN++3W0JkQuDZus2la3YKXW7a9QrShd/wezRUnTyFMmdXKDGH1Iw4ezpMvKIIt3vaqrs2VbpWvvlqnxRxPvn7DEcEU3vIofIHd5GPPkcg57lN4aT/Qa6MiNBlhzTUF4nJW9tC3V7un9p+Rky/vSpKnPpo1xejgAUzhkrxWdMk/QRmSFRdknjoyvqNQ+7O3ZxD9NnTJcPffBDSpzx6jJeASKNrodE45yYNm2anksye0Ejy8MjEoSR4A0lBKpma6XKTGJakmvAj5UJZ82QzDE5Tl+maU/TuNOmugbV6JC+dDJdX1Yr5atLlKTuB5dHTm6OnHTyScpxvvCFL6gDDfmEmyCr8+bN0wQh5Zrm6ccOdAXk+eWXX5bbb79dSSrnI/f0HuOhJW41Wr3uK4bdaB3cz8RD0JVPgeLBRMnhHaKrCG8RnqCSkhItdI6PBlM2kFJaCnzyAniZxD/997//VW8qJHjFihX60szge3gMJQQVBw2n4CBAPKm0qK3xhfzioSJuCdi5dKki4wyGUhHX/9w+96+1oUWqNpSpRxRvFFP15LgWPjFSxJjSysdTShfrmGOLJTE1NACFfbU7qrWLn4Eqnp0OfyBfyBRdinSLm2GjwURP13PPPacNIQax0uX/+uuv63nILYZwhmtIGYF1/+k+oWHj5K7BGe/qjeUqk1wH733ulEJJSE6QNiejeEy1+7Q4T7cr3LF4++lm1cF7lqeDfc1Iz9DZAhjhDGElbxL6HhtC/QHcE84JGnodM1x4eBiczODNpyFUu6tGPf0gOTNFChmRn5XSoS8ZxJcxOltJKqEoyDd6lsZ8855GzSeEkNLkf+oITjK8+nS5I6PwGxKNJrr1Tc/T6ENOLfwwEibjnEfPBb0c1EtkfOTIkdpQo+eA/XApeqpxfMTiU73BsCGnFCQgLuKRRx5RRYeRJUiXeFDIKccQL3HPPfeoVxXFh5fVXmI00MLghfLJi0ER3X333fKtb31Lrr/+evnhD3+o0yowgg2Syguye/HwGGqgqxQjj6eKhhvd+0888YS88sorOngQGWagCuEwQTlGsdFI05Y2xt9tI1En6J5vwLiHA/WT0pLUa8W8fShVAvwhEJyQNT5fp5XiPPY1VjeoslXPqa83wx68dzNw73rXuzSUBDlEvvDM/OhHP9LEINabb75Zli5dqkQPo/u5z31OJk6YoARR87E8wwLZ7Ix9U1WDbgFMXYZXyh2sCRnjMzElUbKKcvQYzqPhBDlta3HkFYsYEEPOYcQ1skmy++eeMco4QBYtWqTbuK/jjjuug8TasR4eALFCnpprHZ9wOo/BT05AhPlMs8bmhuXT/WNAlNONzNGbVpChjXrQjp51DbCW+lBPkyIsqyZnTko79CgyCiCt6HUafDjm2I9HFVll4KHJdRBsgxPR8/zQQw/plIMcA59iqkxir9lPA5IxDPfff7+88cYb6vyzc/uKYUVOIZpM+4TXlCB1WgUYYpvaCS8RMROQSsglhY5SpAuG86OBljEvFNLJy4GoMo8YSumll15SIowh/9rXvqZElal5aE3Eys/DYzCB14nYOaaJQmkxmfgdd9yhU6sxVQ/dl9QXZBt5R45JNM6amptCU6M4PYYSNHXGwJPmmoaQsnXAO5WQkiAJtO6D1cCdiJegQ7G6D7xZeAo6MvMY1jAjSOOI7nAGP2FEkUUa/vREYQjxoBKXCjHFy0N3OlM1paSk6vn7gSydjKostTA3degaSakQRHY7IQzLF9+ZviwpfZ/HaK/T/y0NzqjqdFN6dAcgvtyzJUB9wJbgAMFRwX1z/3SfMqaBnjoPjwOg4uUaOw0MxmvRTTonr5NXpjOL05ZRCMhYgmvEJ6YmdnhJmRsVbyv61mRxP6is75NTI4gMPoT3ULfgSIyJIQ6V0C3kNpKr8Js84EZPPvmk/POf/9QQABpchAbQSGR+eByBf/rTn5RL0ZiET5E/143MszcYFuTUXgLEkDm+aCWg8Bic9NnPflanH8HjA1mFXFKA5jFF+XVWkLwkWhfBOFNi8kh0TZEnL5gXCSn+wx/+oN4o0B+tBw+P/gByjJySGF3JvL82+p4eBrpuMLbPPvusxpYi23i3rPVNPYFQJCZE666EwIZ0ryH0O0q9csQVJdoBqohTuh6HB9C1JLoB6cFi/mj0JAmvDIMrGFyKUwEZZDuOAQjrT3/6U0cKqzr0daTUqFgFZCuWXueQuGDoKoeF76sz2H4adHh5b7rpJq031A0ae5/61KfU4FuvRFQC4XHYI6qURaMKKqiQzdBPhcqqfYkO5NQSDTyII3WNRhT6nhCVj3zkI9prAaLJKfWO0EX4FN5TzsNefOc739G6iR1hG4497Ad8iu/wIc7tD9k/5MkpBYEiIEaOqUksRgkFYcG/uJzpdidZQC+FRzcm2/C2EqcaBPtJkFKUzl/+8hf1MJG4Di0Gup0w8jYyk3zJB68TL8oMu4fHUAEyiZxee+21auxZNIIR+0zbQ2uYOEBGYP7f//2fkgQML6A+EXuHQkKROtPboR7ppk/JTQ8tCemAB4pVobSbfz/Fuleaq/Cw2pkhj4HFoPZdnXkMZSB3gK4/pue75ZZbtFEPpk6dqoaP2DY8NXx++9vfVhlExxNSwiwTC15YILV14di2cH40gvY64WHgCPGlus9BJ993x6iP30TOoQ1Pf3VT+JeTu8QE9eirh8odH00OzeDiMWXxil/84hfag8Y2HBYsVkGvgz2jh0dUODlKQuelJUMyRBfWa2sPee4DsuN2SVtTm3pKtWfJQRcxcXKakIxDTTcdAGZSQVZxxiGfhDPeeeedWs/YduaZZ8pXvvIVne7MrocMG6zuMC88XAeHH8AOwIWou3hISYSD0UPN+eQNn4IEw6f43te6cEizJx6egqFA8foQ+4NnlIJkG0QRhYfSoNuSyWPXr1/f0Y0PiWQbiZa55Wn5AmvN061EwgtLYooGYi84l/gLa+UTh8SLwQ0O+vqCPDz6G8g2dYTufVrVNLSIG0KJ4fkn5o84bRQUyojjiaODwNJtFM5F/0e8ieFjxR3miQQo1Ibyep3XlC6r0Ohpd6D7V8nAqebwKkDuWEhtcg4B/+6YcJ3zGJ5AP5LwmiJbeOhp1LPtgx/8oLz3ve/VxhFGcNasWToVzhVXXNEx1Q0GED1dVVnlzgnpaYWKTpzG5qU6eTIiShxpa31LSPY4PnxOCwNLNpeHDnLA2GeMzA6NiibPgBjym/ujUYeB/8lPfqLjFbh37ocpr5g7m/keOYZjO+7LwyMA1Btym5SZqsuRaviJk5VW15BnSil0oMobE/HHxeuc0PWlezRGFTC/KTNOJGYmK6FVBGSV8zgfuaTxR6ghXflwIrYzbRROCQaGg0g55Tf1iLBEiCd1VOtV2ENKjzA90ZBb+BQNtHXr1ul5eE7xtNLFD+di3ILV997ikHftUXgUAPN3oTyIjePl8Elrm3gLEvERxI5awC6guwjmT0JhBsExJF4U3laOJV4vmOjuZ8Rb5PRR3BPJw2OoAvm0cBXmwKOrh8R3ZBnvlfUyADxYhLKoMkSp6j+3zylbRufnTR0hCamJSkZRqlUbSlWxEtSf6Iw/Qf94AHa9uVU9Wlyf47PGZOvgqfbwsnwewx/oYHQzOtp6l5BDBusBtgMa/PRKBUcUl+wuCe8PGFYno+STVpils0QA5Kt2Z7XOIoHRRkZpRNEkYmWoqk2hEfbIXOZYJ4MFGeqZCov7fmBJVGwHxJR6gT2hccd0OsTf4Z1idDT1huR1v0dUOLlAFpE1VnoKxZnG6VR6JUu36xRTyU5OiTVNdgTUZp9orgkNgMLjmjMhT5c0DZHTsLAib+4rdaCpsUnHwyCrkEVIJb1ezEkKqUTHE3Nqchopq3o/rn4h4zYDkfEpeg3gUeyjcQZngh8B7AQOOWbdgE8RQmC2o7c45CfhpzApBFvnlbhQPJ20aPm073QboexMKQJWwiEwmNY63lAMsIG8yJvWAh4lAvQ5j/gKWiJGbInRI2wAcowgEJdxzjnnaOvEFG+kAHh4DBZMrmnIvfXWW9ri1VhSZ2yRaWLoiJ3+85//rMdwPPWHqUOoH7Si918hqlry83IlzrXqy5bvlEa67VvadfUdFCikgDzqS/bI5v+ska0L1qpHlW3500fJuNOn6cTSboPeH3XIT8I/fIHsoT/XrFmjOhXgXMArb+ElyCNgyj4GnNK1iLxwHDGddE22JLTJa6wQ1cAKUaFJ+OOTaBg1q6FH4zJAioYQnlG8+swKUb58l2x6cqVUrS9Vg06afMEcGTm/SBtStkJUXnKOHD9+voxIz5f169fJT378Ew0Bw/hyH8wNjKcXXY9nl4GzJAy4EQLT/x6HL1Tfur+OSfizsiQtM1VanFwyjV7drhptmLc4uUVfMm0UU5oxB+rmZ9bI7oVbQ7OZuIZTdnG+k9XZ6j1l4F9CQqJOwp/YFi8nTjhaCpPz5MmnntRYaIgp+pz6xgqALBpErCiyabIKmUSWcbQZOJ5tkE++w5GMQxmPsk9ILvaDxib2w6axoh5DgvmkDpBPbxDnCq9v9HYIgEdAkcHoKSjbZoVi3zHGTPvEsWx7z3veoy+NVi8B7QygsuMBrYJbb71VR+OjdBhdSksebynKB6JL6AADsHjZtEZQVrjTEQjy8QrKYygBxYNMMsqYuCEUDEqF8BXIKLKMTBOaAmjQXXPNNdptaStHte1tl0Xbl8kNL9wm62u3yKTiCRrzt+LuN2X9Y8vUY4oXiql8WHknfUSWKtiK1bt1fj+6V4nxm/bOI2Ty+bNU2eqUU+56TU3NsnXbDjmj+AS57uzPSWFGvt6Hx6EP06sYRRr13/jGN2T16tW6DafCRRddpJ57PPoQWJvmDFlEZhkF/7vf/04uOP8C2dVYJr/+759lUfkKGVGYr0uYquF1Rv2Nm56TijUlGk5CVz/eVJaGpBuVZU2rNpYpicU85E4qkKOvOUNXMCN2urmxWcrLKmRKRrF89qTLpaAlS37y85/Kff+8V/W96XSMM4017AHXBWzHgcEz4KnCrngcvtjr/nR2E/f3ncd/IY+vfU7Gjhujq0TVl++RDY+vkLUPLdV19dGX6YVZuopZSm6aa8zX6kT9LCwBWUVHTjpvlsy67GiJJ+bUEVkcBRu3bJbMvRnyqfkfkIStLfK73/1OV/Yzjyb6mmXVCZPheOSXbXxSn5hOilkwbDtAno1P4TUFVnftXD5pNOK4o6FJnSVMjPE5kF1ILXbF8uwNhgU5BTwGhjcarDBRiF/84hdVIbKNLhliJCCb7DciacfTlUNMHsH5GG5AC4GWMkQUAcCTyvFsp6VAjBTxU4x0Bn15OQcb3DcpFrj3oXz/0RDrmezdHs6gXKgjGNmrr75aHn/8cf2NkkJxQQgYiUwDj98QBuKqiamjYWYerf3J6VaZOH68xkNVbSyXNQ8slh2vbpLGynolnHis6NJHwRJr6gRKkh1hYL39qW+fJ3lTR+rUUwAlTp0aLHIaS38YDsX6YLB6YXXDnqO/nsny7qqecQzlTE8XA0uZ4oauQrbZoDy68ZFBug1JyCL69JJLLpFvfftbMnbMWNlQsUVugpyWLQ+RU9e40vlIncxtW7BOVt+/WL1PyBzPh/eU1g/eVL3PpETJGpst095xhBSfMb2ji1WvW1oh0zInyKeP+7DUra2USz/wHqmuqtZn41yOwwZQH0xmrBwx5gw2YUAhzg473uPwg6sRB5LT8Y6cZqSr3FSsLdXGPPqyqaaBE7SBRPgJU01p7KlrULHC3tjjQ8vw5k8tlLbWUGOIJXU3OBJZkJwn7xl/nqx4bKHc8rtb1JsZlFXqFYST34BtfKeu4aD73//93wPklN9d6UN6jAkfYHJ+bAgzADDIFnJKXn21ucPGYlvB8xmZKGQ+eUHEh9KiJaH0UEZ2TCQoXFoWDHii+5+YO2YAABhRCCpKE8ONx5SR+7RCDgViagiWU2fpUEGse7fPIILbgsdHO3a4AJk0Lz+9BRhZlBkxQsg0igyv0BlnnCGf+cxntDHHMnhGTDHw+8H9ZnUn4kmzi/Nk8vmzZcI5MyR/xiiNrYKYEujP3JKp+emSN6lAl4+ccvFcyZ3sGoUMohpCxR0pB5YOdfTkmbp7rO1DbpgtBa873zuDGS0aPswKwXKLJ510khI5ZJJuc/KCsAIG4jEQ9corr9RlGUeNDM2MQj77iWL4B42holOmONI5T0YfPV6Xg2SEM3HSHILHnm2j5o9zjaMjZPxp05SYHoiQAW9ublLZx5BjM3Bk8AkZ5j6wISScEySI9aGg9z0GD1qdnDzitZ984RwpPnOa5E0u1MF8xJtCShNYyGREhoY+TTh7hnpNWQpaCWuEfFGf2lyjCA5DT1ikrHI8shmUVfuMJatW562OB5PxKQAp5RrwIvIzZ53t7wuGjee0M/CIvASUJ3FDjKingImLwBVN16UdY7DfHIeyZIoq3NcECdOat1g9XNe4sIlZZd4wyO+hAJ6L7jWeJ1oLB0FD8CAv7I8lxEMFvC+eCc+fkS8Dz8B74X1FE3eejYYLBpFnpVIHB2EMF9izE4vEaiGM6LRlSfGaYnB5dogDjTLqB+VodcGpHD2fJUw7PKd1W7VbnylMALFRjRX1Ur5yp5Sv3h1aeaepVT0CrGfOwCnWOscbAIKvA/owGJ5Tno/3T+9IpOwYkAe6rpAlMNTrg8HeOd5yEnqLZ6UuUL8xKhgqe55o9cMQfGaOM7mgzqFX6QqkMYOxsn2xYNfhfduSpczJSF50jaN/GCCFfmXibxr/GF7unTq6vnyz3PTCn2SheU7D3fpcUZfCdV8q15ZIyVs71IPKoBPElyUis8bnyYjZY6TANaCA3Qv3i7OivLRCpmROkKtP+Ihk7kmWW//wOz03iMhn4zcJzynd+iwuQDl4HL5AX8b0nGr9CIkVvUylbzl9uXKXfieelAUk0kdmukb+SCeno7Vhr3IalkO+4znduHmz5CZky8dmvlu79V98KRSfHUSsekj9j9at3xXsWEbzM0k/dhPbwQBBejfQkT3JLxYOC3JqgLygPHhkEkaos9ZDEFZMqrycMaeFgILH+0Qehr6+kIMNew7un6UBGX2K4bUyMUDY8ZgRqsAzmsc4GoLn9aQsDZ2d0528OYZ3C+liqhmIlwV5s481gE877TSdj5DfyADHYsx4dioWMcXMZYtM0GDBS27EfDjCyhU5gLRAEigzCAFybWXNcR3fw5qxM3LK8cwXSQxVa1OLNFc3Smtzq64WhYJlOUm8rB1ToQQwGOQUuQEQUxQtsoM8WPno84QbLMRtUR/4DlEKlo3BzgOdyXUQ3T0neBzoKn+O5/0SnmSNEQggDRHeM8+C15LnwlCRH8SQ/TwzZYO+g7zyvGyza3IMjVt+Q+iZjowYUQZj0Ljh3K7qjpWfPRf5IItGTmlQBh0Hdhzf15Vtik5OuT93GLLK/Ll08zezRG7dvnXMiekDNJpUpMPFyLlGTidnFMvnT71C5o+dozLJiP3ugHvsiV3xGL7oipzaUTTo4528MIi0qSpEThNTkrQBT7jU3ta28JzR++QJOYOcbnL1OaMtVa499RNy3rTTpbWtVa/XXZis9gbUceqq1U/yIvWX3B9W5LS3oIhM8VH4QfCCSOwLKu+hCnvdeCggpsQeIpyR3VE8EyQFw0X3GwPH8BwFQV4kjgWcb+UQDXa8JRCr3OwYyxtwXLS87R0wewITd7OqBcdhVDA2zJfIvGy0EvEcbdiwQedhg5DShU2L780331TDyjnEjDEqmLk+jahE3t+hDCtXPiOVCdtiybp7I/rZGTkF5MGhxEvRbU9ebNvrFCyk1DxbkRgMcsqzcm+sgsL8fH//+9+VpAfJhT6PA9uRFSZcR0YoH5Ndfb5AArbP8omEHRsp45HnBPMlAfbbsdHAccg+gyOYjxD5VpIVPseem5G3DExi5DkkFO8nvUTIPQSUWUhonDJCnk9APnhNOI4ygIwynyIeFGItmRaKZ+Ja3QGNxVjPY3Jq+/jOZ6fkNAydO9fJFF39JnPInxp69jj5DIJzI8npUUVzQ9fvJjn18DC42toNcurgvu51+hMZpWGPCOs8vo6U6mHud2S9QCY7yGlrinzxtE/IRbPO1n1cbzjgkJ9KqqfgpRoiX3gscBzKkcT5JDMo7AsaqUMFGBhGZT/zzDO6oADrqeOSZ6JeYmwxwoDuNowQBsQm7wU8f7BcLNk++26wco92DtvYb+VnZRvtODNAdqyB3xAK4n3pVnvf+96nZIIYNqbCwEOEF4bnZZCbTaPx9NNP63EQVcqDcsEzhpeV8yDolv9wAc9iZQpMpu0dmDzHAsfZVFKVLTWSl5OrithAHlZekIEQKXV58wchiFGU7Of9DuRUUjwLwGNHg4VVVT70oQ9p/PjFF1+sdYE6QSMNmWHhDuoDXsfI2T2C5UqycrByDYJtpODxdk4wPzuO710dGwm8wcwcsmDBAu0Wp8udRJynTsfU0qIjbpk+jP30juBdhWDee++92tgjj//85z/a9W5d6yzUwCAK9tGL9NRTT2mZEN5Eow6Pp91zd2DPwznUSXum4HMH8+J7RX2VvLplkeysL5X0jDQl1pHX5Dt/eE9VDkkcQ6MpcJyBbcifTSV1QvF8GZM9skPX9QQ9Pd5jeELlzf3ZVFJZOVnOpjhZDe9XOFFReXEbiSklmSxbioaE+ASdSiq5PVFOmnCMTBsRGoDXU/RWVqNdq7d5RcNhR067euFdwc41hdnbfAYbeEWIwYWc4SFk5QhIHXO+EjvLfGVMhwVRwyDjQYHEmveE56fLEE8LXhQMnK3dGxl3G6xoGDwMGUYQbxV5cA0zTnYcRIDVvPD4EH6AEQR0P0Ke7Fhg53BtvDbEqEEmuBbXgWhy75zDSmIQEFZBItaGxGA35i1ktQtCGZgOAy8r3fqW93CFPV8wdQXKsTNyGsR++XaRtTtq0MgpRIvZPKgTvH+TC+oCdQL5oXGGRxGyRhc0pJWGjekCYtk5n5XqmP4IUmMDEkxe7ZOEjHMcXe7IJN3vFmZiMg7In54O6gJ1jXPw8FHPrEuO/CJBXnbvV155pQ4sIoaTBhweU6YGYz5D7nn+/Pkq+3g/IaJ4hllZj9G8hLigA2ioEQ5w3XXX6UoxDJijnKhznEf94zzqqD1nT8DxPKuVp6VIsK075FThfgbzOmB/AOyLRk5B5D11lTw8gMqk++uUnBoiZLUrBMkp85xCToPndzf1Fv2ZVzT4vgoPFSozipbwkEDqMMgYNTyQkEoqG4byj3/8o4YEXHXVVWrE8LxisEhMD4Px5FjzgjKojDlmmS+TblE8OhBiiMAHPvABjffD4HM8K1zQZmIfedPtyDmsxIJhxJgGY4cNPAdGimSkQZVDuOIwihGPEYQD7ymjf3/1q18pwQZmgDD45OFxeAIZQH5IVh8IaYG8nXfeedqNjYxCRiEzkMv/+Z//UQLI9HTUBVZjoW7wm94Hk1dA3YDgItccw7Gcw3yyhM+wJDKhJ9wHcw0y5ZLlZXlTN/Dw4uGk4RasB8DkGFlnOjC8mjwHcs126jsklYm5uTcaltQ9ksWbQ14ho9QbtnEvNEI5n8YrpBQiComnQUhZcN3hBKc5wt88PIY4hpmoenLq0WHYMCzBBFnDKEFSMWAYY47FkD366KPq7WHfu971Lnn/+9+v8Zt4Km+++WZdqx2vKPngEeI3gyYguUxTBEllomomsaY7nWMBXidWJ8LDiecSzw3HQirpesdDgwHl3qKB69ln0GDzG+OMhwgSAImGCOCdxfhzj3YuBhzPlf32OLyA3PDuIxNyQdc3pAxPKzLLscRb4nWlN4LGHPMcQ2KpM8Q/QzbpJTDyxuotNOAgqEzdRUw3DS8my0YOSXS501h77LHHtD5RRyCEhBswnyAeUOZrJoaaPO2+I4G3E2LNvdtzGLh/ekSQdYgopJM8ONbqAPWMTxL1jufnmjRQ+c05kGMSx3h4eHj0Bzw59djPYBnMkGFwzfDYiF6MHfF4eD7xPmIw8ezwncFHED7IKJ4WDDJeU7oFAYQUDxCLFXAOnqDrr79eSSOGlG5LPFEYS+LjyJtjmQj+u9/9rhJVCLGR08h7t/sOAoNLwtizShhxdnzHg4WRxdjyfHSTQiIY8Y+XmDhEO9/j8AYyhRwgKzTO8Dwa4SMkBDnFy4+cIqM0fmgEEbdM6Mwbb7yh50I6kW/ki/mROYdz8brSE4GM4xGl0cbIemQVskosJ70H1AXy5zwGcBFLTX2MJvcG20cyWUbuuQfqG/dPDC1EE8JJnec+AeewDSLL/XMss1/cddddOqCSibjvueceDTngHI718PDw6Cs8OfVQAxTNE4lRfOWVV9QbSuwcg6Q4Fm8PHk0SXf5MlA2ZxGtEDBreVs4h5hPvEUQQosc16Eokhg3vE+cR74rXlW5HCCLeUYyghRXYsRjFd77znWqk6WoE3EtPgOEkb4w+z0UizpZuT8gAhp57IqaPhLH1xPTwg3kAg/JFI4uGCx5S5JqubOoBYI5jQlMYPAXJQ2aRV+IvGUSEzBGKwicyiNeVqczoGSBEAC8oss659EIwvyx1iHrDsZxD/aOOURc4Hlm13gobtBcNwbptsgy5hjDTgGQfPQjkyXPjGSVOldhyO49GG/dGHeU+GFBldRyCCyCsxHkPxwGEHh4eA49hOSCqN4SiK2Xa3TwPFaVsA6LoPsfIYpSIc2NQEAnDw7rWjzzyiBpjRvLTXYnxwYjhSeF8CJ4NWiIejWReR0bMY/QgqMyBSDckhhGDS/c8HlkIIPnhhcIYsp18iQNlsQMIMhPFmxeTOECO76ycIRIcw33gpeIeGBQCacCoYuDxNkFIGfQF6cYrzG/2EWPHsZyHNwkMxfcaKZP9cY/dyZNjujsg6oDNndxinPvj3Q3WaH2IJ/LLYCHkEhmkF4DwFTyfdLHjVSc8hMFAdLOb7CK31AO6+IkxpT7gpedcfhOTSeMN+aOe0U3POXgwkXN6GSCj3I/JOPfAwh/UB+oNhJZzqI/MKsExVh+7gnk0jZgSOkM9hwzTg8F98a7xCEOY8fjSCGQbzwdZJQ4VcsosBdQP6hCfEGUaqcSvQrIPdp0h324PiArKXxe3w7nI3/4DokZpvtGmkjLZAQfrWT0ObahMur9uDYgCPZDXAwZEFYZmD+lMFvsqs8HzY6G/6sKwnOe0t4/U3ZfaGYa6krLnwCgymILuRyNjkEPun2Mw1nh68JoQC8cADAws+zCirAgDecXAYUQtXg3SioeJ3xyD0SJfSO7dd9+tRptjMHx4gjBoeGrwiEIMMb4c9/DDD+tIYvJkND/GkuuTH6TADGc00F2PsSJWj0FYnMM8p3i77PkjYXnZ/kPhPUY+i91zb+/d8guWAYnf+hnWnF3Nc3oA7H7sfvmIcosocUjXYMxzSuwlXep/+9vf1BtJY82eH/mmPnBveA8vuugiJafIIKQPmUbWCV2hwcU5yDx5QwapD9Szb37zm9rggWzSFf74449rDDag/lEfGMCE5xRPJOQPwnzHHXco6YWc0oiCAOKZ5VhisfH2Q2hjgefjPumVYNonpoKCdNNjwHOQF+C+u4OgfAS/DwRMFrszz2lIxuy3u8+w+MUC56I7gvOcHl00T+eqhAhEwp7dMFBl4HFoAH3ZrXlOgzAZirU/DGQvOM/ptad9Ui6cdZbKeGdyGJTZnsprpLzHQn/Vg2HnOUVB4alDGfckGTGLBl4K+ZKinRtMgHz66wUdLAQ9pxg8CCpeGEgl3hMMJd5GvJ8f/ehH1WBTDpQTAzqY7B7DitfkbW97mxJAyB/GG68Q+TPQA2OM4SS+DhKKEcZTy3U4n5g6PFJ4ZiCg1r1JFyHb8NRgMMgTw4oXCqPMPvMYRZY174l9Qc8p98k5vKPISmbvi+3R9g0l2P3xjJAlyplPnivoQevJfVuefJIvjYdgnlY+Bo7rnufUbbU5Jt2nO9Hl4zbHuDeUONcfDM8pxI0plPCcIid4EqkPyDv1A/mnAUU8KN3pbONczvvJT36isZd43pleilAVGlDIO40kPKjUD7ZzHqEtyDCkkHMgudb1T33Es8q55sGEqFJvqKOEAuBphawyKJG6St0iDxDrvTNtFXP83nLLLdoTQS8IMax4iUHk+43Mx8rJtttv+zTEun5/gmt06jkN38I+2XN62d2m3lon98e5Kv/d8JxynCXTKZ3ZEI/DEyqT7q87nlPklPmgVVc6hGQptjz11HMKLzJ5Dcpsd8Dx3eFV/VkPhpXnlIKH8KC8KcjuFBCPjxHCEECE+B15Hh4LRqrTHR0NHM95GHK8fBgc8yT2x0vqT9jr5lkYSYxHkcFNeI3M+8I94znCa2rPZtsBA6HwMOF1If4MIgs4DuNODBtd+HSBYpTNcCC0JDxRGHU8SniPmHOUrvUbbrhBB0YBrsWxEFPeKR7aX//610pQmYKHASS8M46z+zKY5xRDTJ7mOT3qqKN0f+TxhwLsHfBskEfkkfLDU4dSgJzQ7cp7w+PG80crm0iQLwkyineQ7mXKmutAhmgkQNToylby67KL5Tl1OakidrlKe0u7NO9plLpdNVJXWqvXSslOlayiXEnJTZeE5AM9UZzLfWwdpBWiqAN4NJlmDK8iRJCyhQBSvpQr4HjOo44zuwSDlKg7DFCiLhmQcUgrdcSmT0NmOZf3YkqcsqaXgDAC7oEQAia5hwijT7geZc959FpALqkHP/3pT7WO0jvAkrsg8n1z/+TPVG0cT5gMA7BI6DvQlYwMJVAW3G+k5zQ1PU3aw+XKJOatdc2yZ3uVNJTX6e+UrFRJH5UtaQUZkphK2IF7ZpeXimsY9i5ieU65NkB/EVqBVxw7gxxQ72hYBxuIHoc30Ifd8pw6MtrS6GzipgqpL6lRscxwspo1zjWQM1MPWMkMIIvd8ZyazOLEQMfAZUynod9JXdV/9A66jN4lzo0G8uBa5tgyXdkXdI82D3FYgVHwxFIxOMEmWGcQDXFVfFrC8BBDafsYJYvypnBRNgZeCnkTS/atb31Lz+Mc8o3Mk4SHkWmJIH7kZYIxlIEyxfDiQSGWjEQ3IYSE+6cMQFCA8cIADDKKGXAs5AZyigcIwm9lwHthEBKG0ZQ5hpHBSIzeh/hAsrgWZcexKH7OhWThNaKrk/XxuSYVBRLTVaUCHNOd44Y6eAbKjhhfZjhAfplSCNll9gOmImIADiSc7mV7R5RhLFi9oTzxwhG6Qb6QKRoeNiUSy18y4wLHh8hnFLjrJCSgTvZKxZoSWfrnV2TB9Y/Kiz98XN686Tl546Zn5eWfPCnPfeNBWXTz8+6Y3Y7AhmSLcwcbJicQRhqXyBx1Ac8lnncG6CGfkfUBokIZsx/FbOVNWdFIplcA2HbOowGAjNPIMBmnzhE+gzeVfCysBhJE44zrcG/US3oWqDeQIeoL+USDvi93PTym9HRAwHnHNOzovbD3zz3Y/R2q0PfnyqfWEdIVf3tNnrvuQXnph/+W12/4j5O95+Tlnz4pC779iLz+q//I7oVb1Ttl77C7sPKi94b5lrEH2AFmKcFG8H5MPjw8OoPWNyd/TdWNsuGplfLC9Y+ovCKrC3/9vLz0g3/LS9//t6x75C3XwKqVuIR9TqKewOQRfkPdN070gx/8QHU6dcDkOhKmF9AxhNm9+93vVvtgeQQT9QCdhP0hzAlgr/qiV4ZFtz4FQCGjpHkJLNdnAwhIeBvsuyWMt32H8NAljfeOl2keDb7zyeAgPHwMboiWl23DmOC9YuCDtRx6qgAHCtatT9wo90x3JKQxKKjcu5UFsHLGcEKA8LBBQjGuCDpTy/zyl7/UsoD00v2JkWc+R6aLuv3229U7ZB46wgMgPnhZbZ5HJvfnWM4hLpZENydeXrygeDYYwEFXJ9cGkWXMe+P6dH3SrY8RJ0SBmFYwVN9JNJiCQLbwkOH9YplNiA/brFufT8oVGaV7GpkOtmAjn9mIC++Qd0beyLkRf8qZPCl/ypF9ePEI24AE7KjeLa9uXRTq1s/OUeXZ0tQqG/69XFb+4w3Z+cYWaaysl7bGFmlraZf2VtfQa26TlvpmqdlSKaVv7ZCUnDTJHJ0jCcnhATTuj3c3WCtEIXPUCQg5BNAaWICyIll9sPLkk/XrKSP0D+WObqF+sMAD5BQljbzSuOJ83iEyTkgL1yXZfLvUEbr+8bTyPjEiv/nNb3RgFHqG9w45+tnPfqZhK3hqIUkQarsfwH1TluhDPLacj5eEe+FeiQGnZ4P7I6HfCEWwVdGGMri/fd36JZKRleEq/V7Z8epGWXzrf93nZmlwstfaIXsuqew1Se2OKilbsUv3jTpqfIe31fKlzKJ16yObvDt6LKgrNOb4TnnRKGR6LxoV5DHUy89j4GCyE9mtjze0cm2JLP/767LuoaVSX7JHWhtaQnrSyWub06UNFXVStnyXymxqQaZkjc3TfSZeXXXro+Oxg8w8Q28QthB9TmP7ve99r8bOsz+WzAZ1I7b6oYce2o/3BBO6CX2FvWGQMc4urh/kDz3FsPCcBkFhUyAAxUGsGN25xHAxoMZiuYKGB3IVjNkisY98SHgtMNaA8yA7kFnL05b9xABBCMhvqINnhIzyPHh9TIjsma0cgrByoQuRbkHKF8OJx5gBHxBdJtgnBhUjTd6cg1GkjPhOtylzNNKKY3JySCpzQ9I1Siwe8XMQAzxLrPFNvngHGdzE4ClCACCxVALy415jwe6BZB7eQw1GIiFAtF5RNJBHnp84WubSpHx4J8g+coqHDJID+VHlGH5vBssTEvWXv/xFiT9dPsg5ZYUMI9e8X4w1JBWPLcfyuZfBT040NEf3n3qhkhJk+0sbZNPTq6RqU4UqV8L0UvPSJXfyCMkuLpC4xHg9Fo9p7Y5q2fLcGqlcX6p5hXLbd48DDcqO54VgkExpx6oPVqbILPPx4k3Ae8b7wOP84x//WMsOLzReSnoHyIcyJlQCDylx1HTfI/+8Q0JlIIgQUsqfrmKOpeueWFRIJvlRfyDRGBjOQ8dFuz+uT4iAGQ0a7DTcH3jgAZUlBnFZMsNzKME121R2MNjlq0pk5d0LneyVK/Ek1jQ1P11yJhU42cuTpEyn71X22qXOEYGtz62V3Yu2aMNI60Y3RI+6RR3AE42RR06II77yyiu1fK2ueXjEBCKbEC+1O2uc/lsrO17ZGCal6NQ4yR6fJ1lFORKfnKDhKDSodr25VTY8ukz2bKnQcCiLSe0KyCJ1+uc//7nOZ4wzA55DgxZiajylK5lF7iGfyDcJWccWo6MsYd/5hJSirwD59qU+DIuYU2PoKAyMAqNR8QDhEcRYoOAxChgcDC378S6htDFIkCmIEMdbXsFiYbQs+zEIEC08grixyQvSY8fzsiGuGHeM/FAGAoe3k2UYeW7iMimfrmDlQtwbXjrrnsT4QvrxlNJFD0HCA4W3DRKEl4FzGI1PufM+IMV4MyGkeOQoSzxDEFaOpTuTMuaaVAjeI12tGO3OGgD2DvHI4vGDQFBxLMbuUAHPbYlBN7///e+1XPCsUbYYRd4d+2nd4pGjgYBCQq4hMXjgkFmOMUVh5BQjCxGCcOJRo0WN0iJv3g1e1d/97nfqdWM/JOuzV39WPve5z8qWpt3ys+dukY3122SSe3d7HRGtXF8mW59fK1tfWKfXGXNMsRTOG+uIQaqShT07qmTtg0ukvrRWFW9qbprM+dDxMumC2RKf5DJwotXc1DygMadWvsgoHkmelcYP3exdNTI5D1DeyDvyhsyynTKHNKKorY4hg+RJ/aAxQDIPOPKK4YC0IuOch+wTCmPHot+ot5AiPKXkyX1S96IZAcgpMbHcF98B7z4SZkTonuO60fIaKjA5Jub0xhf+JIvKl7t6nSdtVa5R9txq2fL8Oqlzhn/iuTNV9pKzUrXtU725Qra9uF7KV+wSiY+TpLQkmfp2Z1Q/cZK0N4fKBG8W5RuMOT1q7FxpaW3R9/bQgw+pfWGAGw1EPOHE3zO/ren7oVx2HgMLGk/RYk7RrRufXimr710kNU4undC4RnyaTHHymOca8shQ2cpdTpbXaiMeicocmyNT33GEzHjPUa7h3+LOkZgxp3ptV0/QH/RE0suCTQWEPBIGRi8x9rYzeTVdgU6k1xL7g55CjxHKgu3mN3mQuCZ2B+cSNtrqam8x7MgpngiWBoQA4d286aab1BuBcjbCwoAapmhBEUEk8QISx4eC4RhgBYtRZtlNup95SRzPlDAQA/bZywF88tu8LkMZPB8EEcOIscPAdRecS6L8qACULc+MpxIlTr7m3WO7iRjlxXb2886oHHYO5UViu90bx5I3v3k3VGpgx3YFuz+uY96wQwk8N8/JM7CeOlN/QVZoAOFtI76H92bE47e//a0aT44BKCHOg8BYXoDvvAvi5piIHUKFMqHBBaHleMqM1jL76ca0YPhLLr5Evvq1r0rGpFxHTm+VDQyIcnVCB0S17XXEc4+Urdip3/OmjZTscYzk57pOUTe3ytI/vaQeg5a6ZvUCzHzv0TLtXUdKSo4jsO1OpgaYnBp4NsoZmUHBmkx2ByazyCt58B25Jh++U47ILzKIfmAb7wwZ53q8C8B+ZJz9wWtzLHlzLN9Nnk1fdXafnEcKItbxXNv031CFlU3kgKgUVxbaDbpqt3aDFp04WTJGO6LtCCchJ40V9bLxyZWy7uGlGueXkJooRSdNluO+dJbEo6PcH89OGUcOiGpuaZb169ZrfcGpwfvEc0QdZEYS6g731NW78Di8EElO/73mWRk/eZzsrWqR5Xe9KVueXS2tTa3auzTpbTNlxvuO0sF6yFBjdYOse2SZO2aNevppTI12jf35nzrVyXWWtDpdmpyUfAA5pX64y6pdp1GMPoe3oGsIN+Q3zjh0U1cyi14DzFEOwcVJhw1lYRF6THFmcG7wfL6jn/pDjwxtTdRNWOGgrJmixeKwaNniwcDQsI9E9yjxXSghChCvHXMFYkyigZeMF9YGHdjLgAhDgHmB5I+x4PNQIKaAe6Q8bCR2T2BlwDNzPsqZT35TpnzigYkkgwgtBhAPEV44juEeguXF92AedixE164bPL4zkDdeRp7vUCOmBuSLe8cDTZkACBAtYbx1yCeyiUeVeF6UEAqKY3kvlFskKD+8d3jV+OR4G3RGq5fyouwodwgrnjzeHfeycdNGWbFyhbS00W2//3vA+0kLf9wpU2TcqVO0OzU+2SmqxDhJSHSNl1yXL56sjvPcJ+QhIp/BADLHcyPHPSGmgGPtfMqcckP52z7kGP3CMQbeKdvYxzmkWI0vjiU/6gLef+4xMr9YsDoQTMhEtNSd/IYq4pMSJK0wS4pOmChTLpyjsqeGPjFeEtw+Zoog0aUKaQCQVso5uneGBrhrGDhyUVVVrR4ojD1ect4DvQvEmlIvI9+Xh0dUOIGiu752Z7XUbq9UgknoU1pemmsoTZL0QlcHnZ4kpj9rbK6Mmj8u1MByotXW3Kbn1Wyr1IaVHNgBovJKorHLOA1klt5NfuPQIAyIsRfoAOp6VzKLXSBhb7ATgHPQRWyDF2F/2Ia9IaFv+kuPHLraKAArZAoHoonLGU8oo5mZs5AC5hhGvjJAgK5ltmFEiEclXgIEX5a9GLwOKCQ+KXReBrF8zAqARxXPEvFaxHTQtXoogufsKays7Fz7DJahgW2R24PXDO7vzrGHE3h2iCENLbpxUQw0ivDgMFXWPffcox5VegsY4EL3NPWAJTWPO+44NaTAys3KknAMFA6NNEAXjc15aeBYlBohFxAvfuNlVRLc2qJKNIj28Bx9ialJkpTuGh2OdDLgxJ2oBAAPQOXaUh2cAi9lQFT6iExJTGOqsVAehyIiZdbKOHK7IdZ2g+2LdpzlDbrK57CCM9aEjhBDilzpJvebaXoQPqaUqtlWpQPyKDMIa9Y4CGw47g6BDEKLea/U7qmVhx95WOsZxhgbQJwpzg/sB138DDAj3pg65eHRFfDiN+1pVNlEDpneLH1kpsadaly0k1vqOdvYF6+x+u3a21S/e4/LwclqtGqPnnUJfsM4AgY58ht7gLzSmKLnBacEg6MYVW+9bJ0BG0FvgekbWygH/oM3lYHQDCbF6WfOkaCe6i2GBTk1YMTpdscw4wWiWx+PAAWFUmHEGXGjeJooZLpmrCXBMdEUPaQUg88LYj8EFDLKCGfiMH74wx/qwB6+M2gBBWUvpj9e0MGGCVxvwHmUqyXLJ1aetp1kx0c7DgSP6+rYztDb84YC7PkBMcEQVOJnUQC0iBmcwQAxQlno0idGlH3EI7J4AvUAr1tQDu07MYy0fg148PDKWXlZmXF9iCvkFFRVVqlCa2sNdVcFJdyKmWvYdTQfl5jzlO788lW71QsAsS2YNUoHrKB83Qma32Ai8tl7CjvX5NUQK8/g8Z3JuG23Y2MdFw3Bc7tKhzS4fZdU9lwjSTe533hHm2oaZdfCrVL61nYdqIeXFY/U6KPGIXYHSB1nU86tLa2ydPES+e1vfqMGGQ8UccTULWwL3qnbb79dxyMwBzOzaGD8LczDw8OgzXPXWEf+IKZ8gvgk15jKTdceJoipyqw7joYWDSe8/TpoD9La0iaNVfWhc1VokTESgu/+dydXVVZ2rCqHEwM5RFaZM5keMAZI3nrrrSqzjL2BqCKvyG2kzJpOwKZgK/jNMUwXSR7MRkI+zASAHYKsQnqtl7mvdWBYkVNAgVDYlqyA8HgyfQoDEChkutDwmpI6K0QK2kaqQXTNSENWIa2QUQbdMNKWF0SLhS5/ju8sXw+P7sAUBIqGLhMS2yCdfOLVNyVkxIXGFsd1JoPItMU6AvKjcRcJzqcLmf2gtbVF40JVGeqWzoFSbqpu0JH8a+5foiOp3U1q93/RiZO0+9XXE49+hdpqBDROvU3bX9kom55aJdUbyyU+IV699eNPnSIFM0dJmyOgKshhYUYU+Yrt2Lxps/zt9jtliSOoyCieUow8jUQac4TSQASY7YBeC7yoGPloht7jMIeKY5zOFkHPEeQTuE0aahIZ2qRy6LbTkLIeKmSKhj2eVfIyIOv8QSDx4kNM6d1CZ+NYIDaacEfClRhzw6BZZPbpp5/WQdHWoAqCa2FP+MRBB0GF/8CbyAfbwXb4FDPI4DklDpVBufAhy6MvGHbklAI1Q2uFS0Jx0GqAbPIiiDXFG0W3ZfBFG2wbLwQCSxwrozIZzWxTMeCdJVbPCCveLF46cxz29cUMFKx8PIYmkFWUAGEktFYJbke+kVsC01mNi/AVvtOFj8zTO8AAPuZitF6CSBAeYITTEEsWaIiZ8kpISFTl1CUz1WxCA1E2PbNKlv/tNR0sBdIKM2X6u4+U0ccWa/c/XoGhDF8/Di3wvqgHTNGz+dk1svqfC6Vi9W4lAKkFGVLkiCkj9UMzou0vyJxLvSgrL5MHH3pQ/nnfvUoOkH+mycMGYKBxQGCwOZb6xfVIdP2T2OflxmM/OHGgcRQknIoYcqLLmYa7+hXIWWIEkXW7GIwKwVy1epXc/8D9Oq4GWaQ7n9H5hKFAJpFLjjOZJSGjbMdZwb5IcAw9cdgXZN+4j83qwsh9Gm3YBBwlcB9iXbFZ0exOTzDs1taPBloUTIPA1DkoDcC8kMxNaDGpvMwg7OUZObVVoVglgU+mXWHieqZ+ofVBC4KXixDQ9Qpx5YWRd19f0sEA90VC6fIJhuJ9Hs7g3SCXjJSn64RuRN4VDSvmiWXVH+SRWCLkmWNptUJIiSdl4AyhK5ETtPNJeAreHqb4AoTD0P1DY8tg1ye+iPgk8mXgzsmnniyzjpsrb+xYKhVNVZLnSDEtdwPKlK6o+rJaWf+vZbLq7oU6QprLJ6YlyxFXnCgTzpouyZkp+3kBIArUoYGchL8zWP2wOsJ9+joy+OAdxFpbHzHE4wTnXH3fYp26jCV0ccOkFWTKxLfNlNnvP0YSM5IP8ECp/DlDX19TL+tfWi2v3ftfqa3eEyIDLl8G19KliceJsQvEfeOJolcOvc88sjhB6N635bCtN8LLzeEJ1Rvu77n1L8ua0o1SMLZAGnbUSPmqXdqjhH5ltP7ooyd06ENkLSEp0TXs62TXm1ukamMZGWkX/+hjJsjII4tcw6tZEpxsVVZVSmZSukxPnygvPvq8/Pkvf5bGhlAXPHkjg4yRQV5JEFfsCQ4HuBADaxkvQ3c8RBO+w7kmr+SB3DOxfpD/kFgtiu3oRzgQBBeuRU8efAnSCnor+8POc2pQReVAwREvhEeTgkOJYKwxxLraTeBFRAP7UDB0k6IA+c0Lo/XBSE1IKvMiYrS5Fq0HYvJQWEMVlA2J5+DZzMs8GKDMeCd89gTcP0SGCmYVjXzYZu/eYMeyn8SxwWTXjzxvsIGscU8MtoBscq+8J6ZGYzoQZA7CyHaIKAMBaWyZTONlxXhGg02WbO+dOgL5BVYu5IGHiO5L88COHjVaJhRPkCQnM7TsIwExZZR03e4aWfvwUln38FuhrnwHJuqff9XJMu60qeoBoItKB7IMsXIHJo/Uc+qHeRsGGkHZ7Wk58Qz2LoN1JJqsB69j51hiGyla3Roq0Pty/0KjneNkBSvv6NKPdbovLT9DJp07U6a9fZ56rtoaXXnikQo8D8dBbAkF2LOtUpqrmH82Tli1h30YecK2aKyRGMMAIQWULz0Wd911l8ahUpfYNlTLy2PgoerDJQbsJTkiipwSP0qPUnOtI6pOJzKoVFctc9+JlW6sbNCBUhybkJIkaSMgj6H8QLuTYcKuSnbtlnVr1uoAPnQVdRW+w+pvDOZDXpFN5nImHBFAIllljkHdd955p8qy6b2g3JIfXlgS343/cF2cHxBVBt/aOegKbEZfZX/YklMzJJBEXM3EYFjBY9wZoU8rgW3RiJkVLJ4llBIvEQNthooEWcV9zUs1NzbdpZAGXuRQBvdLmTA9CpOwo0wpKyujgYIJerR3EAv2bjiH98F7sPdi+QQrBu/F3hmJY4Mp8ry+Vqr+ht0bz8G98e4wfNw7cmZxqCidIIHgXUa+T6sXNKwIa8HLzzZkATlnoJQ1xLguSg2jy/U4bvKUyXLEvCMlKSHZXcvlHVCUXJa5SxmRv+qfC2XzM6vV0Cc6pVowY5Sc9I3zZMpFcyWtIF29BHgCWLmHEatDDTw7jUwGDFBH8Jjxe6BlgzLnXpBRe3fdAffJeSbjwTpi+QSfJXgdO8cS24J1ZKB1RHeg9++IZWNlnSz9y8uy/tFl6nlCKPOmFMrsDx0nM957lMY6E0piU0tBVIPoKGHKJuJVW30iUXbB8rPv7MNoU249eV8ehwGcOEBGWQUqe3y+NqTokqcBtek/a3QeaKbbw8PPANKdb2yWmq2u8eNkCzlFdnMnF0hrQ6tTUOE6rPm6BpTLx+plsH5jD4JySwrKrYFQFavfQUA08YridcVGmI4w3YJegf/YVFOA7Xhb+yr/w2IS/s5AwbLkH4HrAEJKFymB7RQgiCxEioTE9qeeekpHRdNtT+uA0Zq4qzHgkAGIHaP3aSngZYD04sFiSU9e4FBSUPaquVemmSAmkQFd3CMxjEy0O2XKFBWugw3uhYrD9WnNsfoTk7+j2LsDiAJeQSoM3mpIGu+TLm+mXOKZ7B3SqMCLSHcGz2blwD4qK+fy/HRpIx8GO3+wwL0hQxAj5AmSyDZGXTJimJXK8P5bORIIz/rsNiCPY5h0mVH7wJ7FnovA+O9+97sai811mFSZOKKzzz5b46iZGgTZJ+CdVniek/vPXn21fO6az8n25hKdhH9jAytETQjdq2vt012Fx3TXG1tD06W4a6XmpMnYkyZJ0YkTJc4pNoW7FUZVM2cfc/oRh0p8FSR4MCbhN1jZ0DVr4Qw02iDx9JKwYIcNNjuYsmH5E37BLAx8Ite87+5cG12EN5z7Z/ovZARPOXJOPgyUIB8DXhS696grkUA2MF6ci8fdrn+wyyAa7Jr7JuFfJiMKC5y8pkrNzipZ+8AS2fbiBp3EHHlKykjWyfZZR59VeDoIp7ttPFIQV5Y5DW+S5rZWKd1aInvXNcjcdiezeWM6JlLnusHnxmHBQBDsAE4JVt0hNg8dxtQ96FJkRfMe4HLyGHwQ6hSchL9jhSgnKxueWCGr71uk85ZCUhmkN+Gc6ZI/PRSCVb56t2x/aaPOh4qcZozKlqlvnysz33dMqMcpbq+uELVx82bJT8qVyyZeIMk79sryFcvVnlHfgcksQG4J5ULfQzpxUJx88snqrGMQLZyIMADIJ/ocoDuYKoreAGwrx9PzzPFmd5ilCMcGOgTZJ8YV3WnTGPYWw5Kc2iNBWiCXGBTzKvEiWAqSEZe8hGhKw87HIDBNDwafvHhxFDiGG5KDIcUA0GrgZaP83/Oe9+jKPUxmTj4o9qEA7gWBw9CyrjZTn0BiiFXkmfAQf+tb39JYKe6Z4y1ZGQUFPYjgcST7DWI9P/vtXpgGiYpB2ZknLxKWP2XOO6Ulx8oVNBrYxruEWFJx5s+fr+ubQ3apqMTVMKCIRkTk/ZAv5/JuOZ6pxahckIDBhpUjskeDiu4XnoVngkgTIwRhQK7ZzkhN5vLlN/ePHDJgCk++lZ/lC5BbpgOhSwclg0xzLCSV78gHhB6iQxkRDM9yqCefeoos3blCbvjvH3WFqInjiyUuMU7qy+pk5d1vyLb/rpfGKkdy3OW4YmJKoqSPzFYvqXZRcXHX8mfEanphlkw6f5YUnTxZB7BwrcEip9QPygaFTNkRToG+QC54fuSKmCu8BcDej5WtpWiIPM6Uf6xzOBaw/j4zgdC4oo7Qhcb7jdaAtGugkzAYNMhpnCM/XA+5IfyD+GIaIAxwoEFHfjRAWLs/6AExcH+QLI6lG48GDOUCIRtoWBnuR05HjpC4xvbQkpD3LZaWPU3KQTkW2aMrNNmRVD3fJS1u9x/d+nM/crwOzNN89zr94uSvvKRcxieOkivmv09m5O8j4wb7zXthCkHKzEbys5wpssJvDPVQ0f8eAw9XG6OS06zsTKnaXK5hJ6xaRtgTXn9iT0kA/dnEtFEtbZKUniJjXcN+9gePlZwJBTqlFHnr8qVOP2e2p8lnj/+YnDzmaKmrr1P5iwWzI/S+4Whj7AKT83MO9Ru9gmyjL0g00hlci701+0pDFdlmP4Op0Jc2YwyNVxwizBCA7AfrTU8xLGsOhYTCxasG66fgKEi2M3iEAuzsBQJ7QbwEDDYFTZcnXixazHhMMV6QAo7jpTGCDYKFZ8vyGCowhQqZw0MCGaFblyUuEdCrrrpKW1I8J8cCjrdnsE/bF0TwOGDXCm6LBt4Rgo3nlLKFZMYCeZIWLFigg9toAdIgwEhiLGlsQKwJT7jnnns0ONtARWQ1JQw9hJjjIHV8QvJ4bt4jRBmyxqh43jH3Z9cdDFj5oRQwfASZ443hfvBqUgYYSJQNnnBICcqFaUMuv/xylXXICAi+C/uOATUPLAP7qBM0UpAPiC6EhXdC44XBfyzVCEHTuuOy6MjS3Q+t/4ayWu3Sb4KYUmbO+EMAWpzyZW3z0rdcQ27VLilziTXO8Q5UrivREf3xCS6zQSpnA+VC2SInPD/1mHK/+uqr5eMf/7gOcjRSSJ03BMu2M3mJ9g66AsQSmUbv2OC14LUNdk0aJ8SZIcM8Ax5SiCjvD88exBrZJl4Sb7jdBx5TPCp4aWl8UzesnhDHDLGlXJgbkcY9MkedtToyqIjbq176ijVOlirrQ++AMnKfdKMSP8pa5STkr3zlbpd2Odkr1Xkj94d7FmcVU9LTpHBUYUhPFIXKIZgoG8qJxpQ9P2VLw872eWLqEQ00yjNHZ8v406a6NEW78dGT9aW1KsOk+pI9ui3d7Rt7wkSZeM4MySrK1fjnUOs+DFd/2538JSYlSsGIArVnkbJqCbmkkRmUWeSUffAX5Nd0IJ8kZJhGKDYA20kjmVAn+A+DqJihCIIKT5o7d646heBB/SH7w260vhU6xAVyyohKXNAoadzSdPHTrWVGJpaRsBeDNxSFw8vjBUFk+MTo4+WD6DK4Cq/SZZddpl2otCwsj6ECjAjeY7rCmbUAUshqWkyPAhBcBMzumfLDc8xxfCLQ9lwg+GyQPxoAGDtrUUH2TGijeXkAxAdiStcYHkuIJuUdWW72Trl/PBV4hOhegIDR1cqIQcqdkAoIBY0JCCvvnXfIfWCMMaZ4iyDinG+Ja+MR4nhIO12hkALeLe8bDOa75BmQP2SY+0H2IKwoDcqX90Krl5YwBIqWMB4+iGysRhjPQ0KGefd4ji0/8qcMUVr0ANBFidI5+ZSTJT8vX9/HrtoyeWXLQqlsrpFcdzwDSRocydyzvUqD+dPy03UQyr7kfhe4T0sjMnV7xpgcGTFnjORMcPm2tkubk53BGK3PMyHHeItpACGTtvABZYtsUCaUp8kjdQIyCGlENtlnCj5SXqhDyBR1gYRM2gwfGIhYoB4R88p1TjrpJCWY1K/I98r1uC/qEyuH0RijfjDNGMaC3gDOJXwGfYa8U1+4NvkRJoMHnXeOjqRecT2rI5xrDSMaLxgl9CDHD7S+4zr7RuuXSHpGulMme7WLFMNPN73JXcf3oOxpcvVnRIaMOaZYssaFV1Fzf3i6GuoaJDcxS44pOkJGZxXqM8ezzmQEaDQQIkWdpKeChhu6xN7/QJWHx9AFsoNcPbvuZVlXsUmycrJCOsI1xlNz0yVjdI7G39O4Z/38pHQm3k+T9JFZkj99pC5rWnzmNI3Z18VKAkiIT5AqZ3eT2xPlpGJXP0dMUI9qZ3KHbcNW0+CkPmNzcWYAI5Qmu/ymUYptwEag//iOUwM7zXd0CXzK7A56A7tp+fQFwzbmFMMBGUGRYnQAhYvBQal2t+AoHkgXXim8VXThYGjwNFhXF4oJZU/+fX0hBws8AwbXEiQMgYKgQkQxQJBshBGFSwuJbnO6dXkmSAzKF7ICUcI4sp3ywduClwYjR/liGBmEBtEhVhJSFVkunId3k1UlCCegO+wzn/mMCnvwWI4zEaWxgacPwgxJpYsTQ2/7Ad8x+hgM8iHxrIRnQGq5xhe/+MUD7gfw3MRh4o1EdjDudHUa4Rhs8GyQGrpqMYw8J+8VQDJ4ZhQFyqEnXa7ki8LCUwrpsMYIBBjZRoFRZ1R5uWKAQC7avkxueOE2WR/u1qebvqmmQao3VWgwv8s1nHno4wBoeYaWOs0anyeZo7K1y58Gy9YB7NY32eG6lCshI0y3ghwg75BTnp2ufQgeSp0yRxdQVkwdRNlR/jQO8B6g9NEFBmSHGCzKlVAMypHz0CWQPjzckbD7wpvJanSQTkINaFjxbiyWMQjqMb0G1CU84X//+9+VPFpeBvQhx3LP1B++U9fxriI/xJ5bnHIQXBe9QP24/fbbVed9/etf18bhQMVW8ixcY/9u/QJJEmeoN5dLQ1mdymhMuQPsd3nwkTe1UOOdOZ58kYPy0gqZnFEsnz/1Cjm6aJ4SVohAJKgvvEfKE73Jez/yyCPDez0Od0AUo3XrZ7rGFKPsdYoyl1rrmqXayW7dzupQOJQDq0YxAIqGU3JWiuisJk7vIreAeqDd+s62ZbSmyLWnfVIunHVWhxzHAr292GtsNQ1uGqvW6Ix1Hsdiq3Fs0VhGb/Gb47ERcAN0H+FC2HzQ2T10F8N6QJQ9mn1SYD0ttO4WD/lybH+8lP6E3ROeHeJNiLvEC4OLHjKDsQXE5dKFieeIUAhi1iCmnI8xxYBhpJnUl25gSCQGCcFl5a0bb7xRR+1BdjGokHmE/qabblIjZq0yA/n2lJxCCCCnXOfHP/6xdnNDwmw/4FyuxSf3xqeRUzzGxMJwrWj3w7E8P8aX7n1INd4kyJ7tH0zY8wTB7+DzB9Hd++X8zp5vv2u4QyLJqQ2IwmPK/KZ4BboNp6QZpcrKKVwHQz/Q5JRE/YCU/uAHP9BGCnUEDzL1A1mBmNK9jyzgfWCiaeKxIDNG8GiwQU7oQYFwQlDJm+0QP+QXok/d4zseCOoToTV2L/YOrLx7Qk7ZDjnlOLwhdO1zv5Hv1eqHvVe8t0ZOMTKQUxqZkeBYzsXLSj2iN+Kaa65RTyueFdt/MGFltI+cLpcRhfmSnukaY07uIkffd4W2xhZtFAHy7Qk5tXdk9wTs08OjU3Ialh0nPI6kOr2ZQqynq8MNoWn3aLQjVxpfGl6OF91rYF9vyCnnmdx2R2aDx9p3Q7RtoLP8eoKDq0kGGRQcijeYohVmZ7CCDubFd3sxGCUMs20barB7woBiMHG9E96A4cVbCiHEuODBgRhg0EgYZ2LVvvKVr2iiOxzi9p3vfEcHiOG1s7LkPDx6eBEY3Y2BguySN17WvpQL59r5kEWMO15r4uoI2YB4QnK5B7sfex+RsLy4v2iJ8yDgXAOSQXct8XlDBdwj4D6Dsswzsc1k0bZ1F1YukfJt1+FT8+ssS7ePeKjm2iadXLqpur6LxDEN6mUl6L/TvA8yeDY8X9QL5JZQF7yKdHvTECMmm4GDkEm8B6wnTcwlsnLFFVfIN7/5TT2GRhiEzQYQ2LsAkF9IL/Mt47mg14JrQXoNWsZ9ACSYxh29G5BN5jVkhgc8HRBi5APwfqPVDwP3gazxad9J5I884ClhAm7IN95DvCmDDSYvb6lvjpCxWCkke3xX2eslKEPKlDIJ1j0Pj27D1S+Ny69zetMlA1PwMUBUiSlqoZ/0o+l0S53pAWA6gOPsHJNztll+to1j+wvDmpyiUCFldMuS+N6bwjMFzfmWBy+GT/K1Lu6hDO6TaU4gp3T5GTnFE4NHCE8JRIxBQbjqmWKIUfR4Rj772c+q9wZvEeex3ea+tHKgXOgmYHJ4vDd4QxkchkHva9lYedvAILw7eICZsotuxdtuu027Y20AD+B4UnfBNew+iaUhdhVCAeEGPcnrYIJ7RN4ob2TSnpPvfZFFzomU7+B1ugPOY2CTLtHnzu08cYwjQKRe3G9/gWuT8ERCTiGb1BM88nTrm2eTuFvKAe87Xf6QSojm9ddfryTzf/7nf3SgHt/pcaBLnQYcZQggv3yHONKDQY8C1+qvbmDeF89B3aZ3AbDONdeglwGiarGrGBPQG5k2mWPVPOo24S94Um3fYEHfYzyyF03WIlNI9vjeF9mzOmfJ3rWHR4/gRFDX0af+UCVdovdJu/37WTUioyavPdXtZh+Ccs5329aXuhQNw5qcHiyoIgynQwUYFFo3tPBJ/LbWPp90CdKtiXcU48aqVwiwtZYw3hBYuiwhgAwawdAFDRwxJ5BHvKWc0xvjFwtWIfBqYdjpusRzRfgBBIH4UO6N7cQZ80y9eT+cQ2Xj2cmDeMKhjIMhi/2d36ECqyPW6KJOIANWB4h5Jm4ZUkaDDg8ix7GP4/Ds42FlUAwENeh1J18SXefEdpt89VcdsXfGPTF4jYYkXl/Ca+gJoSEH0SYGnMYl8bWgp9fneK6DZxnDRvxtsNfCw8OjD0DtHgKqdyBshCenhxEiBYrvGBiIH13leAn5znQUeEhtP4nvGFRG8OIFwktJVz5GyQwTntNgcHXwWv0F7oXuVkgoXasPPPCAeogw+ng68RDhvcLDRVdmb+4BchIc8OZx+MBkHfBp8k/CE0q3PjLBwCE71j5JNMyoPwx+IjbVgExRb9hPD0DwvP4GdRfvL1M+Md0YXtyvfvWrOviB6aAIS/jRj36kXf/cQ0/A/UKyeT7INaN2Ga3f03w8PDw8OoPXKIcROjOE5jHiM5aLnm0YWIBXiWOD4Dz2HwyDa4D44tkk3o1uWLpXmX8TY4uHCJIKgSAullH93fXo2HF8EkNHHpAIui/BwXwmj0MDyDtyj5wjg5FAdiBp7MebSn0ysI/tNHj4PJiwegoRZnYAYs0JzcFjSnwsMzDQ88FAxt6A/AkRgKwzG4B5kCP1gYeHh0dv4cmphxoWuumYLofvjIa3KYqCwPgwlQwGmoEXwXlPDRiug0nkyNs8TnxihIkRxWPLtD9XXnmlEgAmLec5LLyA1BksP4gpS7FBTikPT049DHgk8YoS6sFgOZMrky1khMF5yB0NG1uMI4iDLUfkb7IMINHUU4gq8a7MQ0jIDs/AZNo9BXlTNwinQUeQJ+EMHh4eHv0JT04PQ5gBI2FYIZ0QOuY2ZCAIsaeQO0iogS48iCmj5PH8EDcHKcQIGlnsDey84D1FA/dJVyJGkXujCx9EnmfPA9nmmWx78NO+B8Hz0c2Jx5VQAQw6U1Vh1I18eBw+iCYjTJfETA54DPE6MgoecCx1AMJHnCnTPuFNtIYNiJZfTxCUWyOekUCGCbehjjAzQJA027l8sh3SShhOJCKPte+cwyICxNwSRgOxRV+QiP0GdqyHh4dHXzHsVogCppT5tO+gr8rT8uvvfAcC3C/3aSvOYLwwtIzYh8xh8DBWTHNDrByDnTB2DHbgHJYqu+OOOzSWk9WXGPhElx55Mhk53kYMHqOamT/VrtcZ6PZk8BKLAmDMiWll9C8kGCNriQnnMfx4apimh7kfbeUqEqOFGYDCczFHKZ4dBnURd4fhtBWiIJ+EA0CueU6uw3yTxOE9/fTTct999+kUQHhbL730Uh1AYpOpHwrveKDAu921pyS0QlRLjeTl5OqcfgfAbdp/e6gMYxWlo0Ja9oOxQpSBZ4N4MU0Zc4VCvmiEsR0vPfWE+gEBtZhmZBM5Ir6TOYKRNxaIYNU46gTHMEAJMsuE9UzUT+MJdCVX1AfkmvytMYh8I7/UDZNjBj5xP0yy/bvf/U6Pp17gyeW6eHqtcclsAzS+qCPMSED9p75Td7gfYmrx/lr+XI/n5fmYiYOyIVyAKegoH/LivK6epb/AdfatEFUq6Rlpqju60jludwf0qIhDORf5a6hvkLzkHDmheL6MyQ41TpHN7mKgysFj6MNkJ7hCVHKyk9Xw/iA4NgiVuU5EKbhC1IkTjpZphdGXTbd8+bQE+iKnkXka+lP2h90k/JGFZoXFZ18LzvLs73wHAihdDBuGlwnmWdGJibQZWGT7SKzRjvdwyZIlSszo2gas+kRiLsfrrrtOB0ZhlDBsTOvEIAuMN9PpMFjECG8sUIYYTow201ZBTvFSmpEJAg8oMwUw0pjJ9DHAlDndiRhS9mOYIdyQVgZ+MLUPhhdPMPfN4BCML+cwsTrn23vk+W3dcp6XGD28psS0ckxnz3E4wUm+fkadhH/vgfGGWi+oGuGPvXv1/9D7jaJ1UMY0hgZyEv4guC9k4c9//rPO58tod6aRYuoyA4QPzzpyC6FjKihII40kiBx5MGIf4kZdoR7QGCLkBHLINFKQQvM2xpItLSMH6imroeENxXNLokfDdA7n04gk3IDrUgeZWg2Zp7HJDBoMWuIe8Pgy4wCEmXlKP/7xj6u8cz6EG0JNjwTnRHpVGSDI+dQniCkzYzBzxkA33igXrhU5CX9aepq+u07vw+0L7mZ+ySA4lwZztEn4Wb7Urm3vJhrY3+k9eBw2QF92OQm/wYmMyk3on5Mx/gvJezSwvbuT8HOs5cOnyWhv5TSYVxB9yTMahp3nFGMA6UGRYkjwAFgXMCTG0N1CtBdAvhAgSAwJbwSePBQ9ir+/X8zBAPdHWWBUrRvf1tW1+2dFGTyiGDmmlWKSez4xSniCILRMlcMyZfa8VtaQSzxDxOZZJegMGBPuhXNtdgDKOfI8DDB5s158cPlU7gsyyvvAe4WhxOOJ0aVL1d43hAfiyrNDCriGge88CySDOVrxlrLgAGUAPDE9ELzbzjynvD+qTWtTq04m3bynST/b3G+W4AvN6XegbDgJVJkYTM8pQCbxWB533HFKxJBNAw0ySKeFeyBX9CwgWzTKIJ4kjjE55hPyh+xBUomPpn6xPVLWI4Euo35ASLk2RDLyHO4DMonMU/9onHHPnMO9mc5CXzHTBVNNEXtKTKzpN3QbPRQQWRqIBvZT1yDg6AsjtZTNQHtMDVyvp55TVoFqbWyR1obW0IpkzY5wJu4fjsR35C+a55TyQecT2hAr8a4oY/Owe3ioTLq/rjynuoiE6srGfbrS/elcvFF0JejMc2r1mu/We4KdNhm2Bm6wrneGYH404OBVZvfpKULuOYb8+kv2h5XnFIKCsWBKJOISIS6QD7xrdKVBQCAdKHLrbusMVjQYHrrNmHgerx3XYB/eChQ2xgCPHF115NlVvoMB7pf7QoggdXhCIHPm+QiCY3lmDBrHAsqMUb4oXvYHBRBhR1DZTvlCCu16nYF3g2BzHSP4kbB8IMcQAr6TrDufiodB4Zo8C+/EzrN7xKBzf1wr8jochyxAHBjEwne2gWj3czjDCGhnnlOOaG1olvrdtbpedPWm8HrnDilZKZJdnC+5Uwslc0y2JKYl76d4UeKD6TkFvHv0CKTO6kewUWtAdpFBSCz3jFJGzxDSYgo/KD808lDq7EfOkMPOYHJv9ZU6xu9oMsm9cE1kGHKJ3CPz1A9rRJMfZBI9ZQ1BwCf7uDd0nJHf4HX4ThlwHvcO7P6Cxw0E7Lo98Zy2t+2Vqg2lUrG6RI0/S5ymF2ZK0QmTJCE1MSS07jTOjeY5xZAT1kQsPtePBfZB4mmcIDeDUT4eQwedek7x2jvRwHvfVNMoNVsqpHzVLqndUa1ENTUnXXInF0je1JGSPsrxlRT0xT5ZQtYO8JzOPEuvyfVMP2H3aBgTeodOQ1chm/SO0Jhm0Q50QjQdZ+Ba5Me5NNwJoSPMB50GSYX30KNDoxsuRN5BHdNbHPLklNsnUXCsbkS8FYoEhUyBmoKg8CEun//859VrQGHGIkTAigXyQ4wVa8ATl0gL2vZxLqTpoosuUm8CXd0YB9t3KIJns3KL1gLCeEHgBgvBdxoLvb1H8gZd5X+4olNy6rbFJ8dL7c4a2fyfNbL1+bVSs61K9ra27dd9yso8EINJF8yW4jOnScaoUH0BKFXq8WCS0+7A6kg0gmky1F/eg56CeyN1JsO9vUfyNQLYFbk+WLBn6w455diEpERtIK28+03ZumCttLW2S3pBpky5ZK7M/cjx0tq0L0SCzyA5veaUK+SYcfO0IU+YEDaA7+Rrxxv4TsIbTdgHoSBWRsHjPA4fxCSnjjO0u31482s2V8iGJ1bIlmfX6PK7HbrSiUx8YoLkzxglE9820zWkJkpqfnrHcqbIYDRyipMAcgsRJf795ptvVicdck394DzqvTlk6GlhHAdOJatbQbANfUGDncGehAQSA089oNFm+SHr5AnZZbo6GmjR8usJBkeD9iOsAJiQ/Yc//KESSQikGQ9YPd8hq8SEfeMb39B4Mbyfdn40sB2SwyAgFBPEF29i8Hi+s+3ee+/VSa5ZztCUV6x8BxvcF+VhghoJypJy49OOs8Tx0Uif5UnqKTg3eI1YyfI2gxp5b5ai3aPdX7TjSezjGPIm9aVCHXZAhFz50UVatb5clvz+RVl1z0Kp2lgm7c104+8vYyjO2l01suz2V2XD4yulobwuZrfVYMFkks9osDoSKVP8Zp/JaBDsMznrCbqSXUuWd/D60c5jW7R7tGfuLHEMdctI11AG90pDqKW+STY+uVJ2vr5Z2prbJDktWUYeUSTT33GEIwch4hAd+94TeWHc+SRRhtgGjLMl9vOJJ4n9Hh6xoJLl6mDZ8h2y5A8vyvpHl0lzbdP+utJ9bW9p02OW3/GqrH5gsXb3ExIVEM0DgDzjJf3KV76iS3uzEhx8CHlFdgHyibyyjZ4QenOigeM4B+8rC3l87GMf08GU9EBafbDjrA7Qg4MnFtj+3uKQjjnl4VGyvAyIKe5rCopWAOu6f+1rX9O15Ol6h4zi5qYAGZjAEoQMeIG8kk+QkFi+dONAZBlRzja8r7SIyfOYY47R1gSeVc61vLk2cZv2YoL5DgVwP2acOru34HGWYh1vx8ba3xkirxErBfO2a3V1nKGz40lD9V0NVVBeHTGnzTWSm50rCSkJsuvNLbLtxfWhbnxXpGkjMmXU/HEy5pjxkjs5pACbqhpUgZIHXaxZRTmSUxzyjlL6kKDBjjk1WelKHiJlit+xzrF9sfbHgp0TvE60FJl3rPMijzNEOzaY2M87i3X+QILrdxpzyid/zpBveHy5bHl2rdSX7lFP1Ig5Y2TmZUc7ucsNkdPAs/Ad+dOY06QcOb74KBmdWShV1VVy91136+wFGGG8Qww+YzYQYm+JwWfAJnaGQWLEFWP0yS+Yv8fAAnkggcF6DyqT7q8j5jQ7S1LTU2XPtkrZ+NQq2fHKJiWlNNCTs1Jl/GlTZcRsR+7c/bbUt2hjnhjp1tpmSUxPlvwZI9XjirKMjDmdXjhZlq9YLrfcfIs6zJBl+BAhefTuMsMOvcbIK/yH7vdPfepTyldAsIw4D8BrGPAMvyL8jmN4Jmb6YcAoAyMZq8HASsKazj77bOVH5uDqS7kf8gOieHi6URjNSnwVcVUUDqPQIZCQSZQJ3S3Ei0Imid/iOMgpcZSWj4HvKCFWHKIrn3PovscF/oMf/EAH5rAyES+Ilgkvje5IvKiMOmfQQTTS6zF0gQG2lqJ/Z52DMgqS0zwGme1tl5S8dMkYkyN7nfLMGpcrUy+ZJ1MumiOjjhgnhXPHykj3SVd/Y1W97A0r3ZwJBUpcE5IT1SEwFMipR3RQL0i8I/s+GOC6nZFT9yFJ6UlSsmSbrHt4mcbzIW+5kwpk8oWzZfRxTudDCCLun9/RyCkxv/fcfY/G2mEXWMTgiiuuUENPKBe24JRTTtEEWcUTZcbZY/AQLH90O78H+p2oTAbJaU6WpDhZ3f7qJtn87BpprKTnKF4yx+TKkVedIhPPnSmjjiySglmjpK2xxTX0a6W1kUF8oTqXP3OkpOSkacMKGYOcJrUnyInFR0thUp7867F/qUMNUolNY2AmM9x85CMfUTll0CRzlDOFJHLMgGicbsFysXpEYnaf22+/XR10/ObYL37xixoeycBhOBBjeWic0TDjk7hrO78vOLD/6RAEnlOIIaBFQFAuxJPWKySRwoJYQlBRYggqc/fhQcXbSSHyQoC1GJgTkxcD4WUfL5mWAgoI7yiJl8s23NgIAgMQGIwFYQWWp8fQBO+H+VmZ5xT5sQrFdkseXQD94xKt/1SnNMccUyxzP3q8zHFp7ImTJHN0jpLWtIIMyZtWKCNmjVYiCiCxrQ0t2n2l+XgMKVgdQAcSZ4aepSsw6EkdcnXE3U5CUoLGPq9/bLkOhGpzxh0vPvI45tgJShYgq925d44hJIxeMmwDz85UdDg1WCWPcQx8khjHwKDNaKFPHgMLBioyDRsNCjAkZNZdllCTekc4K9eWSH1prW5GbxafNU3GnTxZ4/HRl4Wzx0jxGdO18e5uW4lqzbYKqVpfJgmJ+3fttzndyzNtWL9eXn7lZY0x5VkZlISTDhKJgw65hQshowyGgifhdIsFnHj0RuPUQ/YZDI1n9KqrrlISiuzTEMNjiueUmXSoB2ZH+4phQU6DrVQ8mBZjwTaEEqBcTMHwIhmZylyAxIgGC9LIKYqYl2z5UPi0ipl2yISbF0tXDkoJhQTRtXwB5w1aRXDg2j7FToDpc5jX8i9/+Ys8//zzGkiO9wSYXASP94gNV0qSmJYkORND3tDkrNDMDu6/kC6NjwvHVoXqWJxTsonpSZKQMrjG3N6vT9ET5IyZSn79619r7BkDTvHMmK4EduygA0Pe3Crr/7VcSpZsl5baZpWvkUeOkyI1/lk6Wj/BySmDpYK6/wC456FHoKGxQb2nPC+2hpg75oFesGCBLgiCvrfGbei0g18OVt4+RU+8I97Pb3/7W+1ZhWTxjthnsGMHClyL2Hzi7Ot212ijCYFNcnqSOOjkzBRHQNxxePXdccxsQg8U8ovsMSUfvQDtrXg2Q3m6TMPt+jhHxLfK6lWrlbPg4WQavPPPP185CYvLMEDq/vvvVzsHeUeWQawyINYUB16Q7NIrDe955ZVXNK977rlHF+fAmQfvsjz7A8OiW5/Co2WPQPJiACyfBPun4ChEViIyDyvdM7w83Nt08dsLMgVEmABeNfIkH7pvmOeTYwHXJUF+WX0IbynEmNH6uMoJKTBlZZ8eQw+8M5aipNuCCcohp2Z4qYRUcoN/jyFQV2LOcxqp5/hNubl/Fat2y7pH3tK4U6pbTnGejDtliuRMLtDjKF3frT90YDqOBDnDGNEzxBQyhDKhG9GV9E4FvYUHu56Q/wHd+u76yGCcM+7bX94oax9aKg0Vjoy0tUvBrNEy5cI5kjsxXyrXlcquN7ZI1YYyJQipeenqaVX5c/nu360/X0amF8i27du08QpJ5xgbXItnDnIKcec3xtkcFQe7DDw6B++RVdJYEY1eUpNZ7D8OJmy6Oa7AwXpf6Eo89dqtX75R8kbmSe3GKo3Px3PKfM8Zo7JkwjkzVBa1Fyl0purDmq0VUr2pQlrrW8JToGVpQ0sS4t0/Vy9dHUyNS5Hji+ZL2dpd8sSTT2hdpU7S28szsvIhi+swhgZSyTRQ8BW4Et7UyG59wG9irJ966imt8+TD6H668CH9DP6GT8G7GMVP7yN2k/hWeq8tj77gkJ5KSl+8KwAbhc/SmnhH6c7HxUw8BILIi3jppZe02x3SwTmcy4Ty119/vXbLW16QVrr+Gel25513KvGFcDJVFKvGMEeYFRnHI+zXXnutKm5GahJcTJDxl7/85f2D9AcYCB6DwIysD8Y9HArgfduKWZQVsoM80OVB7DDdH3Rf0Go83I2OEdDurhClh7viwlNas6VSVt6zULb9d70ShqT0ZI1HnexIQ+bYnJC3wP0N9FRSEArqrREPjwOBDsP78pvf/EYNG4YPI0QXHnWERj5zHELMaLwfzHpi+jRyKikGmbQ5w17jDPnCWxZIxZoSlbOM0dky/V1HysTzZklrXZOsffgt2fzMavVM4ZU6+nNnSKY7BpAvvV86lVT6ePncKVfInMJp8rIz6O965zuVtAJsiNkAI+fYCAw3i3iwUIHN83gwyoFGAUQA3XWwyvlQB7qcsDym/6JrH0cDuh05Je4S/U6YH2NE2BdsXPUX0JfBqaT+teo/MmnOJNm9YJOsuOsNbSDRMBoxe7Qc96VzJGt8ni4Uoa/U/Yf8rntsmax9cKnU7qxWz+rYEyaqzDI4CtnbtGmz5MRnylVHflA2P7da/u8XP5NdO3cq72HAE7IKMUdOkFlkhk/kk655uuhxukUjqBBTppnC6wo5RcYpP3ob4T1sIz/KGrLP+B7G45Bnf3TvH/LkFPACaB0QCAyLp/IaCbXCIc4CED9FYbIdcvqtb30rKjllpD/LXUJOeZFXXnllTHJKXAfXx8gh8EZOeeGW70CDMmAZQ1pR/elqH07gvfB+COFAgUGMkBsSZcZ7R4nhBccAE7dDBQ22uA8n9IiccqgTewL5qzeWyfp/L1dSAAmlm2r0MeNlxnuOkvwZLCUbOmUwyCndVngAUOC+nsQG4U94oOjCxpCbkUNXoltZ5MSMPh4bDP7BgOnTfeR0mSOnBZKaliq1u2tkzX2LZe0jS/UYJtifckGoAZQzqUDnlFx9/2JZ/69lGvsHGTjpm+frjBFIH/W6uSVITi+XOSOmyyuvvSpfuObzHc9swI7QM4euRW4pC4zyLbfcooNPIK3cR3/rf8Iq6K1Dtx+uuqg7oHzQ7TiljEgBiBQOBxpWNCjo6cRuB3vJ+gOR5PTfjpxOnDtZdj23Qefd7SCnc8bIcdeeHYWc7pX1jpyueXBJBzkdc/xEOQZympEsiU5fbdy0SXITcuSKWZfKuqeXyy9v/KVUlFeozCGryCDPhlwC9BwJuaWOMoaGpccpB6tbBnoUf/7zn6vH1fLjk7yIucaTStc/ZBVehd0k/BE+dPXVV6s+7YvsH/KT8BsJRTnguiaugvgSCh/XPgqD1jxBwXgSaQVQkLwY1s2GhBIkDMjHyOmPfvQjXSce0sL5jM4kAoJj7SWREHyIKC8SJQWB4cWQNy8n8oUPBLgmpJqpI+imNiE5xF/1QQPGFuUVfE+UFbKFDNHiZkAdIx5pHUZrZR4O6DY5VWIaJ+0trVKxereseWCJbH91o8ZTxScnyMi5Y2X2h4/TCaZ13j5HWJ3+ViU+UOTU6iVdVHgEiSGk3vs6Eh2UlXlETfYpK6snbKOL0JYAxvhbGfcnLM8gOS0cOULiW0U2P79W3rr9VWmpbdRGUObYXJnxriOVmCa6BlFdyR7Z8twa2fbiBpW7zLHZMucjJ0j6iExJyU1zn1nS5v7KS8qVnF5z6hVy5OjZsmPnDnnyiSc7nteAY4LGDV2ldGtSDtiPT3ziE/Ltb39bDXiwvPoLxP3iEcSe8U6C9+SxD+h0s332DuwdotcpO/Q5nm5S0Lb3Bw4gp6uflYmzJ0rZq9tkxT/ekPLVu1QOC5wePOErb5PsCfn7yKm7dwaLrnt4qax79C0NAUjJTpVxp02V+Z86VRKcHuX+Iac58dnyyXmXyaZnV8nPfvlzDV/g2dlPOCKeTHgJoIeQEEdkFl2L5xi+guONxlaQUDKnKeSUHmlrBHH8Zz7zGR0MTnkRu8q0VcSdwjmwjYzNYfopyCvobXke8uQUBAWK5bVg8pBKCCoFiGd0/vz5SkSZrB9yivKkOx4vp8WckgcviJeK1xGXNnEXbEfhMiUDo/QBx/PCiDeCnNK6oGuQF0PLgfWrg/c1kOC6dPsgWN5z2jkwKHiDkBsUFmXHNmTAlmw988wzdfqNYPf+4YjukNMOmXefpct2yur7FsmO1zaFlFt8nIyYOUrmf/pUyZ1SqIRUu/PDdWQwyCnx6MSlEfpzuL7X7kDfy9at2r1POVFHSBB6epMIo8ILgwcGT6oZpv6Gvbf9uvVH5kvthkp589fPSdXGch10glwlZaZIanZaSM44t61dmmsadVAe2/BapY3IENYvx+hPu3iuJOamSMnOMpmSuW/5Uq4JTE7tN8CWsEALUwxSPpQJ3aUMxMEzZ7rXzu0P0KBiikOubaTBY3/wjrD/8ADKKSizdHkzwhxOwJyfyC4yi8OqP99TNHI6YcYE2bOiTJb94zUpWRxaCIgBpMd9+RwpnDNGV4kCxJc2OEK66p8LdT7UlromnXFiyoWzZc5HT9CppIiz3rRlq2S0p8kXTr5SSl7dKv/74//VUfvIBdzn7rvvVoJqXmFsHOGKcAO4Cz2BOO7oJQ4+O99tRSjILL/xwsKDbrrpJvU+GyC8cCVIKsBTyzn0pHBeb8t0WJDTrgDhpEuKaZ9sImW6XSCrtJgMFCLCy4ul6wSSySfbULzEtRKfQX68ZIScWFPiVmlBA140K0oh9Jw3WMSQ18p9Hgavt0/A6H7/+99XhQ+hp9KhqDCyeIF4jwfL0B5q6JKcqqzFKTnYtWirKlYC/1VBJcQ7JZwvx+MhGJ+nRAHo6lDsd5/8DRQ5NVBHrVHiER2UDeSd3iSmlUGv0KAnxpTZSs4991ytL2w72OBekCcjp4vKl0vBiHypWLRTXvj+Y+Gjeg7ml2Q505TCdCnZUerI6QQlp0eNnatd/ZBdDDyyYvof3c424nBZkYdR0ADSAzllzAPkHfTWQEeDl9nYMPkgdpjBOhApxqRQXjgWcDDgbEC3Ez8ZJFn9jQPI6drnZPykItlb1eLI6euy+T+rdQAUg5ymv2e+zH7/MUpCmXg/xTWqSpfvlOW3vyo7X9uMWpXMolyZ64jplItmS0Nlvd77pq1bJKU5Sb582lXStKpafvyTH8ubb7ypcsfzYdeol9aIYTueUMgpMaX0ClIWd911VweBtTKE2N9www1ahvymEUqPAJ5TytPypPf4xhtv1GORTWJd//CHP2hvI+f1VvaHTbMLhUELia6WIPBm0gLAbc1obAqeF4QyJTaK3xSoFaAVOK1eYlEQaPbhYaF1QWuD8xGMZcuWaZwrrm3yoBVCzBVdBaC3L6U/wLW5T586T7xPRtwiB3i9P/nJT8pPfvITlRcqF+8f8H45xiM2mEwabHpmtS5PylQ+IDk7VSZfMFvO+sm7ZNT8IknNZd7TTPUE0J1Kl+tggfoeTS582pcw9DS+IaYW4vKFL3xBvSU04Kk3eJ1Mlw54PXFqNikzWbvv6cpn9SdN41xyDSFSdnGeDo5iqjM7h/l2WTSC4+jST0hMgFGEwDO4f8TaQjqDA24x4hh8nBN4ktmO88M878TkMf/jwfLEe5mNnXg3fMIDCLVAbmlEsWDCddddp9OhoeMZ6MqxyKqlgw3YAKs7pY/KkrwpI3R0PjLW5Ijm5qdW6RK7Sekpku50IzGmm55eJRVrS0PnugY/o/rzpxXqpPz7uEWoUQ/GF4/X+d3ZB3mENELQ+Q1fIcGTcNAxkwHbkVFIJ2VB3Q2CUfd4QfEysw8uhbOOPPCiWp6Qf2J77XzyhKDuu8feYVjEnFJZ6ZqlKx5lQcGgHFCqtPhxO0NCEFgeF68pa+HTYkDBUIjBgrQiobvvxz/+sb5grsFLZGAMLWOOocVMYgUp7oMWGcoa7ynHkzyGJuwdswoYsTJ07fBu8ZpigK0V2dcKNpwQy3M6cXyxat621jbZ/Mwa2fD4Cg32Z75JkJKVIoVHFOm8fXvdMXowHlOXH3FUTI1C3BWDp6izA+k59ega6FZiyDB2dFlTT2i0QdAsRm2g6gn1lmtFjtaPb42Tqo1l4Xq9/73s3duuDaA926pk4xMrpXT5Dh0QlemI6awPHqsLRKTlZ0jmqGxplXYpLy2XKRnF8vnTrpQR7Tk6cPb1117XmFqbzNwMPXGfTENHlz5g2/e+9z09BxvEvXo7MHAw+eCdEDMJUaLxhCMKvW5d95YOJiI9p4+vfU7Gjh+tq0Qxm8Sqexep9xRxpaGUNT5XV9Ij3ARZhZg26Wp6eyWzKEemvn2ezjzR7n6Te1JikmxycpfemiLXnvpJOW3csTrmhh4OHHHIKA425ialzlI2zGAAr4G30INM2Bo9hx/96Ec7vKGUC3yG43Hs4RElPIC6DmFlaXiW6EW+GdPCeBsacIQQ4qCjN/p3v/udEti+4JCf55QCJDFa3iaIZl4uCpXvvAyUK1PGcBzdtAxWgkgSU9iZkBL8C/HkReOVpeUAkaE1htfUplTgRdISu/zyy5WYorQHQvg9eg97PygsRuMz2pjYZJQXCs2/v9igHu2/tn62xCdh/Ct1HtPyVbukrQli6pQo/9pcq7uyQUftV64vU+LKyj2sdlJfWqdTSeVPH6nklLrk5zkdWsAo4T2hC5+eIYwShm+giamB60XOc5qSkSqpjmBmjMw6IEE+8Y4itxWrS9TwE2ZCvCkGP28qC0ak6tr7kIn6+gbJT8mVo0bNlm0rt8gvf/VLDflhNha6OvESof+xM9gCRixj2PHYsd4+SzviPfV6ZOBhZU3Z8w4gpnRv41ji/Rj5Gqh3gsy5q+23fGmyuw+mgiKUidWiiC21eOja7dVOT5arjLawYIkjovQ0MYXUpPNm6cImDCwFtrZ+UnuinDThaJk9dro+J8+OMw4vP7wFeaV38LnnntO523HYwWVoZF166aU62DsWZ4FswpNw+sGDOI/zIbfk9eyzz2o9oH5ARilv5B8PLuhLOR/S5JQXj7DhbSFAHIXBy4DB80mB0S0DAaGFcN555+kAKLqlCBaOJaS2Da8qXQJ4CWhlQFQZkQ8hJaGQ8LQRj8oLJh4VggP68lI8Bg7EkyILvGtTXMC/v9g4kJzm6Ch8FOqOlzdKfQnL8oU8GPwB5qBkRRRIqyZHRBmNikercO4YJaftza2enA5BYNTxmJD4ru91EOsJ1zxgEv7kJNkb52TOCDMxzJbcLTJ9Gd2npUu365y7eE4hs+NPm6prldszodOZzzQ/ObS2fmFqniMAjsy6P2QTJwd2gIQNwC5gXwjloieOnjNCwiDvlqfHwAN9jrxiu5FZYO9jIN9JNHKqdSghTuUutSDUtc8k+6xm1trUoiP26f5PzkjRgaPjT58qxWdOk2zXwOLYsErtIKfJjpye6MjptMJJSjIZtM1zw1WQVwb74lQjQVghkXhUIaZXXnmlzs0OguVi35FjGqbwGmQdmYdXkSdeU2YG4BnhSTj8cNAxkr8/eh4P+W59bp+uFDyleEnxZtpKEBQMrJ8WAt22tPr57OmoPGJKaSkQc0UcC60HrotSwuPGSG66+nmJfXkZHoMH3qd/d50jard+bahbPy4pXj2nWxesk9od1aJLlFKcqkzdl9C/fXDb8BYQdzX2pEm6fB+ktbm5xXfrD2GYuRisumL1NLJbPy09TYllVLhz4pMTpX5XjU4jVbmmREdDp43M1DlQ8UypiLr/cHToPKd06596pcwZMU3jSfGQEqeH5xTnBzYAYEswzNgB7AueI4+hAZNVMBjyGr1bf4xkZqRLO/fmbokG+h7XWCpdvksq15UoMUVeQ/HQ2a7RPkryphaqlz/4DDybdetn0K1/2iflwplnha7Z2qbkkZ5jHHZ4Om3pdsgrg8Lo5qfHkDCV7tg+GmNMt0fCE0v+kFW8tPSkEDZBfjTM8LaCvpb5sCCnFAKfFCBdL+YxZTsEEu8YCgRYgfWk4MgbAoxSgqjSGgG2Sgovw7q4PA4tmPx4dI2o5JTR+uMnqNeKGNOmmkb1inJ0Z6DEGeAf70gtXaqsGMW7aG7yMacesWH1NRY5jVmX3WZGRtN12uIIAYP3kD2IKbNL6CHu3P3JaWgqKQhGfFy86n/sC4aeWSUAHjqMMz1oGGofX+ph6JKcOiBzePdb6pq1i7+VcCi3j3lMGbGfnBMKN7HZTQzUgwPI6ayzuGgHIKOEnBArDjfiN40pnGjWW8j1u2MDOYbzkXu6+KkHkFO8wPArQiBt8HBXeXUXw2YqKQouWCj2WLaNTzump4VHXiQ7LzJv29fTfD08DiXEJKfhqaS0DjhD3+1qwIGu7tCFpfOdur+BnkrK49CC6doek1MHdql8QiBdPqjxvcgeX3T/geSUqaRa21q1C9XytuMNwe2enHoYukNOQyrVyXQCjSUnY46oKtx+9CJJBTVCrpG1WOQUeWQ/KVJm7TfoibzGyg8Et/E9eI2+YNjUJCtkCggSGkxWsMGYwp7ACjxW3r3N18NjOAGCSdc8XVPdSg3N7rNVg/49PA42nKoOxzqH5A5ZRX93BvR6UL9H6n+zAaC7ht7DowOIlZMt5jZFLlkggoQnlTj90DG94yzIYyzOAnoir53lZ3kG60l/YFjVJitAutjpYiHxvT8KrbO8PTw8HFwVCw1CcfWt24mTwud7eBxkoMdN7jq8VN2AnudSUP9b6m+j7HH4weSSgXokPKn9IVP9zYci8wvm2d/wzMrDw8PDw8PDw2PIwJNTDw8PDw8PDw+PIQNPTj08PDw8PDw8PIYMPDn18PDw8PDw8PAYMvDk1MPDw8PDw8PDY8hgSJBTpiGwFDk9Aam3iJZvX/KMzKs/7tHDY7BhMhyU7eC2/sB++fnq4jFQQNwCshdM7r/wQT1DMI/IukLy8OgtImVJ5YnUA0TLozupK0Q7J1rqLwwqOe3pw/Tng3cXPb3mYNyjh8dQBtOWxDPdCCkxMNG0h8dBhE7PkxCWPSd3pITwJ6tCMV2POyh8dOfoTK97ne/RL1A9GR8hp05fMq3UYagzB22FKLssq3pUV1fLzp07daktWxOfubNYFrSoqEiXxkpJSdHju5qfy/JluVGWMd22bZvmy8ofzMmVl5enebLknOUZC5YXnyxZynqyrNvP8nXkzz2yZBdL15FYGgz0dg4xD4+BAjKNnCLXyDSyjVxTT5izjrrHMnfUlbS0tJBMh8U61gpRUeGqUHNdk9Tv3qPXZKL+5KwUSS/MVMUbhKMSfoUoj05hctvpClFO5iCl7S3t0lzbKE3VjdJS3+x+t7ocHAFITpCk9CRdHjIpK9XJe0iwOfeAFaKK5mq+tkIUy0BSX4LLmGJXWLM8Pz9fxowZo0tmYxv0XjwOWzht1/UKUQYnKqwG1VRZL40useY+hySkhJYxTc1Ll8S0JD3OegOirRBVXVUtW902OFV35x4lL3jR1KlTJTk5Obx1H5B/5H39+vWdrsJGPiyJSj7wIqurvcWgkVO6Q2pra2XTpk3y2muvyYsvvigrVqzQis8DQRyLi4vlpJNOklNPPVXmzZunhJJK3xl4HBTI2rVr5ZVXXpEXXnhBli9frtsouOnTp8uJJ56oec6ZM0dfCteLVojkhbJiLdlFixZpfkuWLJEtW7bo2v28yEmTJslRRx0lp512mn5CpFFWHh5DFcg1KZpcY3BZL5m6N3fuXDnzzDPlmGOO0cZXUnKS1pNuk1N3LGuZ73x9k2z+zxpdCWqvO7f4zGky/rSpSgzciSGFy+Huz5NTj86A3CKDMckpwuT+scJO5bpSqVhTIlUbSqVut2t47WlyGYiuV55emCV5Uwpl9LHjJXt8fsiTirzGIKc0qjD6b7zxhrz++uuyevVqdXxAArAr1A9sywknnCDnnXee/vYE9fBGd8kpX1tcI6pybYmULNkm5atKdJ19ZC7FyWrupBFSOHesFMweLRmjs1WmqAeR5PSiWWfLwoUL5c9//rMsW7asS65kID+4y9e//nVtYPHbrgGwCQsWLJBbbrlFGhsbo5JejqeeYDeuvfZamT9/vv7u7j1Ew6CQUy6J5/G5556T3/3ud/LUU09pAfDQED4+URKqFNyxPOgnP/lJufTSS7VlyjYKIxJsx/P6/PPPy+9//3t54okn1NhFgnMhvZ/61Kfk4osv1hcSWeDkxT2sWbNG7rzzTrn77rtl8+bN4b0HYtasWXqP73//+2Xs2LF6fndbLh4eAwXkkobh9u3b5Y9//KPcfvvt2kCMhdGjR8vVV18tH/nIR2TChAmqbFqdwu2SnLrq2d7cJrsXb5Pld7wqFWtLqXiSNTZHjv3iWVIwa7QSAsgCx4ZO8eTUo3OY7u/Mc0qDaNOza2TDY8ukdmd1aH1yB7UZ7h9GHySkJMqcDx0n094xTxJTQx4jJadl+6+t39LSoo4TbMo///lP7YkD5IeOtzrFd3obsBXHH3+8Olg4Rq/rcdihO+SUj8bKOtny3FpZ+9BSaSh1pDS8Lwg8p2NPnCTT3j5PciaP0EZ+NHL69NNPy/XXX68Oh+4A2YRznXzyyXLHHXcovzKZRaYBtgLC+//+3/+Lem8GzjniiCPkl7/8pZx99tkdvcu9lf8BZ0+mXDCIt956qzz44INKTPE2FhQUaMvz9NNPV48kLVIeDq8OrP2xxx5TBRQNFpj+8ssvy29+8xt5+OGH1dChMOiWpKuFbndj8hz361//Wv71r3/pecFCt3vcuHGj/PznP9f7xKvEPXJPdOGQyJf8SKtWrdIXSH4oOMvHw2OowOSccJcf/vCH8tvf/lYbXMgvhtTkmnqCrFMHdu3apXXgmWee0d6HbsEZf5biq95SIZueXKnElLwSUxNl9oePlcK5YyQ+ydVDqoe32x79ANO1bY2tsuq+xfLWn1+Wmq2VumY5jSCIaEpumqQVZDg5TNJEaMnoY4olwX2HSKgsmjxqXQmFh63fsE4++9nPyp/+9CcpLy/X+oIdwKmBIwIvKfUmKytLvaYYaE9MPToDDSR0ZGtji2x/cYO89ddXpL4kpF+R10Qnr8goepIQlabqBiWwy+54TXsFiE1VhOXeAN8x3c13esGQTfiP6Xd4C8ew3/gL3fCQ1GjySt2yxhf7OR4bYfla4jf1Ioi+yP+Ak1Mjkc8++6x2jdhD021/0003qZfyL3/5i9x///3qhbRud4gihNK8PMbqAd85prS0VMnhq6++2vGSpkyZoob4oYceUtJ65JFHdryEpUuXygMPPCArV67syCcIlM24ceMkNzdXf5PXt771Lb038rvxxhv1vhEA8lu3bp289NJL2v3D78j8PDyGAlAg48ePV7lG0dAd+cUvflH+8Y9/aGPx5ptvllNOOUWPZT/hN/Ru0IughDJCIQaB0k1ITpT6XTWy+enVsv3VzRKHsk1PkikXz5HiM6ahsUJ5eLvt0Q9QUXIyhextf2WjrH1gsezFW+rkKzkjVcNIjv/KOXLa9y+RU793saa5l58oM949X/KmjwxnEvrogMsP8cRL+tOf/p+8+eabHfp82rRp8rWvfU3uuecetQOkv//973LNNddolyaG2sMjFlR9xiOvbVK9vlS2Pr9W2lvadOAT3Kjo5Ckqryd/+0KZctFcSct38uTOaW9ulfLVu2TT046vqMy7fCJ0KPXASCck9O1vf7vcdddd6qxDTvn8v//7P/WUAo6FD+EUhFxaIy8IxiXgpLCeCRpfOOwsP9IjjzyiCYcfIQKAe+gLBsVzCiCblZWV+p3BF3SDUJC4lSGkM2bMUHJqbma6Vhi0QSGBYCHad0gpSgQPD4U+c+ZM+c53viOf+MQn9GW8733vc4rmp3LccccpcaWwIaZ4hYDlo4rOfadF/JWvfEV+9atfyfe//335yU9+ogqI+FKM9wc+8AH5/Oc/r4aeF0ErO9Y9engMNkxx0epFjmkMfvvb35b//d//la9+9atyzjnnaCz2O9/5Tm3Q0UVpIIabeHA8TLHEGnmHiDbXNylJ2PH6ZmmnaycxQQpmjpZpbz9CvQV7CQHwdcOjX4AHKiR7e7ZVyaanVkqbM/TtjqgmZ6XKrPcfLXM/coLGOOfPGKVxpiPnjZUpF8yS8WdN0+5RRcDII5nxrq60trTK8iXL5b777lNbgX4nHOzHP/6xfOELX1CbwrgFHB5ve9vb5Mtf/rLGaZtXivrm4XEAnKwmOCLavKdZylbs0p4llRe3q/jM6TLvihNk3KlTZcxxxTL7g8fI5IvmqNefxlFLbbNseXaNtDgdC0JNqH2AJzEeBnmlTjBOB76D3MJZkFlIKD0Aqq+djE6cOFG5V6wB4sg9eQKOx6kBmSUv8iUxjodEXcALa8f2BQNOTg0QUgqDAqIbnK5GgssheXgiSZA8AnCtxUqhcl4QnM+LpQufIGCC1ClMCpDCopuFc1AYnE9BnnXWWRpLR754W4knstFtdi0Klnuh6wbFQzwpcRTky31zLPlBTGmhcB8kO9fDY6gC+aQBSPgMcdfINSE1eFSpd3h+CGxHvk2W+exSrvUYkd0Lt8q2F9dLQ6lrJDolTBD/tHccIVnj8/SY+ITE8DQ+4fM8PPoCJ1PEldZsqZTy1btD0+44XTzqyHEy/oypkj2RuOW90tbQrN7VxPRkSc5Jk6S0ZJEwN90fIZuCTfjPM89I7Z5atQt4mIi9xihjFwC2hjpDg49t2Bmv/z06hZMPuEK904/Vm8qlrbkVkZPk7BQpdvKaMcpxHPWs7tVY01FHFmnjnmPwsBJHXbm+rINvBIEMMoDViChOPuvGR06ZFQkHHs5B5BRdz3GMsAdBPW+cBg7GaH1AvSCUBU5FvtgMS/Ci/pT/ASenPByg8OhOpMAgloyAxIPDII17771XXc/EcJoXkhhUvKt0swPLh8KjMIhbhZjyCSCRvBiMLoqF4zkWg4tHFa8Q5+GyphueoF9+B1+4FTLd+3hR+TTYPogt1zTlxWh98zjZMR4eQxHUBZNrq0/AGnooJKsPkydP1lY4LfWoYu0OS0hKkIrVJbL5uTU6UpqpfIjrm3DWdBk1f5w0lNdJQ0mt1O+u0Rgq7Xr18OgjEEdi9+pLanTKKGSWmL38maNkz/ZqHWiy7PbX5K3bX9WYvTUPLJGyZTtC50aZP1JF3gk5g2uXLl0S3rZX7RWGmdAtetO+973v6SAR7Bbd+oScRdoQD49IoD8hno2VDY6g1oY2OvULEcW7r7zB7ecYDk5zOjSrKOSNpOeqtanVkdPSDjkLShskk/hoennp7X3Xu96lDSf0O4mBUnAtPKFcB/3PoHALdYzGWfDG2hSfgCmlCP2iF5pxC/A1Zn2BB8XKozcYcHJqN477l+5DukUgdhBLRkLS1fiLX/xCYxqYtoNCwctJIVOI5jmNLADi4ogPguWzD1ZPK4IXEiSnJAgkBpnjcH8TXmAjMKMpluC12M9v8uP+Hn300Y5WBd4m4i24X47jGA+PoQrk2GTb5B5PELHTxH1Tp6g71BUak4zWVyYQqA8AJUoQPwH9m59Z7Qz/TiUJzGdaOLdIxp02VeJTEmTz06tk+d9fU4JAnFVDRV04g9CHh0dvgPgwL6Qaen6QnIxWri11RHSxrL5/sWx8cqWTzTWy8YkVSk5X3v2mbHEySAhAEFQDxLutzREAZxd27y4J7wmBkfiMNcA+/fWvf9URzrfddpvccMMNSgjwSmHMo9kRDw+FEzB0Zkttk84sYdsS05KVoJpCVN3svialJ0tKbmgOdYU7F10bOUEKxJUudcbBoK/pJcapQA8wecFxIKeEaCGfOCdmz56tTj9gtsBg9oGebXgY4DxCIW+//XadaQlyCl8jDIwxPRBfbAbH9bUODBo55YF5CAMVmjgIRg9TeIyOh2jaA1p3P59B2H6OxZiSD9eAGOJiBnaMfUJcraXANu6F8zuD3TfgeOYTg0jzMnhxEGG6R+kqNQ9r8BwPj6GIoIxSB5gTGKPLlCTUDbpqLrjgAo2zxnN6AKhTToswKnrbC+tk5xtbpKmqIey5Gi3FZ02XnAl57jiR0mXbdcTp5mfXKIFtrW/pmF+SPw+P3mGvdo02dRh6Ry4d6dy1cIvsXrRNGivqw2Eke/WYmi0VsvN1Z2ceXKL725r3J6hxcfFqRyCnwVg7HCgM+kDnM67Bev2wVZBSBhRiE7BfZt/M5nh47AcnF21NrdqoAmg/vPg6i4n+2ic3bGO2iRDgLKHGWOhn1/JlMghnYeYjwlWQZ8bzMM6A3mUQtAWcw+9IfsQ2eBZzZNNTAFGF8DIoCrL6hz/8QRYvXqzH9hUDTk55WLwzzHHKqHdGAEMiKShiQd/73vfKBz/4QTn//POV9RPLQFwo00gxEt+8lJGV3sireSvZb+TXCt0+uT4eU8A2zjUiGwt2PYgo3Tq0nrl/lBStlXPPPVcHXNESIU/vNfU4FGByjcJBeRFWw4wZxIBTn8444wyNtyZEhnrSUe/40K+OVjqlSjfpZkc8iaPimNT8DCmYNUqyxuVIQ3m9EoSWBlfvGKzS2iYtjS3SWN2gq6FoVyx1dZ9u9PDoPlQW3X9h0UT/7nWNpTYnYzSMxp0+VSZfOEcmnjNTCueMkaSMZI1RZSDK+keWSmNVfeg8/T/0SVZBckmekFUaawwa/NjHPiZXXXWV2it6/6gb1CFG8DO/NnaBczvqi4fHfnB6M8El1zgHKiVOBba3mbzsU4Z4WZFnAzRG54gGew9UmiZ3JONA8Bbmf6dLnu3wKsIbIafGi4Jgm20Pjt/BUXHhhRfqJ2Nx8LoSGsB1rPFGIw1C21cMKIOygmLUL1M40S1Oy5QYTbrsmTyW0fVM14Sb+PLLL9flEwExcJBTPDsgknjS3Y9nh0JnH4WDsuBFcIwdDyC4vCy2QSI5lwEiINqLIg/AOaxmRbwRL4DWNV5SXvCnP/1pdaPjkbXjPTyGMpBTEnJNXWSScbymdP9Qj1A8zFaBXNMFpAhUj73UFZeaqhpl3aPL1CMF8eQYWvp4ULcsWCfr/7VMu1WZYNpdUM+tK9kj21/aIJueWiVlK3dKa2NrqO75uuPRQyA2xDtDOkO/Q4aVgXhT336EzP7gsTLjPfNl1geOkenvPlLyp40M6WiXWCSibmd1yPgjzu589iUlJKpdSE3df9lsVkz70pe+JNddd53OcPGNb3xDrrjiCnWuADyp//nPf7QX0ODtgcf+cJzEMa+kzBRdASq8ST34rBTltHJoQzjRw9S8J9wrgCw5WUzNT1e5B+GPDpj8k5A9OA7TduLxR7ezndBD9DtjeTqTT87FMcEUacRWw8tIxLP+4Ac/kG9+85tKVK1XjfyffPJJ5XigL7I/4OSUgsFbumHDho6gXB7+sssu065DBjxRcKwKxchIWqUYSh4SZs5k94DzDOyDJMLgzYgSnMtAJ5QFBcwxnIPHlGvbVAq0hDnP4kQjYdsw4ExVhceUOFO8StwXyooXR8uCvKLl4eExFEF9pA7SJWmr3zBAkAB65rJjwAdhKoTBGJzKC38LK0Un71XrS52R36rdVKGtcVK7vUo2PrFSlt/xmqy46w1Z6RKDUzTI32HPlkrZ8O8VsvKehdrFivcUT4KvPR49RyheL31EZsguuH/oYUY4jz1homSNydZZI1Jy0qRw3ljdxnHIIp78+t17wl37Idlm9R560ujuzM/bf4Uy7BTxfDgzsAEYdzxKRx99dId9Y3At9gVbo/fj4REESs7pOpbRTSHGNCyvTTUNqiP3yXBIIpuq6qVuV2igN8BrypK77sDwlugwLoIcsow7I/Rtdgk4Fz0AePxNbqOB7YzoZ6AVMo5dYLwQ/IzppBgLxJSabOd6XIuwAfPQ9gUDSk7tZiF6kEb7DamDVFJIeDwt4YW02FDAg7Od35GEk/MZTWmj8OmCoZuSmAhTEuRvUykwCwDbcFnbKEzyI19D8H5xibNSDm5rziNBTDHgTN3AC7fjPTyGMpBT6gSKigYXPQFMqEydpB7RoibIHWKKXCPrByIs687A06rXOkHMlFO6JKBd9dQJdwzzTur3MLgHvQ9HaFnVZ1/d6VzhenhEA4NGGNGckJzg5C20zSY1x5uPZ5SufGKj2d7RyHIf2rUaEDu+Io0Y5SOOPEJ/YzuAhX9Z/aH3DGCnANfjGFL0euNxuANVFx+fIOmFWZJdlBeaMcJtJMRp95tbVE6ZDxo9SkOpZluljs4HyC5znhYwql9nmtinUyOBLEI+aSix6BHhkcgtDSsGbuP445jO5JT99DTjUKQnGv5FHtQH5N/4WDAsku/mJOwLBpScGvFjblAKyAgm3lAGYGAc8UZCVklMjv/WW29pMC7HoiwYeMQ5FIwaxHACeC+J+URRUGi4sZnqg5WliAEiNABXNN0ueIg4jwlomeeLPIMvypQR1ya2lHxwV7OfeyMmFvc23Tm0FBAAEi/Swgk8PIYqUFrExhFCQzw39YXeB1rThNcw4pMummCiDlHvVCFSTUiuSmeOzZHxp03RwU+xUtFJk3RSdFeBuLxkjMyWscdNkEnnzpTCI4okMS0pRBx0r4dH96F62xHMzKJcyZs6QnU3hrtkyTad5Jw4Pgw6y+fW7azRcBLV707YmOs0c0yODuDrMPRORvGq5uXmyXnnnt9h/tH9rLbDbBbUH+wAdoRpdBiHYAaalQSZEcZ+m03x8DDQWErNSZX8GSOdLsxS0Wvf2y5rH1kqax9aokvvMvXelv+sCYVMba3SnqUkpyfHHjdR0kZkqK7sDsvAawqPMs6DF5SJ+eFg1IOgQ87AduoVTj5WDSR0hVCWxx9/XL2i8Bz4zn//+1+dscJW5YR70QtNPGu0fHuCOHcD3Xm+fgMPDQn90Y9+pNMR0AVCJaYyw+bxYlLp6ZKHVOLphCDStchAKQqIrhTyQUEYeAwMJ4M5GDHJqDQKh7wgkHhGKVBCA3hJsH/iWRnsQVxdkOlbkZAfU4ewrj9eWK5p1+UeiLPgN+BanEeXKDGoV199tcYssc0rJ4+hAuQVWUXJ4PWnnuD9QU5RLIS4EFpjch2U3Ysuuki7NSdMmiALty2Vm178s6yv2yoTisZLa2NzWFEGZX2faqnbvUde/+UzOuk0hr/oxEkaB5gzeYQSiYSkRP1samySrdt2yBnFJ8h1Z39OCjP271b1OLxh+nRd2Sa56YU/ycKyZTKisEDSMtKkub5ZZ4xYdMsCaW1oVXlKH52tq0KlO2Pe0tAsVRvLpXpDmext3atjSSafO0vmXn6CpOSlOcmNk+amZikvq5DJGcVyzSlXyCjJk+u/+x258/Y7tE5gJ/A44QRBv2O/sA2MXGY/+p/pdZgmkf3cq9f/hyeIHW1rb1O5+s7jv5DH1z4nY8ePkcyMdJUVvKDoxTX3L5Y1Dy5R1YnM0mBiIv64xDgdSMoME+pNdftzJhXIcV862zXCCiXB/W3askUy2lLl2tM+KRfOOktVblDeqC8f/ehHdbwOoY7woY9//OMaN41jjv1BHgXYRgIvvvii9qJxPo5DBn/TOw0f4xhWxCTB0fiN7YD7sLwvdqYvsp/w/3AJDjCMjMLKmYYDjwxd5xBHBjzREmVye9zQNugITyWFTGwDhRmt0lMYGFc+mZKK8yGYeDbpxsf7Q4wdggFZZXlU4lotmD2YH98hsbSUWVec++M8XgDElnsmT8gziakV+ORF8WyMZLNYvb68IA+P/gQyTP2gYUhXD6PyTRkh13j9kWHkOSjfJHo8aECOcMppZ81ueW3rYqlsqZF81wKPS4rXQSn7pcTQJ1OhtDW06NymjNCHnGaPz5NRR49XDypdWKqY3R/3UFOzRybmjJNTJx0vGcn74l09PAD6tKK+Sl7dskh21pdKuiOmSYlJIS++I6OJqcmuEVShE/O31DXrnJA0imo2V0h9Wa20N7fpgL0xxxTLrA8cLekjQ3NekyATDfUNkpeULccXHyWTR06Q2XNmS1VllXqMsAPYEaaLoieO7k5+U3/o1fviF7+oDTjrGfS6//AGcoFee3bdy7KuYpNk5WRJcnJSqNnu/ktITZS0/HRp3tMktTtqdGES4p/53VjVoPILMSVcJW/KCB3QN+qo8apDE5x8VTnCmdyeKCdOOFqmFU7SayJzXBfuxDRPzMELF0L34/xjhgl6i+FRkcTUQB5wJ/gYdsKm9sQ+4DE1mwCHsxBNnH3kzSwWyL/l01sMODm1m4WBU1A8ECQOwkrXIpWfT37DwgnCxWP6oQ99SA0jLVPyiHxo+03LlsnCmYaKYzF2FDKJ6+DxZOAVrYf3vOc9+tvIbhD85j5oFWOoyYsCJ0aVRKs4mHgeSDRB9Nwn8Xq0NCwvD4+hAuSRWSfw+tCSNrnmEzmOlG1L1MVjjz1WCkbkO3Ja4sjpIiWneTm56iWIjtB25uUrX7lLlS/xgXizCmaNllQml+YQV0U8OfXoDpDfA8gpBt8ZyITkRG34pBVk6HcGQmHsQ4P1RFJz0iTXyR5hJlMvmSe5EwvUWwXIF/lTcpqcKydMmC9FeWO0bsyeFfKUYl8w8jg5MNboeBpthJQxvRR2CscH9svrfY9OyakDspecnapyGJpo32nSds7DUxonKW5fjts39oRJOh3aaNegik9yrTCIbXxCTHIKII10yUMwkVv0+yWXXKKJrneOiyajto3GFTIPD6OXGH5DPjwT9QTeRIOMMAHCwZB9uBr8K1bePcGAd+sb7LJ4aRhFhqEk4eUEGE0qOQVDDA8e0eDgqK5APsQG0dolRADGDzlFkeDOpkAhkpZftHxpeUBObVJljrH7jjze9jGABGKMEbcgeQ+PoQJkFFllUCBeH5sxw7ZHwraxf+q0qTJn9hzJzs2WN7e9JTf994/arT+peILGS3UGRuOXvrVdmqobtdVPnF/u5IJQHGoYKHEUqu/W94gFk9N93frLZURhvqSlp6nBZB8GH3mr212j3ihWjmqpa9LtjNjHu5o5LlfS8jPUAFvDinPR8+WloW79z596hRxdNE9lG9mkN47ePeyVdWXitMDQm0PEeu48PJCrmN36To47gIp1P9GNNVvKZc+2KmnaE9KTyZkpKq9Z42hwZaqnlQY+edNbsMlxm4zWlAO69akn8BcGciOz/Ab0PM+aNUtJZnfAedarjafUvKa2TDzODONprJBJXegvDBo5BVzaLo9n00aDAVg5BQjBC3aP2GdXsC548rWBHOQJ+4dAmgLpLD/O5354yT0B+feESHt4DDRMrntS/fEGqYfKfV+0/S254YU/dJucclIbc6A6hQsgCgxiCdYRT049ugLyisx0Rk45xlYea2tqk9bmVmfQmX+X2OYESUhJcPsTpL0lLLNhEeT4aOQUghEft292GMK9aNRxPeoETg+S1SVPTj1At8kpUJlNUELa2tDsdKW6T3UbA/ni2McE/Zzn5BVZ64ychrLcq5wK2DacfvCTnoB8TLbhUda7DeA58DTL067THxjUWhR8EB4OtzMtTxJuZCp8sKL35ME5lsTLwENqedINY/l0lZ+dT+H3JHli6jHUgYzi9Ykmv7ESdYGupBB6KN/u8MTkRB2VT6LL1dcRj4MB5Io4PbrzGeGM94k1y+nSR/YQxtC8pvq1WwjKKvUGm8LYAro1PTH16DOcfDHnLuQ0MT1ZUnPTVGaTWFgCeXb7nJB1W14BMoszjlmOTIf3lJhGArtBmAuyT+I7eQYJbH9h0GsSldkqtD1gMNn+nhoyjuc88gDBz57kZ+d5eAwn9EauXY3Uv96CeU+ZLoqEEvbwOFhAv+OdR86Z5xTDj+del4d0/9jX0/aV2SlAvpaA2RsPj95CZdIB/ajy6hLfQW/kFUTq+cjf3YHJdiSfsgRsf39iyNSmYAEEU1+hSiqct33vCeycniYPj6GMaDLbndQnBPPxVcRjABCU3VBiY2hfb2D5BG2UbfPw6DNQjWF56g+5isyrv/KLlP+DAd/U8/Dw8PDw8PDwGDLw5NTDw8PDw8PDw2PIwJNTDw8PDw8PDw+PIQNPTj08PDw8PDw8PIYMhi05ZRQZc53afKc2qqy/YHkejLw9PAYb/SLfnNdV8vDoLyBO0WSs0xQ6tbugLgTtiodHv0DFsf/4RFBO+1NW7f4s34OJYUtObVRZtJFk/fGigvlHu4aHx6EK6kef5NsdrpPsJ8R3nXzV8egnMKdpVBmLlZio353TGZwp5r/9bEa0OtEfNsXj8AVymJCUGEqJCapDFT0RKxXV0AlB3R1NXnsLyycyz4Mh/8OGnFI4VkAw+qqqKl2ecfHixbJ06VLZsmWLLjfHMRRqXwqTlUFKS0t1GS8SS9mxYoiHx6EO6gX1p7KyUnbs2CG7du3ST1YaYW5Sp5LCR8YGK+801zRKY0V956myXlobQ2uee3j0BUy6z/KPjRV1B8pZrFReL817mjqfc9ftsvkn0fvo+2XLlsmSJUt0GdPIFXg8PLoLRAbZQueiCyvXl0rl2hKp3Vkt7SwgQQM/LHtdwfgM+hk5hf+sWrVKl6lGXuErrO4Eesp97HjsAsvCr1y5UhYtWqT5YyeCK7P1NO/OMKjLl/YneAwIIgqDQmNdfQgpyoNlS1nRgzX158yZI7Nnz9bfPZmjy4oJgrt69Wp55JFHdKlFwHq1p556qowZM8YrKY9DFsg4Cmz79u3y4IMPSllZmW5Dri+44AKZNGmS1qXW9jZZtH2Z3PDCbQcsX4r8V28ul7JlO6W+dE9IA8cAHoJRx4yX/Bmj9DdHNjU1++VLPWICeUTG9lu+dGS+tO9xcvvyBmlw5BSZiyV1qHHdp//tleziAhlz3ARdiYd8I5cvPWrsXGly29atXasGGYcHBJV6woqGrKePTZk3b56uQGjwdsADL2ZbJ8uXtjW1St3uGqnaUCY1Wyqdvgw5AJKzUySrKFdyJ4+Q7PF5kpyVqrmFhVZBPbDlS9NZvvTUT8g5k0+Rbdu3yVtL31KOAv9h6XZWMGPte+M/U6dOlezs7G7JKNdhmWucFDTIVqxYIRs2bFAexEpp48ePVz6F/POd1aL6S/YPeXJqtw+jf/XVV+Wxxx6TZ599Vkkq5NH2Q0RZxuuEE06Qd7/73XLeeedpYXaXoNJqQCGR78033yx/+MMfdBsK6Utf+pJcdtllUlRUpMd6xeRxqIF6gjzTC3DvvffKj3/8Y20VQ0avuOIK+cIXviDTpk93si1O4bbHJKccsOXZNbL2oSVSub4soE4DCG9kCdN5V5woUy6Zxw3oZk9OPToDcop+7SCn5aG19es2VsvCW55XQ48MHiB3boOagrC1UxXt0pjjJ8n8T50i6YWZmm+zk7/yshA5veaUK2R6zkR54cUX5KEHH5LH//24lJSUqLEG2A6WbzzyyCPlXe96l1xyySVqU8jH2wCP6OR0tPKQxpoGKV+5S7a9uF5KlmyXhnJHTFm9DDjZSUpPloKZo2TsSZNk9FHjJWN0tuZnkk09UHLqCGh6e5p87riPyri2EfLgAw8qB4KcwlfQ6ehwEsuN4kS79NJL5bTTTutoTMWSVa5RX1+veT366KPqkMMLS75WD1nOdNasWXLhhReq/FMXWOYa9LUODItufQrqpZdekl/84hfypz/9SQuQFjBryaI8+KRAMbZPPPGEHvfUU09JTU2NnkvqDLa/vLxcnn76abnrrrvUS8v2s846S84991xdux94peRxqMHqAK1s6tFtt92mJBUjPHfuXPnwhz+sre7QwaGPmHD5tNQ3S0tDi64H3U4oQGK8JLCefmo4pYRSfJJTP9SXcP3y8Og1nAzRta+JdcidXCWkJu6TOZJrDGHbdTnT8LEgmsqOdxtbnfwvXrhYvnP9d+SPf/ijeqKoE9gT1iyHnNJd+swzz8gPfvAD+etf/xoKf/Hy7BETcbqMc9myHbLqnwtl4xMrpW6X4yGteyXRyWhSRopyiObaRtn5+mY9ZsuCddJU0yhxTt4igagluO3I5t/u+Jvccsst6uGElMJJ8JIWFxcrYdy2bZv8/e9/l1/+8pfKYyCeoTwOlFe2kQc9BTjifvazn2mIAA4/CGlOTo5+4kFduHChOux+85vfaJe/2ZO+IuH/OYS/H3KgAPRFOiL6xz/+UV588UX1oOLG5qWcfPLJcuyxx6pHs6KiQguSFgQkMzU1VaZNm6bubssnGqygeZELFvz/9s4DPq7i2v/H0qp3WZLVrOLeK7YxBmx6KAFCTQjwaIEkkJAePn9CeuG9l7yQ5L2XhAAhBEhCD+GBIcHYGGww4IIb7pJl2bK61ctK/s/37I68XlbNEoksz88edvfuvbPm3t+c85szZ2Zel5/+9KdSVFSkholw9ve+9z114B6PR+tw4tTheILlN503hi1/85vfyBtvvKHthJ7197//fW1HtCnltvnL+WX15fLW3rVS014nKUnJvl69+Z5hKSIBRAXaG1slKjFaRk4YJWnTsnSIKik/VUtinnktTJN0czxuVKL+W4gKkL9UV1cvBUm5cmrhfImLjNHvHBws4Fl1U628vXedHGiukNi4GGmvMc783WJpqWlWtZlUMFIyZuR0DY0mG65Fp8SIt9l0nJraJYzJU8aG5ywslIyZuRIeEa71EunC1qdFpUhuWIY8+cDj8uLSl9TeY+PppNEerM0nwIH/aWxs1KAI/gYxQPtxvsABW4lde23natlRVSQpaUnSdKBBdjy/Ucre3avnhHnCJTYtTnkIX7mmo9mrtpSc6Pb6FolKjpGUsWmmZ2VEn59XdKAaGhsMp71S/MY2eeeV1VK6v1Rt9aRJk+TWW2+Va665RqOkcJGOFEE1RCqBCPQPkX4QyFV+HxDMe+KJJ9QncD58J9i3cOFCOfnkkzU1gPrgP6+MKiBo+X4woqfHtTjlf1wfvnmdPXu2qnlu6Omnny4//OEP5eabb9Zw84UXXqg5EUSFMCbcQMQp4pKCIbH1BIPjFBz3b3/7W1mxYoWez/X0QKzj7mt6gIPDUAO8LS4ulkcffVT++Mc/KpfhN8btxhtv1EgR59jkfNpDSHFqvicadXBtiVRvOyjelnaJz06S8RfPkMlXzZGMWbmSPS9fsuYVmJInmXPzVJjaduPEqUNfAF9CitM1RpxWN+r3BWdNlKmfnic5p4zRnNLMk0aLJ8ojNTuNg+Ycw1Vy+eBlYm5KV7100hjaj2wNl7ptlfLsI09JY0uTdHg71Ifce++9cvvtt2tq2Jw5c9Qpb968WdsE1xIcOe+887T9aJvxc9vhxITqCvNn2c5VsrO6WBKTE6XszSLZt2q3tDe0qjBNNJ11UksmXTFHsufnyyhjJxvK6qWpolEOd3SqQA3zhJmOfI54YiKMQPXVTeeqpbVVKvaVywfLNsiBbfv0OHnQpBrC0wkTJmhH6swzz9S5BOSL0pFCbBL5RCvxqv/OIK6+9dZbOkpMpwufgDD96le/Kj/60Y+U/+gqtBR1wns6dQQA582bpx00vuO6Y8VxP6zPDUUskk/xmc98RsPWCFPEKgm7KHiGYJjQMWvWLDUagBvJEAzOsDtwc6kfx/3MM8/I0qVL9TP13nLLLTqcT/2cR+EBOzgcL7AGiXbw/PPPy5/+9Cd1sBgresZf+tKXlOuc47vA99IT1Em3eqWDoVUDhlKjU2IlMjFaohKi1LhiaDHKvPZ1NqqDQ38Ar4iGwjE4521u1xzo+pIaFQvwb9TMHEmZkKGctbabNJTwcI9GmZYte1XKKg6qbadN4PAXLVqkTho/MnfuXE154RjX40veeecdnZDL8H9gvQ4nOAyvPFHh0lBaq6NKLVWNak/JdS48d5LkLhrbtcRZ0pg0mXjZTEkuTPXxytjSupJaqdi0X+3pUZwyQrW9usUI3TblH9HNsWPH6pwaeEtUE8FInisiNT09XS9jsiuik9dgYO+p691339WhfECAYsmSJdoGmEzOxCdG1q677jo5++yzNUDHNURPSRngtwciTMFxL04DgVDMzs5WocqN4SFa4Yix4UHgfDlOSBoj013UlGs4xpIMTz/9tE4S4SHzEObPny933nmnil7IwG9RgutwcBiqgPMUDAoJ9E8++aTmmWJ0MG7f/OY31ZDBb9qI5Td/eoIORdU16/ApIP+PWfsH15VI5ZYyaa5slDBjgMMjw3tdY9LBoVfgp00hQj/p6rky5/bFppwuOScXSpgRp3pKx2EVplUfHNSOk0ZN46Mka36Bvppm0IUw853PyVbInuJiXZkibESYDuczVIqTBtb5khbGai2A9oFzZgKJnZNAcXAA8JGJUCwbpZ13o75Ie0rKS9VOVKfhnXLG8JXZ+jEj4yTcg43EprboElPh5ryjlj4zX4dFImrNG/MXXqJZSkpKlJ/Yc3QRNpzURoJy8JTfIdpJ4C0Qlq+cSx2MRHOMUWl0D3Xx2WodIqT4C/QUx4nIMqOf3FT7O8eKYSNO7c2yjjQQ9B5wvjt27FDDw7mEuwl/h7qBfKZw7iuvvKJRJULi1M2D+NznPqdGiVUBfv7zn+tQzyOPPKLLVzk4HA+wnS9SXWgbDE3ymfzsa6+9VodmaC8kwv/4xz/WhPf3N26UdtO5A6GMjrYlr28SFIYSEcDyKDv++r6s/+0bsv53b8q7v1ou79z3mk4EaCpvwO46OAwYUUkxkr2gQArPnSwF50yW5HHpGh2Fk+1NrUaYluk6kjh2hEBCboqMmptnRALtwO8/oK15ZcJU46EGaa5r1M4Yx3DCBD2Cl8rBKeMLOA4IfjAnIXClGAcHSIbobK2h495ueGg6N6aTDm8ZWers8Nlj/vAdE/iYoR/BMlKGRt7WdmmuapS2pjafEPVT6/DhTolJipXkkSkSG23qMddit5nExBrvDOETmHvsscdUy/Ded91hHTFDgIYCgQobzAOMoKGZ9N/oL9RB8IKlBglkcIxOGcP8tnM2EAyryKkFN8m+8nBYBoEZyPQoEJz0gMnBYNKUPS8YCNw1a9ZoxHSjccpcR1SWXAvyNPjMBCxE6f3336/R1V27dunD5DsHh6EKjAb8ZoYnQ/nwmHaSmpqqq0+w1AjOls4WRo22A883b94kbcbpwm+M4lHADplm1FJrjK8xoJoXZY4xKepQUZVUbT2ow1lla0ukZOVO+eDJdbLtqXWaA3gEAzNmDicudBg/Klw80R4trAQBmxCidXurpWZ7uUafQER8lGTMypGYtDgVAkfDJyI6W7zS2coyQD7/gHNmKN8GPqzPoJ0wmoaTpl1RmNfgfIBDMA57O6WtwdjPNsMNtZcjNJpKCRZyGvWMjfStMGEAJzta2jWPf8SIIxxsa/caYZoqixcvlunTpmk96JwXX3xRvv71r2uq4+c//3mdyI1YDRSNpJ4Q6QxEIIcDV56A36QGhAJtgwLQP9RpRe1AMOzEqb25gF4CuaK/+MUvuvKA6AF/6lOf0hlsDMvzgAPFqb2WXXFIBsZx86BYloG81U9+8pPqxLnG9jwIjTOcY0PZgfU5OAw1wE9SVGgb5AfBXYYryZ1jAhSL7VsOs+A4/GbkoL2tXZ0xS5eEh/mM5lHw29fYjARJHpvmK2PSJCl/pCTmpegwVacxpm31LVK7p1L2rtihC6cTXSWK4G96Dg79h+EODpwJJBRy/GAww6d0jOqKq7uiprGjEnSSFNcQqQoJ/2H7PaNm3dl1fAYRKweHnuEzcJZFqhVMp4pibWdfYGkIN+Ed+dCLlyyRK6+8UiZPmawdIxbNZ4kzZts/++yzml+KhiHCifCFs3Caa3uD/jtN4fxgWL0UiMFqC8NKnAbeKMQlD4V1v1icn+9YNoEEXhbMz883xskg0OBwDgXlz7WEwXHcnEPvGMfMVqhEU/meyBKCF5CbsXr1ao2gImjpoTg4DDXYNrJ8+XIdzrfDOnAbQ4UItfxmtiYpMYCOF+vZcfw1c21Z2QFfFMm2Oeyrcf7RyTGa3D/xslky8XLKbJl4hSnm8/hLZ+jsaSJXGGSirCw7pQun99NAOzgcBcy4FvMfU6BleGRY1wSU5mpfrh0T89KmZOpSUwzf6zXBMFwMiwzXXD4jdfUQIwvYdOt4bTsiQkRHLzBSRIQplCN3OIFh6DLCE67rmMItay87Wjs0knpEh/h4RUTf29Tui7Ia6N77URG6FmpgzilXwcnsnGy59LJLNUrKyBeL7dvdMImqElRDvAYGHtA0dn12C76jELizq7TAdRsRtbwPBHmsFL6D93YuzkAxLCOnCFN2M2C4ndlm3LDMzExd84vIEHmjdnjGgut4yDwMIkX0OHi1D4P8i5deeknXNaWw6DLrntqHwhApKwWwLiRDpSQbA3u9g8O/GnCRgjNluJ4Fk634hMd0qlgmBH6z4gVD+XZoh6EixCzf/e5398uWrVvEYwRtIL05D+M7anau5J81UfKWTJC8xeO15J8xQcZeME2mXD1X1zm1k1WaKht0Cz/241dr5JqLw6BhhFRuPiCHiquNk/dNhIrLSJDMWb5lpXTNyECoYOjUbXVjE+MkxhTTYtQv0IljJI5gBJ9tW8JhE6Wyw/h08AiC8GpFgIMDPIJ/UUnRKjBV9OkyUS2mk246TjrRyfAKTprv2NqUJc80Rcp89kR6JCo5Vq/VDpKlFvX4jfDYsePk+uuul3vuuUe+9rWvyR133KHlG9/4hnzrW9/SiXtoIa7nlQnhNkgXDCKsjBDbThb+gVxWwO/ZNkB7IIBHcA4geBmdZuLUQPk/bMQpNwoDQeSH6A7ClBwLayyY5GEnMoFAA2PBe24oQ5kU67gBPWe2LmUmpi3MaLNGCYfPb5M+wCK3NqIaWL+Dw78KluvwG4dqt/flMx013sN5BCu7glDgs+U3fMYJc7yoqFjqTB3MYsboWugwk+npt9Y2S3ujaTtwH/tkCkukRMZGSkJeqib6s8yPfs9f/3Csg8OgwHCK4XuceyXL9rDfvgFLSrH5A5OlfO1BDx8FjuOQ0zMypKCgUCI9Rgwc9olT5h7gB2xbwj/QjvAz9lqcOtEqnDRta6AO2mF4ABqwBjSTnyjhpnMEX1oONcuhPVVGjLIxBCuY+FZFqSup0dn5urqEuZaJU4m5SSpegzmF3QVomti4WF2P95JLLtF8U5a8JB0xJSVFR8LgK7/LRD4mhNst1y1s3SwXhXC1KYykNjIHx2oeCn6DdoFPQJzymVn9dgtTfmcgGBbilIfCzSJ6+fDDD+s2WtZg0DsgpM3isdwwIkAUbmZw4q59MISzeXDMTrOF3RR4nThxohbec56NwJIsj/DlOyZO9SWXw8HhnwW4bfkNZxneYQQBXltuB/Obdewsvxn2Z/SBc1lWJykxSdvdETNpjGa4MWLF1bL75S2yd+VOaSir04gVy0nxypam5e+X6gQVXUrFXBwRF6G7n7DVpM6xOlKhg8MxgQ5TWAQL7ldKrXH88A5exWUlyqjZoyUmLT5oKDUA5hi7RKVnpOm8hMx0hj19E2sZbWAzFiKo+A+WzGHta5w+dTGUyVraiFMbOQr5Gw4nHuCVEZpxGYmSOmmURKfGGfEm2nEi7758/T7lLR11RpL2/OMDqd9Xay705UnH5yTpddhR6gqEXmf+1B6qlZK9JRpEQOPAWUZwCTIwf4Yt2xkBpvOF7WfonxSUUCIS/cImE/AZDjOCxsjac88911U/rwQC2VGQyCr8x0fQbniv/mEA/B9h/mEDk7f/YnADAEsfsGc+D4EIEDeFh4ATvvzyy/UcBCzHKYhSjAiz9glD29vAd3b9L6JJ3YFIEqFzjBVRUxa4vemmm3RSie2VOIHqMBQBd1lZInA2ZjDgPs6YXaM4j9yk2267TRd3TjS947LOSnlk8zOyo75YCk376TT1IE7f//1qKfr7B7o0SrwRA/GZiSoGTMPSiCoLSTeV13cNX+UsLJBJV82V9KnZOhu1zfzbSvbtl8V5C+SuM2+X9LhU/7/IwcEXncRG76wskl+ufEjWVm6WtPRUiYn1LQKuUSTTn4Jf7z+wSopf2y6th5ol3IjVnEVjZMqn5+kkPVaRYBJeIKiXaGhlRZVMSCiUCzJPl7/8/I/y1F+fVl+CzyAqxTJrREZZfg37j7+gE0e0ia0e2ZUQcWrrdDgxgWCkowMnv730Z/LSttckf0KeNBcdkk2PvyP73y6C0D7xmZUkGdOzJcx00mt3VUn19oO65BQg2j/+khky7qJpvvQnQynaQYQnQvbs3StxndHyxYU3SeeuRnniySckJjpGRSWBOSKbzLlZuXKlBuPQS0RDr7/+etUv2HXqskEIYH0Cw/XwGV2F0KUNoG2IxLJ8FBqJeTZoL66h3iuuuEL+/d//XUUvvxVYb39x3ItT/vkYgL/85S96UxiW5IZgSDhu39tzgTUYF198sS63sGDBgq56AO97uy04eCZW2bxT6mDhcgwTGMhDcXD4qGE7dd0BTrO2KeucMqRDagx51hgfROj6A1vk5yvul10NJVKQO1qNavX2cnnvV8t1AgqG2banrnZFQZT62xZ7nk+6co6MXjLOt2SKOczWkU6cOnQHa6e7FaeGauEej9SV1sibP1qqO0Id9h7WlSKYkDfh0pl+/pkTfbTsAvX6xGm1jI/Pl8/Ov1aadx+Sq6/9pBwsO6g2nd+3tp02ZH0FwpTJtrSXwZgM4nD8I1icLt2xXLJzMyU+IV6Kln2gy+npZFADtZFMCgV+TmEPI+OjZcz5U4ydnK0jTCxHBcn5HnG6u6hIRkamyMdSF8n6Z9+Shx95WPlJ5wgeMokP/WO5imhkYhS5qAhYEEqr2POZs3PffffpPBqAQAX8e/neFn6PnaLId6XzxrGBaqBho6Ds7gdEfHggiEcMDVFN3lN4SBT7mXMD80qDEXjzgwuGkJ6FrZ/eM79vv3dwGOoI5HNwwTjRpmgf8Jv3DGW2trXqdx0d/nQY7Kkxqsx8jkmNldxFYyRjZo7mVfEdYpQoKkXzSk3d7MrD8OrU6+ZLzsJCjWphiDXq5eAwIBinaf7s/NtGaT5Yr7Oh2XmHZc2Ypa9rSvpO6xZ8RZ4pkdVZJ83W+QsXXHCBpm7BfetHeM/6jjhj0sbuvvtudd60HweHkPDzLmt+oUy9dp7aP3aJUrvrt5HYTCblpYxLl8mfnCPjLpyq53SaTpb2vvyA54hEtdVVVdJidE+U4Sj22g7po3HQKuSCEkD77ne/q0E0ZvJzbXcC0n5H/ijc/uIXv6jpXNRFgf+88tuMPDNqTL2cDwYqTMFxHzm1IFmXKGbgDgi9gWF99ovlpgejt+t5OA899JDmuUIGEovPOussfeiAh+vgMFTRG78RpSw3RT4RBo4e97nnnStzZs/RpP11pRvlF288KLsaS6QwL1+dualUvC1eaSyv0xnSjQfqdCifYVXEKxNSolPidKvJ1AkZEpeZpAumWyBO+S0XOXXoDvAW29p95NSwyHSWdr+0WXOemYTC57QpWTpsymoS3XGfa+F9VUW1jInLky+ceoPMypqqQQfy9pYtW6bLBzKMif1nkgk52OTmsbGLXZbH2X4HgHj8UOR0dJbExcVqGhSTR8kvZR1eNiphByjEKZOfEnKTJXXiKF0fOjIuElL5a/UBDhM5LTL6I0Fi5abpV0lOe5q8t/Y92VdSIlVGrDLihSglqg9PST0k3ZDhfuYQ9JWnBOBYAYm1UhnGJ22SNsGcG+bZ0DljJQB2ULMTAQcDw0ackk9BTwGhCPryv8XN5UHZ/KD+gPoxUjw4eg/UgbGyOyU4OBzPgN8kvdOm4DdDRPAbkdphhCji9L6VDxwtTo1NwjBppNQYXoQBkwDam9qM0e2QsEiPMbS+df6YrYpo8IWxfHDi1KE3wEs41pM4BeSU6ja65i+HSBsJ1/Ulu3ecXBssTmdnT1P+EwliMgkOH8fMMSKp5OBZHzIY0SKH4YPuxGm8X5xiL80bnZFPp54dzIjyM5QfYQSpJ8oISLYqDQHagRWn5Jx+6dRb5IyChcpPoqboErgMLy1PWX8UUQr6IyD5LdoWddIGqB+dRV34A8QvWgr0p97eMGzEKf8btvQV3EhbjgUYKPt7A63LwWGooTt+e43BXVe6yYjT3x0tTg04v+tcIz71aurgjWkaeswYZF/uqe+YhbnCiVOHHmH51Zs4ZZKJj3BcZP7CZTjXA7j2Q+I0Z5rWq8LTf7n9jcC2Efjq4AB6FafQB4oam6h2kSX1zB9fJ4d0qCPnBAPuqTgtKZFYb5R82YjTj01e0sVxuEjhPNtmAo/3B4F12I6aRWDdoL919wTX1XNwcOgzMJ49wRonjBjLRbGMlBpdYzSJqLKED6+KwbNjDg5HAe6x7A6Re13OzHKun0BYwGn+9ITBdMoOJwj8lLF2kQ4U5pUUqA5m5XcjTIOhpwScp3wNwcfujvcGrultVOBY6+4Jw0ac2htIQnpfC+cP5IYG/t5A63JwGGoI5ndfDKWFGit/RECv48Uec+3E4SNGIP8Gg3NcTxuwdj74s4PDsUL5pHbSz6Ouz76PfUUoTvJ+sPQJ11OXrcf+3kDr7Q4ucurg4ODg4ODgMIzwUYlG8FHWbeHEqYODg4ODg4ODw5CBE6cODg4ODg4ODg5DBk6cOjg4ODg4ODg4DBk4cerg4ODg4ODg4DBk4MRpP8CaXiyRE1w47uBwPKI7Tocqdn1SrumR83xlij2vp+LgMNgIxbPeSi8rpHWdF6pdBBaty8HhWOHnWahi/uM/KQQ4h+X6DofmZXdF6+0jODfU9f2poz9w4rQXBN58Zqh1VxwcjkeE4nJvJSxshISHdW86WAaFRdDZkafHEhHuWzLFwWGQAD/hlZZQnOumsCUv13YH+51tAz0VB4djxQiP4WMo7mIrDUdDwUpDuBc2wsfj/pTeYDVQqGttCdRJg4Vhs0PURwF7a7j5bN3FnrK7d+/u2luWrcHYW3bcuHGSmZl5TNugOjj8swGvLae3bdsmFRUV2gu23/WGhKREORTVJI9ve1521O2RwvwC3w5RXGrEZltdszSW1UtbQ6uKT2O2fBcGwhzC2CZkJUlMmn/rO/PH7RDl0BMsd7vbIcrb2CaHiqt18wfWieydzQbmpJiRcZKQmSQd0imVFVVdO0TNyZmu9ZaUlMj27dv9F/j+HRaBzpntHGfPnq3bWHPc4cQFdq/HHaKCwOL7dXtrpK2+1X/EB3gVZmxlVHKMJOQk+2yqOcYOUXv2FkvSiAS5afqVMi48Vw6UHdBtRa097wmsUcre+9OnT9c98akzFGc5Tn1sZb1161YpKiqS5uZm5XhBQYHqn9TUVF0DFQwW75047QHcGvaQ3blzp7zxxhvy7rvvyt69e3V/WR5OZGSkjBo1SvLz82XhwoVy6qmn6sMKXKjWwWGowRqh8vJy+fWvfy1vv/22eL3eru96w4RJE2TS6dNl7YjtsqVqh4wpKOzavpR6D27YJ/tW7pT60kMqELpTCEQECj82RXJOLtTPnNra2ubEqUO3sNwNFKcjjTiNRZzi3IuqZctf3pP2hpYjtOuDh8ualycFZ06S8PgIqSirkDHx+V3ilA7TI488In/96191e1MQ2E7499h/V3Z2tvzgBz/QV5y//d7hxEO/xKnhSHt9i2x9cq0c2lNlhKqxp5Y25lRPdISkTc+S8RdNlzBjNxnCR5zuNkIxIyZNzk9dJOVrSmTFyhXi8Xj6JE7RKRMnTpS77rpLsrKyujhswWdKTU2NrF27VlasWCEbN26U0tJSbRPs2Z+Tk6PiFu0zd+5c3Wd/sPjuxGk34LYQHUWQPvfcc/LSSy9pzznU7eJhTJs2TT71qU/JFVdcoT0Je9zBYagBw4XjpKP15S9/Wf7v//4vpNPtDvMWzJOP/dvFUjqqVjZWbJOxAeIU7Hllq+z46/tSu6fSd6CbKhGnM24+RcZfMpMfduLUoVfAT+zqUeI0zYjTOCNO2zukcvMBeevfX5GW2iZ14H3FGNNJmnrNPIlMi5Xy/eUy1ojTOxbdIHNzp6sf+MY3viF//OMfpaGhQf8NodoJzn706NHy4osvyvjx4wc9kuRwfKG/4rSlukm5W7W1TLfc9R33vUTGR0nOorEy57OnqVBly1MipDv37JGcxExZOGKqvPvkG/LkM08p33oTp5yDiJ03b5489thjGlSzbQtYfh88eFCWLVsmjz76qAbo6uvr9XggiJpSz1VXXSUf//jHJS0tTY8PlPcu5zQE7IMhQvrUU0/pg0GYMmxPTwEhOnPmTBkzZoz2HngImzZtkj/96U/y2muvaVQVhDJgDg5DBdZA4UQRq4mJiepU4Ta9YcqsWbMkJSWlazSAwhBQkjlXjZm1nhaG8rp/vrdDP4ZHeSRuVIIkj0mTpMKRkhxQEvNSJTIhmoai5zo4DAhQ0ZQR4fzH/A0zXE2Nk6T8VMO3I/xjaDQ80nPkfHNeRFykDp36OlJ84eMkHG/3tktjY6O+p53gjIk42XYyY8YMLfgFAhP4iYE6ZocTD+Tyx2UkKF+TCkZKdEqshHl8HRw42ROlrG2Gn4hWbDZ8hJeWo5MmTZLk5OQubmL7SUNheD4UiI6uWbNG7r//flm6dKl2zKi7sLBQ60PQci2R1X/84x/y29/+VpYvX66BDtrKQPVP+HcN/O8dAsADJMdi8+bNsm/fPj02YcIEufzyy+XKK6+Us88+Wz8zNMrDsTkZ5HCQc4QBsxEqB4ehBBWVht91dXXy8ssvy44dO/TY1KlT5d/+7d/ksssuk9NOO01OP/10fSWthbxUUlwQpqeccoosOvc02VK7SypbayXFGDyiBJoL1XFYDr63Vyq3lIm3qV1iR8ZL7mnjpfCciZI2NVtGzciRjJm5kjE9W19Tx2UYgerL1Ubokt9XV1cvBUm5cmrhfImLjNHvHBws4G51U628vXedHGiq0CH9iMgIjZQ2VTRI6ao90tHcrvnP2QsKpeDsSTpsnz4tW9Kn50hceoJG9b2cY0AHqeDMiZIyLl0OjzgszU3NkhKRJPPzZsuohDSpqq6WP//pTzrfgDawYMECufbaa+XSSy/V9rFkyRJZvHixFt4jAqxAtULA4cSE2lrz57Wdq2VndZEkJCVIJFz1fx8I7Ge06UylTsiQdGMrO40tbKlqFG+LVzv5iXkpknVSvgpW6iVgUF1bK4lR8TJ6RIbs31oiW7Zu0YAZHaevfOUrcuaZZyovzzjjDA2m7d+/X8rKyvT30Ch8B48DuWpFZXFxsTz++OM6csx3pDEiSm+44Qa55JJLZOzYsap5as2/gXaBP2EeAymOiGDrZ44VTjmFADeUG0su6be//W35yU9+Irfddpvcfffdmk909dVX68NhSPTOO+/UoRxEKA+IMDjFweF4gDVE8JdJfWeddZYaK9sJwwDRyaLQLiZOmGgM2hLJzcnVPNVg00N93jZvV+Q0Ij5K0qZkSv4ZE2X04nGmjPeVJRNk9GnjJD4nSc9zcBgwoLIpOpxvHD3cJFKas2iM5Bm+URCrMenx0m4nnZiTUsdnmI5TlkTERhqe+9qDBc0Du87QPty2fsE6ddpJYDnvvPMkISFhQE7Z4cQEuaQZ03J8dvL0cTra5ImJ8H8bGrCMYu04AhcRiSbBfsNJUg3hakZGhnb+ORd7TwT0E5/4hEZQA2G5+84778jq1auV/xxD3P7nf/6n6h7q/OY3vylf+9rXdHQNoczoAsE8UiEHA06cdgP7gHjQ5FF8//vfV0HKcRw1D4yHzGx9oknWgQfCEsbBYSiCIRoMjh3C5z18D+T3s88+q7MzEaIYIHrkixaeIp4w/4zQIB+MMGhraNPePvCYHj9Dq2ERYb7lUIiumus62r3ibfVqpNXBYSDwUdDwyLzBmSNIdSjfOPeoxGjlmLfF8Nl0mBrKDknJyp2an2qMuV45+rSxOoQaCnC1yTjdqqoqdew4cnLqGM6E/7QRW0L5AAeH/oBOfWdbh+acMimqVwlhOAwvY+PiJC9vtEyaOEkmT55s3uepDYeP2G6im6+++qrs2rVLL2M4n5Gyk08+WT8Hg84Yk58++OAD1TxEQhktZmQAYUudcP7cc8/VjhodMv4dpEK+/vrr+v1AR42dOO0DrOHh1YIHRnn//fc1tM13OHtmq1HsOQ4OQw3WaMDTL37xi/Lwww/rZA96wfSmAUKUdBaS4eE3/GdG58xZMyV3dK50HD7i3C2IVSFOO1rauhL6W6obZe/y7bLhgVWy5bF3pHjZdjlUVK2CgQlRRLgC25WDQ7+hNDT/MX8Z+pz9udNkwdfP0ZJ1cqGER3vUFtMZqt1VKTU7KnyXmWMJuck6jOox5/j17REYXsLN5pbmrtQtrlm/fr08+OCDcu+992qeHfMMWGqKdkVxAtXhmNHFZR+fewPrTTOUnpubI1+484s6DP/AAw/IHXfc0RVowJazIsuWLVv0XDhKbjRD/aSfWF4Da4vpjJHKRd4px5iPQLqiPZdOGscJzLFiEemMgOgp83P4HTAQ2+7EaR/Aw+CB8srNpvDASRaGDHYYnwRheiIM+3COFQEODkMRGBiG8hm6pyA+7Vq9JLUjTOlp0yOG+0RNGcKJjIo0PeN2dOXRMJ+9TW3a42dyCaW5ukmKXt0m259ZL9ueXi8bHlylM1Lf+9VyOfDuXuloNfUwEcXBYRBAbl58dpKKVIQnkVO4yySp5qpGqdhUKq2HmnSTiBGGdnmnj5e4zEQVA8ayf0gQYMdx0ExyxeZTF47+oYcekl/84hfy4x//WG6//Xa57rrr5Dvf+Y4uszMQh+zg0BdR2gVzLoKRnGuWLyPfmREwBKPVLfCXqCnBBiKaCEqipsyw55xAWO6Sl0oU1Np+/AL+IZSmIchB/irn8VusA29F7UDgvEI/YG82D5i8iu9973s6S59eAj2Lc845R3sjJCSD4Afv4DCUYI0XIpViO2CAaClLjPAK3+kZz58/XycBjsCrB3ObpmEOtda16EQTIqMaRW3vkLb6FmmpbZaWmiZpOlgvh4qqdNLK5kfXyP7VezSi5avOOXWHQYahFMKUSH7Nzgqp2npQl+GBrEw+GTUrV5fmCQXEKksBsXwO4pR2QGHWMo6bybCIUSJFCNbf//73OhJBh86mxTih6vDRwhhOP8VImaIDhS3HjsM9bDr8ZBkoov+AFYdYk5ShfxCsU7gOviMwLTiHSGwwOI5wtd9xLdchagcKJ077CGtkMFQsm8DEqJUrV2oYm3wLZjgzUcoOiwY/cAeH4wUYJpLhKdbJsnQOUdP0tHTD7RD8xkaa85hUMmr2aCk8b7KWMZSPTZGCcydJzsIx/t2gRujuUdXbjXM34rSuuNo3AzVoMoqDw0ABJ3HQLVVNUmP41nDgkOFumOZAp0/NlJRxGZDZnOi/IABw3BPukaysbLn++uvl5ptvlptuuklfb7nlFrnmmmtk0aJFGjlipIFoE6tfPP/885rjZ32Gg8NHD789ti+Gu9ZGswwUa1pjyxGvU6ZMkTlz5nxoSD8QRFf5nu8sjxGcgZzmPYV66bTxnvNJbwwVYe0vnDjtA+xDwOAw1HnfffepQLXClJlwLMFDToaLmjocT4CntljAc3bDYWkQjBc9cZaVwqixDAoWMBS/EZfRqTGSt3i8TLpqjky60hRer5orkylXz5XxF8+Q+FGJOqxK8n9tUZUvBxVh6tqMwyDDNwHvsBwqrpLqHRW+iXrG67F8FDP3IxKijG33nxwIf5uA+4UFBZrDR1Q0sNjVWghMMKyJj2AiCWs9Elml7QCOOzh8pDCmU+14gG2Gd/DwhRdeUJsOH+EpwpRgA98Hi0itwxQmQDEabOui80UOaijgJyiA9sJvEEm11x4rnDjtBdawEBJHmLLdI6/0FpixecEFF2hvGmFKT8MZIofjEZa3RE0ZBoLjgOMsS8LapjnZOeYIVlC/+jBMFWER4RKbEa+LniePTdPFpHXmdP5ISZ+WpduVJprPnAfYC529+Bn+V1vm2o/DIAJxSpS+alu5RujhV7gnXBJHp0jGrFw57O300bkbTnM9dp50FvL0WNicThozorH52H9WcWGo1A5lEkFlhM35Aod/JRhex47biVDwEe7abUZBsIC0n9PT0zVv1Qbb4DOTvy0s10lxIbUFfcS1rAKA8CXyOlD+O3HaA+zNpcfwyiuv6E4Jf//737W3QXIwEdMvfOELctJJJ+nDcHA4ngHfq6urNfLD7GOAwWH5EJxzVLTpfIUa//QDR95a0ywVmw5I9faDOgGl3QgD8v3Y91xLq1cFgppAU9UIT5iu7xcWzoQUKulGJTg49Bfwy3CyrqRGanaU65amEI+1d9kAIjYjQVgqqqfOlrfdq0up0SZYhB9njGMmCkV7YTjTzkymrXAMMRsqP8/B4Z8BOAg/EYxM2GaEF6BRWCCfThZctUI0FIicIjIJTHAekVHyVlleCs5TP+KXuTesXoF4RRcRNWWTCvjPv6On3+gNTpx2A24swFmz9/ivfvUrHcrnAZBTQQ+aXULoWbDDDovPUuil0JMYjIRgB4d/JuAsuUksjcN7DAtpK6xlx0zQnoQpnhwhULFpv+jM/KfWyb43dkm1EQXk+TWW1UnNzkrZ9cImPeZtbVdRwPqSbNnHdpIu59RhUGH4RYeocvN+OUTU1HxmZQi2081eUCCH/ROjegITAp984kndjIUleohE4Yyx80yGJVjxxBNPqHAlnw/g1IlM2c8DcdAODv0BuoWCcISjLKKPmARsTY1wJMoPJ7vjpRWVDP8jZhkRpj6E6c9+9jNZtWqVcp85N0wC5Df4HvHLSgFMnLX6aSBw4jQE7I3llYjpb37zG52NiTDlGA+boc977rlHh/TJN2VLLwo7SbEGnu2tDMZDcnD4KGGjQOQl4XgxQnCd4xgntqxjuIZ8ppAw144w5zNTv/StPVL23l5dPmrD796UNT97VVb94CV54/svyls/eVk+MKK1pbpJhagnKkLXmEzIS9UZ1M6JOwwW4BfD940H6nTiHZyDv1FJ0ZI2eZQkjk72zdrvhnJwkc7Y/tL9cv/v7tdlA3/605/qslHYeyZIffrTn9bc06effrprByn2NGfFFvL1+Ozsv8OAAD+xi30xjYZqcNZGTZkIxagvtpyOErv/sdSUcrsPvORcRs0QnFwDxx999FG58cYbtQ3ceuutyn3WRNXc7MJCufDCC/U66h+oPXfitBtwYxnCoZfALgk8cKJJ3HTE6Z49ezSkTR4GZcOGDVrWrVunS4nY3oqDw1CHNSIMXxI1ZQgHY4NRO//883XbO6AGLdjeYBARAhHh0lB6yCc8NSIl0t7YJg37D0ntnio5ZEp9aa3uF00dRLCy5udL/pkTJCE7SddGHaAtc3DogjpHT5gcXL9Ply7T7XQNwWLTEyXzpHwJjwo3vbLQDpqjCNm2llbZs3O3OnraAz6AvcnxB3TgiEzxGb9AW2GUgTSviy66SN9zjOLgcEyAiFowshQ92i34Gt7CU/bFf/HFF/U482PY1Yx1TRkBAz2JU/wB3zMqzO5PjBCTg0q9HEf7wH9G2Uhp4Xzqvfjii+Wqq67SkWVbz0DgWk4viIuL014wkSMKnykYH47bwjqQvJJzQe/ZGSWH4wHqxI0RYSLU1q1btXMFv3HGDOuwZR285pyQxsYcGmGEJmuVpkzIkOk3nKwz9DPn5El8VqJ4YgJy78y5UYkxkj49W6ZeO1+mX3+ypE4YFTCc79Spw8ChUflIjzSWk0pSId6mdk0bIYUkdeIoSR6TbjpQcN9/QRBgYefhTok0znnJ2WfoSBgjZAyJMknEOl+AAyeyhFNmFZe77rqrS5gO1Dk7nNgg8g+P2QKaUSY43CMMofnDCBjLABIkszPnSc1iBIx8aHjZmz6x3CXnlGXT/vd//1cn/pGuEshrRClzb9gt7Stf+YqKWHzKYOifEaaiXvT4iQt6HNu2betaI4wbbp15KPAdhoucDmZzBhoxB4ehDPhNbxuBCogGETG1y6PBeQyffmd60OtKN8l9K38nuxpLpDAvX525BROgiKA2VzZKa12ztDe2qmBgLVOGVeOzkiQmI17CI442tvT6yV0q2bdfFuctkLvOvF3S41L93zo4HOlM7awskl+ufEjWVm6WtPRUiYmN6cqThqYsvN/e1KZR07a6FunU7XI9mm/KDlLkRweDa1kyp6qiWsbE5ckXTr1BZmVN1Y4bo2jsBMjuN8xD4Bjn05HDQSNQEaWa/sK/weGEB/aSTRywa99e+jNZumO5ZI/Okvi4WGMve5Fd5nvN1T9YL94Woz2M7WSN6KR8Iw4Nd1VreCKkqKRE4rxR8qXTbpHzJ52hv9nS3KLRTSL82G5sKtuVwlErTvvKUX6HiCkRUpalYrSAVAH8hdU67IjJToP9rbs3OHHaA7g1GCseRF/BgyHqNBjrfDk4/LMA1+E5hgze8hnjA49tL7iv4hSZqWcbQarmRU2MOeb76xMGlCDL48SpQ2+AT/CzR3FqodTjP/4PsM9QuTu7zPFgcTo7e5p4O7wSHhau9dNGKDhsQC4fbcQuaG4nQTk4DEicAnOOnqb/MZzlr79TpfY5WJxOPkNpzndwFC5ju+ElHMWeH0tEU9uQgRWplv/UZeuF97Sf7trWsWDgsddhDG40N58eQV8LM9a4ZjAfkoPDRw34ipEhEgSPecXh9tuYdRlTU2f4CM1FJWIVHmlezfsRHuO8zW8dGcp3cPiIYEwwuc1s+EDkiRzUUBHT3mCdLkEHIlFESEnjohApxd6DY3H8Dg7dwnDVx99w5TDpU32BFY3YcPQIr3w+Vn5aLcP1+IbANEbaA+3CtpHBhGtNfYC98X0tDg7HKwbMYy6zl3Yancoe+x2d/mIEKaLU/HXtxOGfAY3e+4vlXn8Q3B4C34PA7wOPO7w42HQAACM7SURBVDgMGNA1mL/9wGDyMrCOwHoDy2DDidNeEOoh9KU4OBxvGHQec7kW8x8tAcccHP4ZCOTcAHkX2C6IIlEGpZ04OHSHY+RvIFcHi6OBdf0zuO/EqYODg4ODg4ODw5CBE6cODg4ODg4ODg5DBk6cOjg4ODg4ODg4DBk4cerg4ODg4ODg4DBk4MSpg4ODg4ODg4PDkMGwFqcsHmsXkA2G/a6770OhL+f3t04Hh6EAy9vuuKvH+0trLgmsL2jGaXe/5eBwrDiKp0F8A8fKORYd7+5ajjsuOxwzQnHW8pbjWvrPr8HkbG/n97e+vmBYilNuEg8meKmDwJtnv+vLUgj2xoeqL7BO0Nc6HRyGAgI5HIrfFvY7/vQGexmLnuvC+2H+ejluitZjjvkW5TcmyDUXhwHCci7Mz6kuvvk3LoNvdjF+Pdl/fm+w7cPy3x4LhD2Oz3Fw6DMsZ1lkPyKAs7aYjyy8r9+Z12De9QTOtcs92c+B1/eVs/Y6zrfXgMC6gP0++PhAMCy3L+V/ia272Ad548aNsnPnTtm3b5/U1NToTgnsGc5+sOx/P3HiRBk5cmTXAwiGvT28Hjp0SPer3bRpk+zfv1/33Od4SkqK7jE7fvx4mTJlir5ndx0Qqk4Hh6EAy3le6+vrZdeuXdpeioqKpKysTPcPZycQ+Dx27FiZOnWqjB49WiKjo2Rd6Ua5b+UDH9q+lLowiqDlULPU7a3W/c2byuulra5Vv49OjpGYtHhJzE+VxNEpEpUUY8SDMaTmGrd9qUNPsJz90PalcTHS4e2QlqomqfqgTOqKq6WpqlEOm2OR8VESNypRksaMlKSCkcq/Tq+x60GmmXpDbV+KA2df8bffflvWrVuntp8tHFNTU9WHnHTSSTJp0qSunaKczXcARtb1vH0pNDFms7WuWaq3l0vNjnJprm6SzvYO/S4qPlric5MlZVy62klPbKTy2RBM20F3e+vze2y1yx7477zzjha0kNfrlbS0NJk+fbrMnTtXbTo7PIHuOMvvgIaGBtm6davyHw2EFgJoH/bsnzVrlmofPttrBtoOhqU4PXjwoLz55puydOlSvaE4WoRpU1OT7gHLtlsI0mnTpsnVV18tl1xyif/Ko2FvDU568+bNWt+qVatU6NbW1kpVVZWew/ZgPJRRo0bJRRddJNdee606dL6zjtrBYSjBchvHu23bNnn55Zfl9ddfl+LiYnXE8BsHzPZ3cJsO3TnnniNXXXmVTJw8Sdbu2yi/ePNB2R0oTqkyzBjG1nap3lYuZe/uNUb3oDQbkdBa1yLelnY9JyI2QiKMYIgZGS8FZ02UnEVjJCLOdObMv6mttc2JU4duAW+PFqebJG1UmkSGeaTygwNS/Op2qd1TZURqo7Q1mM6Q4Xd4VIREJUZLbHq8jJycKaNPGyfJxuF3Gkcf6EB5f5Q4XXSDTEwdI2+tfkueffZZ2bBhg3bc8CW0G+x+VlaW+pGzzjpLLr74YnX+ti6HExvdidM4I071uxav1OyqkNI3d0vVtoPagW9vbO3qOHmiI7QjlZBr7O+sXMleUCBxmQlGoHZiRrsVp/V19SpIn3nmmS7OYs8RrGy9m5ubq5w944wz5GMf+5hkZ2d3tSsL6x/wAQT3XnjhBVmxYoX6B4QumohzaAP4BoTu4sWLVUuNGzdOrx1oGwj/roH//XENezNLS0vlb3/7mzz44IPyyiuv6I2trq7WiAw3kvNQ/QhWer6nnHKKRk+7ezgtLS2yevVqefjhh+Wpp56StWvXSnl5udTV1WmvgwgpvQocOg+Sh75w4ULdgxY4I+UwFGH5jfF69NFH5fHHH5e33npLo0JEUQGGjA4d3MYhEzmdv2C+tpsDhw7K2yXrpKa9TlKSktUoMnTa2eZVUbr75S2y/609cqi4SloPtZjjHbrHPkOriAaOYYDTjFhIHpvuG241wIDWGeNakJQrpxbOl7jIGD3u4GCBTa1uqpW39q6VsuZKiY6MkvqiWtn2zHopXbVbmg7Wa0eIiHxkQoxGolpqmqSxrE4a9h/S7+IzE03nyPgDttT1m2jqhX9NTc0yMipZ5mROk/JdB+Qn9/5Enn/+eR1ZwO5j54lC0TaITu3evVudNtfPnj27KyDhbL+D6grz57Wdq2VndZEkJCVIZGSE+UKkZmeF7Hphk5S8sUvqDS/bm9pMxz1Kog0vwyM8aiebqxuVtxTYlFSYJp4oj25nSqCt1vAxstMjJ+fPkfFphcrJd9a8I/fdd59yFm5iz+Gsj9tNGrzjOCO/1IFmIeofzFc6auvXr1ft8+c//1neffdd1T4IU/hP4T1BOgQwhfpmzJjRa0S2LxgW4hQCUBobG+Wll16SBx54QCOc3DyipIScTzvtNBWihLTz8vI0ykmv4cILL5T4+HitJ9SNZAifh0PPGUOEGC0oKJBFixZpITzOcD69h/nz52vklPA2dbmoqcNQhBpMw096wL///e/lL3/5i+zZs0c8Ho/2ok8++WRtKxS4nZmZKRMmTJDLL79cTpp7kvK6rKFC3jbiIFCcIjwrt5TJzr9tlIPr9qmxpfefkJMsaVOzTcnSIao4IwwYas2cM1qyTy7UiJb5R6kRd+LUoTfAXcTp28Xr5GBrpUhTh5S+vkuKlm2Tw+2dysNRs0ZLzsJCSZ+WJQnZSVykfGyra5GmigatJ21KlubyIRTw/NRrxWlqZLLkRWTKy0/8n/zhj39Q547jZRgfO48fofOGc8bv0IHDOc+ZM0fbixOoDiCUOI2KjpK2xlbZ9+Zu2fPyVmlvbNO80sTRqTL69HGGu7mSYjrs4dEe8127ft9W32KuaZPkwpGSmJsqHe3ekOJ0546d8oc//EFtOuIS/iE+sekEF9A6cBbBip5BbJKSwtA8owGBfOV6BOnTTz+to2v8HhFS/MLMmTO1LSBCqY8gHgEMOm900EibtH7mWDEsxCk3FWNAvhzOduXKlXqMCM/ZZ58tn/vc5+Qzn/mMvmf4BaGKEaEgVIMNCTcVcNOJKBExpbdBNJQo64033ih33HGHDuOceeaZcs455+gDQajyPRFa4AyTw1DGX//6VzVkRIQiIiLU8Fx11VVy++236yvDPrQZcurgNsYtJTlFGFQqq6/QyJWK00Tj/MNGqPHc8dwGKVtbIl6EaWykpE7IkLEXTJVxF0yTbCMWMmbmSObcfM2hQhzEG+GAmEAgOHHq0BdgV604LWuplNbSBil5dbs0ltdrBJ5h0JmfWSS5i8ZqZD59WrZEJsZI48F6HTq1kVQEQEJusnR2ICB89Xq9HdLW0ioxHVHSvrdRnvr9n6W6tka/w4nfeuut8tnPflZtP0EKhkuJQDEyh8MnIMLwJk6ba5wPOLERLE7jjTiNNuK0fn+tjixVbSvT7yPjImXcxTNk0pVzJHV8hqRPz9Y86ebyBmkoq9P0FHQKx/iug5Eo07GqrTskEUacLsybIzlxo+Qf//iHjhojFAk2wNEvf/nLctttt2kgDr3Dd4yQwVkiqdhcdBHnW85S+D2O8UrnjFRItA/+4dJLL5Vzzz1X0tPTtS5GoqkHAUuAg9HjgfJ/2IT2MApvvPGGvP/++3rTyZWjh3v33XfrjUSoIhqZ4MEDQ6BibIKFqQWfcdoIXXrEgPyiG264Qb761a9qRImeMz0R6p43b54WHpZ9sA4OQxHwk2jPc889p8M7GBUMD+3k61//ugpRRhzojJFvSi/51FNPVf4TIT0K5iNDTJ6oCKnafECqtpRJe32r/kZSXqqMNwZ33MenqwiNMGKV3NLolFjJPClPkgpH6uxqrndw6DcMx6zQbKlt5oCuAJE9v0BGThwlETERmmoSlRQtGTNyZOSkzK5Iaas5v3zDPv0eWF4jAjwew+WqKln22jIpMsLTVKtO97rrrtM5CvgN8vY+/vGPq7NmVIFgCA582bJl6qz5jDCxgQ4HBzDCTwdvc7sWhCkcIeUJfmIjiaLCY1JPYjMSdIhfU/rNeR2tXs1JtbwF5Pszwap4b7G8veZtKSkpUf2B/UaUXnPNNapXmMz6iU98Qj8TRIOj+IE1a9aoH6B+y1sA5+E6ddx7773y//7f/5M777xT+c7IM/Nq8BmMIPNb+BEiqPCfOoI1VX9x3CsobiY3kbxSJi0RpubG4EiJ/JCcy5ALuad2chQ5pwhY+xC6Aw+NB81v8LAZrudh0PNgUhT12QkkPGQEcm91Ojj8KwGXwZYtW2THjh3KW0CeEO2FtkQbYhiHNsPQDznVym0ceLC9MYeU8+Y4M06Zoa9i1QiD1IkZOqyKEa4vrdUcq4YDddLe3KY9fydKHY4ZUMdwDu4hKH3HEIPmpcM4ayaN6GdT9LPhm3n1XWjagfkeLnqbjEDwc9rHY1/0npSXLVu3SKu3VcJGhGk0aMmSJZKcnKxtiHOIKuETOG4dMdfhN2gz9vcdHLpgaGLkqMSkxkpMerzpLPl4097SLvvXFGvaCXnQHabTVbu7UupKqsXbajhqxCidrdhMI1aj6NDDZa41tcFrw7PiomKjST5QbqJXmJx32WWXaRQfzmLDse/YekaNOYfjiElyS7kuFF8JwjF6RmfMcprrKDaX1YLcVQIdAxWm4LgXp/Zm0tPlJjO0wjGMCPmhv/71rzW3lFlk9BoIX9MTYOY9+REg1AMBCFOGbQARJB72e++9p9HT888/Xx88dZOL99///d+atzcYD8XB4aMGy4EwpAPgLNxGlDIERJoKnTDyp+H5D3/4Q+2IsVQPPf2jYD4ylEoOFbPymRBFe2KpqIiYSNm7Yqes/M4LsvLbL8iqHyyV1+9+Xt4w7/e8vEWFrEYAuml/Dg7dAtrQCYqO0IlN5DAD+Ldn2Tap2npQOts7jfM33GzyaqpJ+fv71PEDHHpTRb0u3aOV+e12mOGj19sudbV1Ul9br3ynfdhoEekvOHUKYDTOjpZRCHoQsCBfrzu/4nBio9NwL9qIU6L5qRNHSVh4mKZB7Xh2vbx+z9/knV+8Jm/+4EV591fL5eB6w1nTkYpOjpVRs0dL5pw86SDiajpMPhiOYUPNX7QPgTN4B08LCwt1BAyuwk2EKWC0F3uPaEVYIjDhrBW1oWA7ZJbn9j2rApCXym/TWWNkmhRHe85AMCzEKQWhSW+Vm8hNIurz05/+VB0rQ/12RiXRImaxMXyJcCWXlBsZypDQC7YClggTk60+//nP6yoA27dv1/oQpKx/9+Mf/1i+9a1vyfLly/Wh8O9wxslhqMFyksg/QzBwH8Dpe+65R2dlIlzhNukstJ3/+Z//0eEcOnRcQx3wG1AdBo0eP0OlRKQwlEw62fP3D2TL4+9I+YZSnY3aWG7aaFmdVGw+IBseXCVbH39X10HVhfgdHPoJZa4RqHGZSZpXCuBmm+n0vPPzV2XNfy2Tdb9+XVb/6CXZ9Mjbut6u8RZ6DrxlKZ/Odi9X+erSpmHeQe0W41jbjLjlj2kjpInhzIOdNyKAyBKBENu2bO6pg0MoqM00Hfq0KZk6ASoyKVq5g2hl9Knk9Z264knjwTqN+JP6RJrKmPOnakeMyVA+wlKZSHhYuPKSjhHzZACf6TgFz8LnPUPwiEg4jR2nWFEbeK4Fx6jPilv0Dbxn9O2xxx7TtU/hOwHBBQsWaJSVOkPV1R8MG6/Ag+EGWeOBqGRZKXqwhLBJBiaczcPCweJ4ubFPPPGEXhvqRiJI6VUAHjpClvQBZmOed955OgyKYeJ3EcZ///vfdVkeokzUZ42Vg8NQgx2qt2DkgfYCn08//XSdCEVqDEYG7jNUyeQp1nzUISXTXLrYbd6TB+Ulauofqve2tOkyKLpsT3aSZJpef/rULI0SYHDbG1qlePl2KXp1uzSVN/R7BxQHB2NklZ+xaXEyevE4yZqfr/yjEBU9sGaPFL+2XTtH5KXi5InmK3Ex92EMsPrfW+r53yuPTeEjwK/05LgDv3PC1KEnMFqEXSxfXyolK3Zqx175Z/jGCEB8VpJEJccaW8luZuZwe4fU7Co3XN6mNjUs0nOUrfRxb4R0mLYQGK20WigYnG8nOgHqQuf0xf5yDtcRMSUgxwQstBaCl9zTm266Sefg2PMGgmEjThGd3Axuii0kADNM+ZOf/ES+973vaVIvC+TjdDEgdsIT0VSAoQsEPQseIg+T+nDciNL/+I//kB/84Af6cL7zne/ohBF6zuSyMuyPI7c9B65zcBhqwJjYnjAgKsSkJ0Ya4DX8hucYHNoBApURArjd2NAkEWERXULUtDYJ8/gmo2BR1FiaphSTEit5i8fLzJtPkek3LJAZNy2SyZ+cK7HpCWqgMcoVG0vl0J4qnQTg2opDf6By0FBmhCdcksekyeSr58qES2dKyvgMzXlm8ggcpXOUf8YEGX36eM31g2dwNMoIASagUAccpkKloOFmWJSx+6wnyXEDAhoEMayPsFzFj9A2eFXeGzCUGti2HBy6YHhDB71mZ6WUrNypi/ATMY1gtv5F02TmLYuMnVwosz5zqky8bJbyGlvZXNVkOlvFsn91kaGp748FovTw4U6JNhok1thqAE9J2woUnbxS4DHRfTiNZqKQtmj1UyhwnDoRv6+99pr6B0bbCGrgH9BFjCqjheD+QIUpOO7FKQaBQggbh2tvMDebJT1uvvlmdbqsS2c/8x4xyUNiGRCGMe2DCwR5GXYNVOplqR1mbJKHx0Mgt4LZm+TocS7XkwpA5BSDZY2Vg8NQgeUk+XO0AQtWsGB5HPKoGZaB2+ScfvKTn9Q1fOE/OamMONAJCzP14Lipjjw+jGtkQlRXb59Ef2bjF5w1SbLm5UvSmHRJncTQ1BRdx093hDJormyUhgOHdIhV808dHPoFCOjLPWXZMpbjmXbtfHXys249VWbeZDpG/7ZAxhrHn5iXohPx9CrDz9hRCbpQ/1FW3zj5cE+YxCTGSHR8tHKcmdDMZ4D3iFDrKygIACbE2uM4ZkbWGPZ09t/hQzCc0MlORpQyhN/R5lXusnPZeNOxyj1trIyazW5Q+TLu49Mk55RCzU/tNKKQ0YCD60u0U6+rTmh9UNaXQhhrNFCC6RgB+IgWQYfYNEMK5zFqBmetOCUAR8DOaqdgcIzC+ewiSJCP9EVGkfEhLClFxJS1VAlyDBaGhTgFiEOWNkCkciN5JSGYxWUxGDwYoqssHEsCO8c4D4HKwwLBDwYxakPU/A7v7UK29kHj5HHsVsSSRmBn7js4DDXY9kI7oI0AeAy34TGdOj7Db0YKmI1suU0vvLml2by26Wfr1ZlcEpUQLXHpvpmkgN9hyaiE3CRzzKNDVlzA0igsys8uJwCjqxEuclVBUBt0cOgrGO5Myk/V4f3CcybJmAumSuF5kyVn0VgVAPX7arsm4cFJNoRQHmLfzfVwlkgrHayRxp8w8hYe7tG2QA42G7LYSYQ4cs5HAJCXbX0HM5VpW0ST+N62NwcHAB0QpOTns1UpYBkp1ttNNNxlST7yUUlBiTd2MjEvVSJMJwnQsSKXn80k7Cx/bLClWKbRInbddgQpKxMxWQm7DQ8tZ5nozWgxxzmG7YezoaL9ltdoJITpf/3Xf2nklM/kmJIuScCPpTnxF5bzg8H7YSFOMR4YBRwpwhPQY7ATlgAPAfBQyB3lwQAcLwITBN9QIqw+A+UTt4SwSQJGgNoHzTGiSVbgUh//BoSwg8NQg+U4xojOm3Wi8JhJg3Z1Co7RcWN5NoaA4D+95KREXyK9/yR9wX6NMO0heWyaRCWa78xhnDx5fkyEImcKY6rDUxX+SKk5xnmIBo24Imqxg/46HRz6Bp93hm+tRngy6Qnnj3MnzYT3tbsqpWTFDl3XFC6q489KkrRpWTqkaphp6vHzDu4aQjNawOSOtNQ0JThtgM1Y2OIXp0/UCLHK0CZbWtNe8BOMODCz305Ese3NwQFg4hjWD4sM74p+koPPCBKRUTWmfrTUNKsYJX8fYsIlOlM6gdSeZuiF7eW7/IJ8mWP4R4ABew1nH3roIc0PZdSLSU9sVARn4S7XYNPRTQTd0DRW1wArTOE6uaWsSMSkWIQvOoeR6E9/+tO6Aye/R+6pLYMRnDvud4jiRnJjCE3zihilZ0APl4djeweEsRGmTFhisX5uIJEjFP8VV1yhD5S67IMBPACG/Zn5z5AOYW2cNzPdeGUCCb0IjBZCmIfJg2bZKoQtCKzPwWEoAJ6SAoMghdsYLTpXdOjshEGGMXG67DbCObQjRiEuuvAi3V+/sqVaVhevlVpvnaSYHrQuXh4XJfX7arr2NqenT1SUnUzo7esklbeLpeT1Hf699UfoWqjsHJWQYwyqMdKIBbdDlENPwKbqDlF718mBpnKJi4+Vw62dcuDdYtm7fId0GO61VPs6RhWb9sve17ZL6Vt7dHcoOkixafFScPYkyV04RkWtr1JfvR2Gf00NjZIZny5LJpyi6/N+sP0D9SH4Fhw17QVf8re//U0LK18gTAmQsBshotaJUweAraXz07VDVEKCxMTHSFNVo3ak4CkjT0wQpdOEcGVDiZaqJilfX6JbnNaX1GjqFJtJZJ2U75v4Z2gbbjjJDlFRnRGyMH+uzMybqhqIIAPzaXjPK1qFQrohKxWx6pDlLKPN119/vU6C1X+rn7NWmKKTVqxYIb/85S91gwkL9BLbmOJHaBcEMaifghaiLdhI6rFihPlHWA1+3ML+L+BA2VP2N7/5jS4qS4STHAgeAAUxidjkPHoM9HIxJp/61Kc+dBN5sBxjmQSWnGJvfYwSIpjIKHvH0oPASPEAAcfZfYGtTe3eshg1B4ehBMtt2gOTnuA2PWvAUA1DQ7QPDBuL8AM6ZORXs33j1OlT5b19G+WXbz4kuxtLpDAv39Tpi0iVvbdXdjz3vpS/X6qL73MsOiVGYkbGG6Ha7lv43Bxn0klcRoKMv2SG5J81UaISo1UotLW2Scm+/bI4b4Hcdebtkh6Xqr/v4ACwqXB3Z2WR/HLlQ7K2cpOkpY+U5n11sv6hVVKxvlQi4sl9JifaN4RqJ0YRSY1OjdMdpKZeN9+Xb+pf+gxQLz6jsqJaJiQUyI2zrpR9a3bJ1+76hhwsP6jr/NJ2GDnAsTOygA8gvxRnzVbWLLtm15Z0OLFBvnKHsYuI028v/Zks3bFcskdnSXxivG5fuvvFTbL7pS3SZoQpYHg/LjNRR5LgLFHTtvpW5a4n2qN5qdMMb1kftc109ukAFZWUSJw3Sr502i1yweQzNeDAttRMACfCD1+JYtr5OAQeaEPoGAQkE5nIIUW7BOoV6yOY4P3zn/9clxjkGvjOefw2dXKePRfwyu5piFkiq3y23/UXw2Jvffs/z80jTxRHSuSH3gIPxg6985lzMS5MaGK/fRYbxxFboxcMdgZB2GKIcObUR5SJngf5RlbokgSPyL3xxht1VyrgDJTDUAQ8h+84Uba1s/lJRE4ptB27DircZgSByVK3ffazMnvOHDW67K3/tt1bPylZhQBGND4nSYf2MaoMs3KsvdEXNSUiYH7WGOFwFabjLpwueUvGa24qkQH+XfxbXOTUoSfAE1/kdK3urR8VESm12ytlz9ItGhklZcRrnLtOfjLaM8wTJhHREZrXR8SUiSdwTtNNzPkWln/NTc2S7EmQU8bOk5OmzpG4+Dgp3Veq7QHgA+yIHMEPJpNccMEFctddd6mvoB6Kg4PqioDIaUJSgkQYnRIRHynRpnPUaewew/fYSdaIxmYS4Sclik0k4C4d9/TpOcZeTpP0mbl6HqCDVFtXJ5GdHjk5f46MSyuQ6Jho1SwIT0aQbbqh5SzXwFnSFdnxiUAa6V3A6hWrhShEQkkDwB/wPddTAPVRL23GFj4zIs2kcUbaBtIWhkXk1MLeVG4Qi+QTvmbpG7ZiJOpJmJkHwbALM5HJs6DXa68LBXt7EKKrVq3SpGCisghVgGFi/VRmrBHmJlepp/ocHIYKLE9pG7QT8oo2bNigwzJEkIiikk/EmqcUuE2UiaVL1pVukvtW/k522cjpYd8EQerDoBIhPbhhn1RuOiB1xdXSXN2guVFEBlLGpEn2yYW6OwoRAd1+z1zHHzqBLnLq0B0sx2zkdF3VZklJSZbOQ+1StqFEanaUS2NZnaaWHDZcjTQdpYSsJBnJVrozciSpME35SWQqUJgC6oX3VRXVMiZutNxx6g0yJ3u6RobI1Xv66ad1OTXaB46ZgARraLNaC8VGklxQwgF0GzmFJ+Y7eEjHvXLzAal4v1Qqt5VLc0WddBjxyWooRPmZJJU+PVtGzcyR+MwkXUta6zbtIMITcVTk9PzJZ/jah9+OsgrRE088obad4By6iM7TvHnzNGLKMoEEKGybCoQ9xmQ/oqbkrRIthd+BCHUdUViW8MR3gOBz+ophJU6B/d/hJvKAiAThfOn1cnN5GESC6D3YHkBvN486bc+Aesg/tT0Segl2twUit9TljJPD8QLaieU33CZPm8Jn2guClOgpnTjyoUB34rQLpgnapH22NW2ra9ahfMRARGyURCWbthdlRGmnOYHL/M3PiVOH3gBXsbFHhvU3S1rGSImN9wlDcvdw+OQ4A3gW6V/mjAkoRKPwEKFMPvUeEad58gUjTmdnT5N2b7sRC74dePAltA9+C9tPBw7bT1vh3+Zsv4NFt+I0znAVneInImtEE+Un/9Tb3Oazi4afOlk0Mdq3Fq85oCkofnrBtVDiVOs0sHbdcpbUQ44RoEOv0JFCr4CeOEt7gO/4hr5wm99EV9Eu8BsDwbATpxY8CIDBwdHyv2mFo31vS1/ANfZW8Wrrpz5bR3/qc3AYKrDcpsBfa9h4b/OMlNv+SFNfxKm2FHN6V2uwb6y1MfUffQJvnTh16BmWl0eJ0/RUiY6N9s2878b+Ku2Uc4Zn3ZzD8Q+J05xpXfxHoNq2QbG2P/C9g4NFr+LUd5LvP0odP3948X+t6DrnCL/gXHfi1HKSYs8diF6x1/YHfa27Jwzbbl7gzUHJ42R55Zh9QP25efZ8ez31UQLrojg4HG8I5DWvge2lJ8drrtLhJy3mnCPvTR2m8N7Wi2PXYs/j1X/Okc++Yj5aM+3g0D3giSEL6SLhyq8Avh3FJx/HmN1M6eJccNHv/Pa86yf8dZrjgHNs++iq2//q4BAayqIuHvp4Zt/bzz6ufvh94Dn+a7qu9fOOEgSO28J5A9Ergef3pwwUw16cBt6oUMf6g+Drg4uDw/GKUFwOdcyCqADR0ta2NmloaNQ0F9/rkdLof62vbziqBJ9nS72po7GxSXOjbK/fwSEUfPxjT/A2aTKcqYdD5lV5FIJvlos9FnNuY1OTtLW3f4h/odpBqGMODh+G4ar5QxS1qbnZx9UQJZi3lrshC1w337e1HdlSNxjB/Az8bI/1BcHX9aUMBoatOA3GYN0wB4cTAb21F3r3njCPHG7vlPoaY0i7KQ0hSqjz6qvrzWu9NNU3SdjhEeIJ94hrsQ7dwbhAiTD8E69Ic32z1FXXheSaLSE5F1TqTGk61KSc9vEvNAMH0wE7nAgwXDV8wl7CVZ+t+zD/+sNbvjtkON/Z1qF128h+dzge+Tpsc04dHBw+GnQc7pTi6n3y0gfLpKhmn0SG+1a8GDgwoIe1/plZU+TjU86WhGjf1qkODgCe4WhZyuzlbSvkg/Kd3UjIY4Gt6bAUpI6Wcyecrq+MEPTm/B0cgmGj+7Dq6Y0vytp9m/QoXBoMe0k7aO9ol5SYZF3jdEb2ZKofNh0nJ04dHBz6BUxGi7dVqppqpNW8dhdhOlZgkOIjYyUtLlXCwz6837PDiQu4AdvajFNmrdOmNt9e94ON6IhoSY1NlmhPlPlNBMbwcPgO/1xY7pQ3VEpDa6MeOdIJGjion4jsyNgUiY+K8x8dHnDi1MHB4ZhgDcdguu2Pok6H4QnHFYfjCc5e9g9OnDo4OPQb9Ng/KtNBrUQbmJHq4BAKPv753n0U0Eip/nUcdBg4jlpq7yMAQ/nDjatOnDo4ODg4ODg4OAwZuCxvBwcHBwcHBweHIQMnTh0cHBwcHBwcHIYMnDh1cHBwcHBwcHAYMnDi1MHBwcHBwcHBYcjAiVMHBwcHBwcHB4chApH/Dwdeg9nc3f8RAAAAAElFTkSuQmCC;" vertex="1" parent="1"><mxGeometry x="4.000024414062494" y="131.9999755859375" width="679" height="260" as="geometry"/></mxCell></root></mxGraphModel></diagram></mxfile>